<?xml version="1.0" encoding="UTF-8"?>
<svg id="Layer_1" data-name="Layer 1" xmlns="http://www.w3.org/2000/svg" viewBox="0 0 244.67 269.09">
  <defs>
    <style>
      .cls-1 {
        fill: #fff;
      }
    </style>
  </defs>
  <path class="cls-1" d="M140.94,234.02c-2.2,8.13-10.52,10.02-18.6,10.02s-16.4-1.89-18.6-10.02c-3.27-12.16-8.81-42.63-8.81-56.81,0-15.04,13.34-18.71,27.41-18.71s27.41,3.68,27.41,18.71c0,14.09-5.51,44.56-8.81,56.81ZM93.58,148.47c-8.01-7.83-12.83-18.89-12.33-31.05.88-21.27,18.16-38.48,39.46-39.3,23.41-.91,42.75,17.85,42.75,41.03,0,11.47-4.74,21.86-12.37,29.32-1.15,1.12-1.03,2.99.27,3.93,3.99,2.89,7.05,6.56,9.1,10.85.74,1.56,2.78,1.99,4.05.81,12.35-11.57,19.94-28.14,19.49-46.44-.79-32.6-27.24-59.12-59.88-60.04-34.82-.99-63.46,27.01-63.46,61.57,0,17.69,7.51,33.66,19.51,44.91,1.26,1.18,3.3.76,4.05-.81,2.04-4.29,5.11-7.96,9.1-10.85,1.3-.94,1.42-2.81.27-3.93ZM122.33,25.04c-53.03,0-95.95,42.85-95.95,95.81,0,38.49,22.53,70.85,53.86,86.15,1.86.91,3.97-.66,3.66-2.7-1.02-6.63-1.86-13.24-2.32-18.97-.06-.79-.49-1.49-1.15-1.93-20.3-13.6-33.65-36.79-33.49-63.03.25-41.16,33.96-74.7,75.18-74.81,41.66-.11,75.59,33.7,75.59,75.28,0,26.49-13.77,49.83-34.54,63.25-.43,6-1.31,13.08-2.41,20.2-.31,2.04,1.8,3.61,3.66,2.7,31.25-15.26,53.86-47.57,53.86-86.15,0-52.95-42.91-95.81-95.95-95.81ZM122.33,93.48c-15.14,0-27.41,12.26-27.41,27.38s12.27,27.38,27.41,27.38,27.41-12.26,27.41-27.38-12.27-27.38-27.41-27.38Z"/>
</svg>