<?xml version="1.0" encoding="UTF-8"?>
<svg id="Layer_2" data-name="Layer 2" xmlns="http://www.w3.org/2000/svg" xmlns:xlink="http://www.w3.org/1999/xlink" viewBox="0 0 1918.39 1394.01">
  <defs>
    <style>
      .cls-1 {
        fill: none;
      }

      .cls-2 {
        fill: #2c7c87;
      }

      .cls-3 {
        fill: #4d6d69;
      }

      .cls-4 {
        fill: #162d54;
      }

      .cls-5 {
        fill: #152c53;
      }

      .cls-6 {
        fill: #66918b;
      }

      .cls-7 {
        fill: #ed8961;
      }

      .cls-8 {
        fill: #88aca7;
      }

      .cls-9 {
        fill: #f1bf97;
      }

      .cls-10 {
        fill: #f2ddb2;
      }

      .cls-11 {
        clip-path: url(#clippath);
      }
    </style>
    <clipPath id="clippath">
      <rect class="cls-1" width="1918.39" height="1394.01"/>
    </clipPath>
  </defs>
  <g id="Layer_1-2" data-name="Layer 1">
    <g class="cls-11">
      <g>
        <rect id="sky" class="cls-9" x="4.03" width="1916.78" height="1299.05"/>
        <ellipse id="sun" class="cls-7" cx="1387.67" cy="525.94" rx="180.2" ry="180.5"/>
        <rect id="ocean" class="cls-2" x=".81" y="586" width="1920.01" height="738"/>
        <path id="sand" class="cls-10" d="M660.7,892.79c-19.94,68.76-89.3,60.68-120.8,132-27.46,62.19,13.39,95.27-5.99,155-10.15,31.3-40.54,81.34-202.66,136-195.84,66.03-337.73,113.87-435.27,51-171.79-110.74-186.93-552.64,58.9-767,5.47-4.77,11-9.37,16.58-13.79h680.96c21.46,13.71,58.49,40.36,60.18,76.79,1.78,38.32-37.31,49.92-53.91,106-17.24,58.21,16.57,73.74,2,124Z"/>
        <path id="mtn_3" data-name="mtn 3" class="cls-8" d="M98.81,451.58c57.37-29.86,117.24-22.21,134.16-20.05,47.91,6.12,55.97,21.85,158.81,69.75,100.73,46.92,115.69,42.41,144.49,72.05,41.98,43.19,74.83,119.28,48.52,156.64-14.28,20.27-39.51,19.97-208.81,13.37-202.69-7.91-98.54-4.82-199.59-9.49-154.69-7.14-171.81-3.9-186.86-22.24-44.85-54.65,6.23-206.4,109.28-260.03Z"/>
        <path id="mtn_2" data-name="mtn 2" class="cls-6" d="M-159.07,404.97c16.59-22.01,48.66-63.38,97.64-71.56,46.15-7.71,85.48,17.7,120.39,40.25,47.29,30.55,77.27,68.1,96.69,92.81,37.66,47.92,32.77,58.61,71.1,106.23,33.24,41.3,64.27,67.25,84.37,83.86,54.44,45.02,66.23,39.84,109.96,76.04,43.28,35.82,101.93,84.38,97.64,131.95-5.71,63.2-119.96,95.85-160.2,107.35-120.07,34.31-136.28-11.84-264.48,17.89-69.4,16.09-91.35,35.77-207.6,62.62-66.61,15.38-100.25,22.88-116.6,13.42-109.55-63.4-53.62-495.41,71.1-660.85Z"/>
        <path id="mtn_1" data-name="mtn 1" class="cls-3" d="M-306.68,646c9.96-8.96,81.99-71.79,177.7-62,64.17,6.57,108.88,42.69,124.79,57,73.14,65.76,43.84,125.51,118.8,220,42.93,54.11,95.08,88.13,119.8,104,86.68,55.65,140.82,55.4,144.76,86,4.91,38.12-73.25,84.17-138.77,105-79.87,25.4-124,7.92-232.61,5-192.54-5.18-215.22,45.4-276.53,14-136.65-69.98-180.11-401.1-37.94-529Z"/>
        <g id="tree">
          <path class="cls-5" d="M386.82,65.01c-6.41-7.97-78.48,16.4-133.65,71.21-.97.96,10.37,43.36,9.42,44.34-1.23,1.26-14.77-38.88-15.98-37.59-46.12,49.2-87.75,126.99-51.62,219.83,0,0,96.15-4.02,161.4-135.23,5.45-10.97,10.29-21.13,14.56-30.58,1.1-2.42-41.89.23-40.87-2.09,1.58-3.61,47.13-12.13,48.55-15.51,36.72-87.8,17.79-102.45,8.2-114.38Z"/>
          <path class="cls-5" d="M211.71,356.22s18.44-147.69-92.9-197.21c-111.35-49.53-246.22,13.56-246.22,13.56,0,0,23.28,21.59,61.18,46.27,1.03.67,26.49-22.12,27.55-21.45,1.58,1.02-21.24,25.5-19.6,26.53,27.16,17.04,60.86,34.93,98.32,47.79,1.31.45,29.12-46.18,30.43-45.74,1.43.47-23.63,48.01-22.19,48.47,2.99.95,6.01,1.88,9.06,2.76,104.76,30.44,154.38,79.04,154.38,79.04Z"/>
          <path class="cls-5" d="M202.39,356.14s80.94-67.02,183.05-12.27c102.11,54.75,75.65,182.07,75.65,182.07,0,0-42.7-19.54-94.93-48.91-1.31-.73,6.08-48.35,4.76-49.1-1.96-1.11-12.63,44.64-14.62,43.51-55.89-32.05-119.97-74.22-153.91-115.3Z"/>
          <path class="cls-5" d="M202.39,356.14s126.21,23.56,128.5,134.44c.57,27.6-1.48,52.21-4.9,73.62-.34,2.13-20.3-32.75-20.67-30.68-.33,1.86,18.95,40.66,18.6,42.45-10.97,57.09-30.87,88.16-30.87,88.16,0,0-32.25-103.61-93.58-142.97-.99-.63,30.65-52.81,29.64-53.42-1.91-1.14-36.5,49.33-38.46,48.32-67.05-34.52-61.3-152.39,11.73-159.93Z"/>
          <path class="cls-5" d="M202.39,356.14s-99.28-31.32-162.84,75.69c-.43.73,26.12,17.95,25.7,18.68-1.58,2.73-30.05-11.04-31.45-8.35-52.85,101.43,19.54,170.93,19.54,170.93,0,0,27.85-24.31,52.66-59.79.77-1.1-24.25-20.62-23.48-21.75,1.08-1.58,27.93,15.22,28.99,13.61,14.19-21.76,26.54-47.03,30.78-73.14,12.02-73.91,60.12-115.89,60.12-115.89Z"/>
          <path class="cls-5" d="M196.44,357.03S127.75,207.63,7.46,233.85c-10.67,2.33-20.43,5.24-29.38,8.64-1.01.38,15.1,51.91,14.12,52.3-1.31.52-19.7-50.08-20.97-49.54-85.37,36.47-89.9,117.96-83.82,128.54,6.84,11.91,158.24,14.52,194.41-1.65,1.89-.85-11.79-48.28-9.68-49.03,1.52-.55,18.79,45.56,20.41,45.06,38.96-12.02,103.91-11.14,103.91-11.14Z"/>
          <path class="cls-5" d="M232.11,465.14c-9.43-5.01-39.61-13.01-51.16-3.13-11.55,9.89-17.22,67.28-13.01,72.3,4.22,5.01,48.6,10.03,57.29.03,8.7-10,6.88-69.2,6.88-69.2Z"/>
          <path class="cls-5" d="M223.12,531.41c-9.43-5.01-39.61-13.01-51.17-3.13-11.55,9.89-17.22,67.28-13,72.29,4.22,5.01,48.6,10.03,57.29.04,8.7-10,6.88-69.2,6.88-69.2Z"/>
          <path class="cls-5" d="M215.06,589.25c-9.44-5.01-39.61-13.01-51.16-3.13-11.56,9.89-17.22,67.28-13,72.3,4.21,5.01,48.6,10.03,57.29.03,8.69-10,6.87-69.2,6.87-69.2Z"/>
          <path class="cls-5" d="M208.2,656.41c-9.1-5.61-38.69-15.55-50.86-6.42-12.16,9.12-21.5,66.03-17.61,71.31,3.88,5.27,47.85,13.13,57.17,3.72,9.32-9.42,11.3-68.6,11.3-68.6Z"/>
          <path class="cls-5" d="M195.43,723.04c-8.93-5.87-38.22-16.67-50.65-7.91-12.43,8.76-23.43,65.37-19.7,70.75,3.73,5.39,47.45,14.55,57.03,5.4,9.59-9.13,13.31-68.24,13.31-68.24Z"/>
          <path class="cls-5" d="M180.5,790.24c-8.92-5.88-38.22-16.68-50.64-7.91-12.43,8.76-23.43,65.37-19.7,70.75,3.73,5.39,47.45,14.54,57.03,5.4,9.59-9.14,13.31-68.24,13.31-68.24Z"/>
          <path class="cls-5" d="M166.07,860.26c-8.56-6.4-37.15-18.94-50.08-10.94-12.93,8-27.29,63.86-23.89,69.44,3.41,5.6,46.49,17.36,56.62,8.82,10.11-8.55,17.35-67.32,17.35-67.32Z"/>
          <path class="cls-5" d="M146.66,927.28c-8.56-6.4-37.16-18.93-50.08-10.93-12.93,8-27.29,63.85-23.89,69.44,3.4,5.6,46.49,17.36,56.61,8.81,10.11-8.55,17.36-67.32,17.36-67.32Z"/>
          <path class="cls-5" d="M132.87,989.95c-9.28-6.94-40.29-20.53-54.3-11.85-14.01,8.67-29.59,69.23-25.89,75.29,3.69,6.07,50.4,18.82,61.38,9.55,10.97-9.26,18.82-72.99,18.82-72.99Z"/>
          <path class="cls-5" d="M118.21,1051.98c-9.54-7.14-41.43-21.11-55.83-12.19-14.41,8.92-30.42,71.18-26.63,77.42,3.79,6.25,51.83,19.36,63.11,9.82,11.28-9.52,19.35-75.05,19.35-75.05Z"/>
        </g>
        <g id="bushes">
          <path class="cls-4" d="M872.33,1475.54c314.05.41,628.14-11.61,939.65-36.06,40.95-3.29,81.66-8.61,121.32-15.48,4.06-.7,8.35-1.5,11.11-3.45,3.05-2.16,3.52-5.24,3.84-8.1,8.57-78.36,4.72-157.24-11.49-235.14-4.81-23.15-345.95,52.62-383.27,65.4-48.58,16.63-72.65,8.68-125.65,8.19-15.09-.14-29.95,2.05-44.62,4.22-74.03,10.96-170.9,39.05-247.79,32.04-.02,0-.04,0-.07,0-19.31-1.77-37.82-5.87-56.66-9.02-130.13-21.7-264.19,2.6-395.96.69-47.07-.68-108.6,5.38-151.68-7.35-47.22-13.95-73.91-45.8-123.72-57.14-14.26-3.24-29.63-4.47-43.64-8.1-42.8-11.08-65.32-42.12-108.52-52.61-44.04-10.69-96.2,3.24-140.4-7.2-24.25-5.73-43.11-18.2-67.53-23.65-33.28-7.42-72.51.17-97.03,15.85-44.28,28.33-24.85,57.93-28.48,91.7-5.52,51.37-5.56,103.27-2.98,154.72,2.22,44.41,42.65,54.44,112.11,59.49,279.2,20.3,560.31,30.64,841.46,31Z"/>
          <path class="cls-4" d="M156.85,1183.07c-3.06-1.42-6.16-2.76-9.33-3.93-9.74-3.57-19.6-7.26-27.71-13.93-9.48-7.79-16.84-17.4-25.6-25.95-15.13-14.79-41.96-21.75-60.89-10.01,19.39-16.2,42.55-22.86,66.86-12.32-3.76-10.14-16.71-18.96-25.35-24.59-11.65-7.58-32.43-19.38-46.79-18.02,10.39-4.47,31.06.55,41.48,3.66,5.91,1.79,13,4.74,18.49,7.7,5.03,2.7,9.09,8.04,14.61,9.65-4.16-23.94-2.59-47.88,3.93-71.31,4.28-15.34,11.38-29.88,21.62-41.55-7.81,18.02-14.27,35.59-16.47,55.07-.96,8.46-1.02,16.22-.81,24.62.24,10.04,3.23,21.92,6.15,31.52,1.99,6.55,11.54,19.39,10.76,25.44,2.39-18.35.99-37.04,5.92-56.04,5.6-21.51,13.04-42.02,7.92-64.25,8.55,21.51,6.45,48.57,3.17,71.01-1.15,7.87-12.93,33.41-7.2,38.52,13.42-23.38,25.99-52.44,27.95-79.6.75,30.29-8.48,57.2-14.44,85.7,13.74-7.24,39.85-69.66,31.68-82.72,14.97,23.97-8.57,77.09-18.95,100.2,9.59-11.07,13.38-29,24.36-40.76,9.41-10.06,29.09-25.4,43.16-27.15-11.59,11.61-19.92,24.39-26.23,39.72-4.55,11.04-13.42,30.31-10.93,41.89,9.8-14.79,17.91-29.81,34.1-39.19,15.14-8.77,32.53-6.99,47.02-11.1-14.78,9.67-30.22,15.1-43.76,27.36-8.53,7.73-16.43,16.52-23.44,25.67,12.18-7.28,27.8-9.21,40.94-15.24,16.1-7.38,32.37-14.39,49.79-17.94,12.38-2.54,37.01-7.54,48.71-1.13-9.73-5.33-40.82,8.26-50.27,12.16-18.32,7.57-50.15,17.17-59.9,36.21,23.57-7.32,42.14-14.73,67.97-12.36,20.3,1.86,40.03,4.03,59.62-4.18-20.11,8.42-34.74,21.54-57.23,25.08-8.58,1.35-16.84,2.09-25.33,2.5-9.25.46-61.85-1.27-61.35,9.86.71,16.34,54.19,1,63.19-1.22,12.26-3.02,24.9-2.79,37.33-.24,6.23,1.28,12.42,3.12,18.11,6.03,3.22,1.61,12.14,10.87,14.7,11-10.36-.53-22.2-6.01-33.23-7.42-15.21-1.93-31.15-1.81-46.27.18-13.22,1.75-25.16,7.2-38.8,8.29-18.82,1.52-41.81-.93-59.47-7.83-6.73-2.64-13.17-6-19.78-9.05Z"/>
          <path class="cls-4" d="M9.83,1145.11c2.61.83,5.2,1.73,7.74,2.78,7.79,3.22,15.73,6.43,24.25,6.89,9.95.54,19.64-1.17,29.57-1.48,17.18-.54,37.07,10.04,41.99,27.49-2.74-20.37-12.97-37.11-33.32-44.16,7.81-4.01,20.41-2.17,28.68-.79,11.14,1.86,30.06,6.22,37.93,14.94-3.78-8.39-18.92-16.76-26.87-20.62-4.53-2.18-10.39-4.31-15.3-5.55-4.49-1.15-9.85-.18-14.04-2.25,15.61-12.06,27.8-27.28,36.73-44.9,5.84-11.55,9.56-24.17,9.82-36.79-5.19,15.09-10.96,29.18-20.32,42.07-4.06,5.6-8.28,10.28-13.01,15.21-5.65,5.88-13.95,11.36-20.96,15.51-4.78,2.83-17.55,5.28-20.4,9.33,8.63-12.32,19.71-22.75,27.17-36.85,8.44-15.98,15.22-32.36,30.48-42.87-16.91,8.19-30.49,25.57-40.83,40.82-3.62,5.35-10.56,27.14-16.8,27.05,4.77-21.39,13.17-45.73,26.88-63.09-17.05,17.75-26.28,38.95-38.32,59.31-4.27-11.9,14.3-63.67,26.36-67.01-22.11,6.14-37.12,50.92-43.57,70.49.32-11.91,7.88-24.74,7.74-37.83-.12-11.21-3.51-31.23-10.98-40.01.58,13.33-1.43,25.58-6.05,38.23-3.32,9.12-8.57,25.55-16.41,31.12,2.23-14.26,5.61-27.72,1.04-42.24-4.27-13.58-15.67-22.08-22.1-32.51,3.56,13.92,9.83,25.67,11.23,40.47.88,9.33.79,18.94-.02,28.28-3.31-11.06-11.61-20.81-16.19-31.65-5.6-13.27-11.51-26.43-20.01-38.14-6.03-8.33-18.05-24.87-28.58-27.47,8.75,2.16,19.94,27.41,23.46,34.94,6.83,14.61,20.65,37.88,16.06,54.65-10.11-17.35-17.18-32.01-33.97-44.8-13.19-10.05-26.2-19.6-33.45-35.3,7.44,16.11,9.01,32.02,20.56,46.51,4.4,5.52,8.95,10.52,13.82,15.43,5.3,5.36,37.77,33.25,31.37,39.66-9.38,9.4-33.03-29.2-37.21-35.48-5.69-8.55-13.4-15.37-22.25-20.68-4.44-2.66-9.15-4.96-14.16-6.35-2.81-.81-13.23-.16-14.84-1.49,6.5,5.38,16.6,8.61,23.99,13.83,10.17,7.21,19.66,16.05,27.64,25.56,6.97,8.32,11.13,18.15,18.71,26.31,10.45,11.26,25.57,22.44,39.94,28.02,5.48,2.12,11.18,3.65,16.82,5.45Z"/>
          <path class="cls-4" d="M1771.75,1238.15c-2.82.18-5.65.42-8.46.83-8.62,1.26-17.38,2.49-26.04.81-10.11-1.96-19.39-6.11-29.27-8.92-17.09-4.86-39.68.74-48.99,16.99,7.86-19.74,22.31-33.93,44.49-35.89-6.83-5.99-19.92-7.32-28.55-8.01-11.64-.93-31.7-1.33-41.77,5.43,5.89-7.46,23.17-12.04,32.11-13.91,5.09-1.04,11.5-1.7,16.73-1.71,4.79-.02,9.92,2.3,14.65,1.28-12.63-16.02-21.03-34.34-25.56-54.26-2.96-13.05-3.52-26.63-.62-39.36,1.42,16.44,3.67,32.01,9.81,47.29,2.66,6.63,5.72,12.39,9.23,18.52,4.19,7.32,11.13,14.9,17.13,20.83,4.08,4.04,16.27,9.71,18.11,14.49-5.56-14.52-14.06-27.77-17.99-43.78-4.45-18.14-7.14-36.27-19.8-50.65,14.9,12.47,24.15,33.3,30.69,51.2,2.29,6.28,3.78,29.86,10.06,31.34.58-22.65-1.73-49.16-11.12-70.02,12.65,22.08,16.57,45.66,23.54,69.1,7.26-10.85,1.63-67.44-9.61-73.81,20.63,11.72,24.44,60.4,26,81.63,2.66-12.02-1.69-26.78,1.73-39.87,2.93-11.2,11.36-30.42,21.05-37.35-3.93,13.22-4.98,26-3.53,39.85,1.04,9.98,2.18,27.77,8.65,35.33,1.34-14.86,1.34-29.2,9.56-42.61,7.68-12.54,21.25-18.2,30.31-27.03-7.06,13.06-16.3,23.26-21.41,37.74-3.22,9.13-5.55,18.79-7.07,28.35,6.09-10.26,16.86-17.94,24.17-27.66,8.95-11.9,18.17-23.6,29.63-33.2,8.13-6.84,24.34-20.39,35.55-20.34-9.31-.04-26.87,22.46-32.29,29.12-10.51,12.93-30.2,32.77-29.81,50.75,14.49-14.85,25.26-27.76,45.29-36.36,15.74-6.76,31.18-13.05,42.39-26.97-11.5,14.28-17.07,29.83-32.27,41.45-5.8,4.43-11.61,8.29-17.72,12-6.65,4.04-46.21,23.83-41.39,31.86,7.05,11.79,40.44-20.96,46.2-26.21,7.85-7.14,17.28-12.03,27.49-15.13,5.11-1.54,10.42-2.67,15.79-2.8,3.02-.1,13.31,3.17,15.25,2.24-7.87,3.76-18.81,4.45-27.52,7.83-12.01,4.67-23.74,11.14-34.12,18.67-9.07,6.59-15.71,15.4-25.36,21.67-13.3,8.66-31.26,16.06-47.07,18.03-6.02.75-12.12.84-18.23,1.23Z"/>
          <path class="cls-4" d="M1546.2,1254.18c-2.15-4.76-8.35-5.93-13.56-5.66-5.2.27-10.83,1.24-15.31-1.41-3.2-1.89-5.37-5.43-8.88-6.65-6.52-2.26-11.24,3.96-16.55,6.33-6.12,2.74-11.77,2.44-18.42,3.31-.19.03-.38.09-.57.12,2.36-2.67,5.83-4.18,8.64-6.44,3.1-2.5,5.25-7.36,2.6-10.32-.77-.86-1.87-1.46-2.37-2.5-2.11-4.39,11.18-6.89,13.26-7.53,3.47-1.07,7.03-2.94,8.49-6.27,1.46-3.33-.51-8.15-4.14-8.27-1.52-.05-3.13.67-4.48-.02-2.42-1.24-1-5.09,1.22-6.66,2.53-1.78,5.69-2.6,8.03-4.63,2.34-2.04,3.34-6.23.82-8.03-.91-.65-2.07-.82-3.18-.93-15.15-1.42-30.72,7.63-37.01,21.51-2.08,4.58-3.47,9.93-7.63,12.75-2.45,1.67-5.48,2.16-8.33,2.94-2.99.82-5.84,2.06-8.54,3.58-1.59-2.68-5.56-5.38-7-8.33-1.97-4.05,1.36-7.63,5.32-9.51,3.97-1.88,8.83-2.94,11.61-5.84,8.15-8.48-3.62-24,2.84-34.01,5.45-8.45,7.88-18.47,7.01-28.91-.13-1.59-.58-3.5-2.42-4.47-6.44-3.37-7.77,9.85-8.73,12.18-2.47,5.97-9.56,9.26-15.14,13.37-12.84,9.45-16.3,24.95-20.97,38.63-2.34,6.86-4.7,13.77-5.16,21.17-7.28-.14-13.16,4.12-13.55,9.82-.33,4.74,2.7,10.26.47,14.35-1.35,2.48-4.38,3.89-6.86,5.64-1.9,1.34-3.43,2.91-4.77,4.6-.56-6.65-2.03-13.08-5.68-18.6-1.73-2.61-3.94-5.04-4.64-8.09-1.17-5.04,2.1-10.01,2.56-15.17.55-6.2-3.51-12.52-9.37-14.58.76-8.03-.08-16.12-.92-24.14-1.67-16-2.09-33.58-10.94-47.56-3.85-6.08-9.03-11.74-10.11-18.85-.42-2.77.53-17.28-5.15-15.64-1.62.47-2.27,2.38-2.62,4.03-2.29,10.87-1.87,22.29,1.22,32.96,3.66,12.63-8.14,25.62-2.9,37.14,1.79,3.93,5.53,6.54,8.42,9.75,2.9,3.2,5.02,8.04,2.82,11.76-2.19,3.71-8.14,5.46-7.78,9.76.23,2.74,3.03,4.35,5.08,6.17,3.89,3.46,5.66,9.14,4.43,14.2-2.38-1.47-5.69.2-6.96,2.7-.35.7-.57,1.44-.73,2.19-1.75-1.46-3.85-2.49-6.12-2.78-.81-6.95-2.97-13.65-5.13-20.3-4.3-13.27-7.82-28.09-17.84-38.34-4.36-4.46-9.77-8.32-11.96-14.16-.86-2.28-2.66-14.75-7.18-12.33-1.29.69-1.5,2.43-1.5,3.89.01,9.63,2.43,19.24,6.97,27.72,5.38,10.05-2.29,23.19,4.23,32.01,2.23,3.01,5.86,4.55,8.9,6.74,3.03,2.19,5.7,5.91,4.51,9.46-1.19,3.54-5.92,6.1-4.84,9.68.69,2.28,3.35,3.14,5.42,4.32,3.92,2.23,6.45,6.72,6.31,11.24-1.36-.48-2.74.09-3.81,1.07-1.66-2.88-4.54-5.05-7.81-5.66-2.02-.38-4.26-.26-5.93-1.46-2.58-1.85-2.4-5.67-2.09-8.83,1.01-10.12-4.72-12.71-13-12.77-1.92-.01-3.96-.92-4.75-2.68-.16-.36-.27-.74-.33-1.13-.2-1.17-.08-2.42-.3-3.6-.56-2.92-3.57-5.14-6.52-4.81-.88.1-1.74.39-2.62.31-6.94-.6-6.34-15.45-14.52-17.01-4.04-.77-8.21,1.74-12.21.8-7.03-1.66-10.75-7.55-18.63-4.09-2.38,1.04-6.58,5.1-4.56,8.09,2.04,3.02,9.61-1.1,12.01,2,1.95,2.52,2.22,5.9,3.08,8.96.86,3.07,2.92,6.33,6.1,6.54,2.05.14,4.04-1.06,6.07-.78,4.59.63,4.9,6.97,5.54,11.56.19,1.33.66,2.83,1.9,3.33,1.28.51,2.67-.29,4.02-.59,5.37-1.2,9.04,5.8,8.5,11.28-.14,1.46-.45,2.83-.8,4.17-1.33-3.44-2.9-6.12-8.35-8.25-5.5-2.15-8.67.79-14.15-.07-7.19-1.13-12.48-7.43-20.73-7.92-6.12-.36-11.93,4.23-13.78,9.94-.39,1.2-.62,2.49-.39,3.73.69,3.72,5.11,5.56,8.89,5.37,3.78-.19,7.41-1.69,11.19-1.77,7.49-.14,14.52,6.25,15.11,13.73.28,3.61-.3,8.18,2.85,9.94,3.45,1.92,8-1.78,11.57-.09,1.92.91,2.86,3.11,3.22,5.21.62,3.65.07,7.67-.14,11.49-.16,2.93-.03,5.7.9,8.14-2.72-2.89-5.34-5.77-7.9-7.72-4.14-3.17-9.91-5.18-14.55-2.78-1.64.85-2.98,2.18-4.55,3.14-1.57.97-3.59,1.55-5.25.75-1.07-.52-1.81-1.53-2.66-2.36-3.36-3.32-9.06-3.58-13.01-1.19-4.06,2.46-4.12,8.23-8.07,10.29-1.44.75-3.17.57-4.77.82-7.6,1.2-6.66,10.02-11.65,14.03-3.1,2.49-9.91,5.46-8.71,10.68,1.35,5.86,6.11,2.12,9.25-.37,3.85-3.06,8.17-5.52,12.75-7.28-.37,1.82,2.18,2.91,3.97,2.4,5.28-1.49,6.32-8.43,11.59-10.01,6.05-1.81,11.44,2.86,12.84,8.41.2.81.37,1.68.94,2.29.75.81,1.98.93,3.08.89,2.16-.07,4.3-.55,6.29-1.4,1.67-.72,3.32-1.72,5.14-1.68,2.95.07,5.14,2.9,6,5.73.28.92.46,1.86.62,2.81-1.42,1.22-2.81,2.47-4.01,3.89-2.18,2.57-3.74,5.93-3.2,9.26.79,4.9,7.95,5.03,7.48,9.76-.2,2.01-1.41,3.72-2.44,5.47-2.56-.35-5.22-.75-7.59.22-4.61,1.9-6.26,8.25-10.98,9.87-2.3.79-4.82.24-7.23-.09-10.03-1.37-20.35,1.78-28.41,7.78-4.14,3.08-8.9,7.97-11.21,12.6-5.15,10.3,4.53,8.87,11.01,3.64,3.92-3.17,7.09-7.26,11.3-10.04,5.94-3.93,13.76-4.83,20.43-2.37,6.65,2.45,13.73,8.03,19.9,4.55,3.08-1.74,5.86-5.65,9.15-4.35,1.52.61,2.38,2.17,3.34,3.5,7.49,10.3,24.26,6.27,30.77-2.96,1.89-2.68,3.29-5.84,5.92-7.81,1.36-1.02,2.96-1.63,4.61-2.09h0c.93-.26,1.87-.49,2.81-.7.85-.19,1.66-.3,2.45-.35,1.59-.11,3.09.03,4.68.28.79.13,1.6.28,2.45.45,2.6.51,5.32.66,8.01.46-.39.96-.85,1.89-1.5,2.76-5.13,6.83-17.14,3.52-17.27,15.84-.03,2.58.7,5.26-.18,7.69-1.2,3.29-4.81,4.84-7.77,6.69-2.97,1.85-5.81,5.38-4.29,8.53.95,1.96,3.26,2.91,4.43,4.75,2,3.14-.04,7.19-1.87,10.43-2.39,4.25-4.5,9.14-3.39,13.89s6.89,8.53,11.02,5.93c4.73-2.98,3.05-10.12,4.15-15.61,1.21-6.03,6.91-10.83,13.05-10.99,2.36-.06,4.99.42,6.87-1.01,1.89-1.43,2.16-4.09,2.71-6.4,2.37-9.89,11.44-10.49,16.43-17.1,4.6-6.09,14.54-4.14,20.79-8.51,2.86-2,4.6-5.24,5.28-8.7,3.33-.52,6.57-1.72,11.28-3.42,7.52-2.72,14.1-3.19,21.05,1.42,4.21,2.87,7.38,7.08,11.58,9.97,8.66,5.1,19.35,6.03,28.44,1.39,6.87-3.51,18.24-11.29,26.38-7.66,2.79,1.25,3.98,4.54,6.22,6.62,3.96,3.68,10.12,2.88,15.52,3.09,7.34.29,14.39,2.88,21.62,4.16,7.24,1.29,15.35,1.05,21.08-3.56,1.01-2.42-.87-5.22-3.25-6.31-2.38-1.09-5.1-1.01-7.7-1.25-8.08-.76-15.57-5.3-20.49-11.69-3.93-5.1-3.58-15.29-7.71-18.91-.93-.82-2.12-1.28-3.3-1.63-5.02-1.49-10.53-1.25-15.4.68-1.16.46-2.35,1.03-3.6.97-1.79-.08-3.26-1.41-4.51-2.7-2.99-3.1-5.71-6.47-8.13-10.04-1.57-2.33-3.08-4.82-5.38-6.44-2.39-1.68-4.85-2.23-7.35-2.15,2-6.17,3.5-13.58,8.71-16.42,6.13-3.34,13.66.07,18.35-6.4,3.38-4.66,1.02-9.92,2.23-15.23.91-3.99,3.73-7.82,7.73-8.66,7.37-1.55,13.5,7.21,21.03,6.96,1.9-.06,3.94-.87,4.79-2.58.66-1.33.47-2.92.84-4.36.64-2.56,2.98-4.4,5.48-5.26,2.5-.86,5.18-.93,7.81-1.15,4.19-.36,8.34-1.14,12.37-2.34,1.96-.58,4.12-1.48,4.8-3.41.39-1.13.17-2.39-.32-3.48Z"/>
          <path class="cls-4" d="M1603.41,1267.25c2.92.08,5.86.24,8.77.57,8.95,1,18.04,1.96,26.95-.06,10.41-2.36,19.91-6.93,30.06-10.15,17.55-5.57,41.06-.6,51.08,15.77-8.6-19.99-23.9-34.07-46.88-35.32,6.91-6.38,20.42-8.19,29.33-9.2,12.01-1.36,32.75-2.44,43.33,4.15-6.28-7.46-24.25-11.57-33.55-13.18-5.29-.9-11.93-1.35-17.35-1.19-4.96.14-10.21,2.7-15.12,1.81,12.67-16.88,20.91-35.97,25.12-56.57,2.74-13.49,3-27.46-.32-40.42-1.07,16.92-3.02,32.99-9,48.88-2.6,6.9-5.61,12.92-9.1,19.32-4.15,7.65-11.15,15.68-17.21,21.96-4.13,4.29-16.59,10.52-18.38,15.49,5.4-15.09,13.87-28.98,17.55-45.56,4.16-18.77,6.51-37.48,19.25-52.66-15.11,13.3-24.17,35.01-30.5,53.6-2.22,6.52-3.18,30.78-9.64,32.52-1.15-23.23.6-50.52,9.81-72.25-12.54,23.1-16.03,47.44-22.67,71.74-7.77-10.89-3.33-69.17,8.15-76.1-21.05,12.73-23.81,62.83-24.91,84.68-3.05-12.25,1.1-27.55-2.75-40.87-3.31-11.4-12.48-30.84-22.67-37.62,4.39,13.44,5.78,26.52,4.61,40.79-.84,10.28-1.58,28.58-8.09,36.56-1.74-15.21-2.09-29.93-10.92-43.42-8.25-12.61-22.42-17.95-32.01-26.71,7.62,13.17,17.42,23.32,23.06,38.01,3.55,9.26,6.19,19.1,8,28.86-6.55-10.32-17.87-17.84-25.67-27.57-9.54-11.91-19.37-23.61-31.45-33.07-8.58-6.74-25.66-20.1-37.26-19.67,9.63-.36,28.33,22.14,34.1,28.79,11.19,12.91,32.03,32.61,32.06,51.08-15.35-14.75-26.79-27.64-47.72-35.78-16.44-6.4-32.57-12.34-44.49-26.24,12.24,14.26,18.38,30.04,34.39,41.45,6.1,4.35,12.21,8.11,18.62,11.71,6.98,3.92,48.37,22.89,43.58,31.29-7,12.34-42.33-20.14-48.42-25.33-8.29-7.06-18.17-11.76-28.8-14.6-5.33-1.41-10.84-2.39-16.4-2.34-3.12,0-13.69,3.71-15.72,2.82,8.23,3.59,19.56,3.93,28.65,7.1,12.53,4.38,24.82,10.63,35.74,18,9.54,6.45,16.63,15.27,26.75,21.38,13.97,8.44,32.72,15.42,49.12,16.91,6.25.56,12.56.45,18.89.65Z"/>
          <path class="cls-4" d="M546.15,1323.52c1.97-4.83-1.45-10.15-5.22-13.75-3.77-3.6-8.35-7.02-9.51-12.1-.83-3.63.24-7.64-1.29-11.03-2.85-6.29-10.6-5.45-15.97-7.67-6.2-2.57-9.86-6.88-15.07-11.11-.15-.12-.32-.21-.48-.33,3.55-.12,7.04,1.36,10.61,1.85,3.94.53,8.94-1.24,9.27-5.21.1-1.15-.23-2.36.18-3.44,1.73-4.55,12.68,3.39,14.58,4.46,3.16,1.79,6.97,3.09,10.39,1.86,3.42-1.23,5.56-5.98,3.14-8.7-1.01-1.13-2.65-1.81-3.07-3.27-.76-2.61,3-4.23,5.66-3.69,3.03.61,5.8,2.35,8.88,2.65,3.08.3,6.81-1.86,6.38-4.93-.16-1.11-.83-2.07-1.52-2.95-9.39-11.99-26.66-17.09-41.05-12.11-4.75,1.64-9.58,4.3-14.49,3.23-2.89-.63-5.33-2.5-7.86-4.04-2.65-1.61-5.51-2.83-8.47-3.74.85-3,.07-7.74,1.22-10.82,1.58-4.22,6.46-4.26,10.55-2.67,4.09,1.59,8.21,4.39,12.22,4.42,11.76.09,14.9-19.14,26.6-21.33,9.87-1.85,18.81-6.98,25.76-14.8,1.06-1.19,2.14-2.84,1.57-4.83-1.99-7-12.48,1.13-14.83,2.03-6.03,2.31-13.29-.58-20.11-1.81-15.68-2.83-29.29,5.32-42.41,11.33-6.58,3.01-13.21,6.06-18.89,10.81-4.91-5.39-12.04-6.73-16.43-3.1-3.66,3.03-5.58,9.02-10.08,10.21-2.72.72-5.83-.5-8.8-1.11-2.28-.46-4.47-.49-6.61-.3,4.43-4.98,8.08-10.48,9.57-16.93.71-3.05.94-6.33,2.67-8.94,2.85-4.32,8.7-5.36,12.75-8.58,4.87-3.86,6.65-11.16,4.11-16.84,6.34-4.98,11.62-11.15,16.86-17.28,10.45-12.22,22.89-24.62,26.93-40.67,1.75-6.98,2.29-14.64,6.7-20.32,1.72-2.21,12.89-11.5,7.79-14.5-1.45-.86-3.29-.02-4.72.87-9.45,5.81-17.44,13.98-23.04,23.56-6.64,11.35-24.16,11.71-28.9,23.45-1.62,4.01-.94,8.52-1.27,12.83-.33,4.31-2.37,9.18-6.58,10.14-4.2.96-9.56-2.16-12.42,1.06-1.82,2.05-1.07,5.2-.98,7.94.17,5.21-2.72,10.4-7.24,12.99-.57-2.74-4.06-4-6.74-3.2-.75.22-1.44.57-2.09.98-.14-2.28-.85-4.52-2.19-6.36,4.48-5.37,7.85-11.55,11.18-17.7,6.66-12.25,14.98-25.01,15.5-39.35.23-6.23-.7-12.82,2.02-18.44,1.06-2.19,8.85-12.08,3.99-13.7-1.39-.46-2.79.58-3.85,1.59-6.96,6.63-12.26,15-15.29,24.14-3.58,10.82-18.38,14.29-20.28,25.1-.65,3.69.74,7.39,1.24,11.11.5,3.71-.36,8.21-3.75,9.79-3.39,1.57-8.49-.11-10.34,3.14-1.18,2.07.03,4.6.6,6.91,1.09,4.38-.44,9.31-3.8,12.32-.58-1.32-1.95-1.93-3.4-2.03.94-3.19.54-6.78-1.27-9.58-1.12-1.73-2.74-3.27-3.02-5.31-.43-3.15,2.45-5.64,4.96-7.59,8.03-6.23,5.96-12.17.3-18.24-1.31-1.4-2.06-3.51-1.33-5.29.15-.37.36-.71.59-1.02.71-.95,1.7-1.72,2.4-2.7,1.73-2.42,1.27-6.13-.99-8.05-.67-.57-1.48-1-2.03-1.69-4.34-5.46,6.83-15.24,2.34-22.26-2.22-3.46-6.91-4.77-8.98-8.32-3.63-6.25-1.93-13.01-9.86-16.36-2.39-1.01-8.22-1.28-9,2.26-.79,3.57,7.41,6.23,6.81,10.11-.48,3.15-2.74,5.67-4.37,8.41-1.63,2.73-2.57,6.48-.54,8.94,1.31,1.58,3.54,2.21,4.74,3.87,2.71,3.77-1.67,8.36-4.56,11.98-.84,1.05-1.6,2.43-1.1,3.68.51,1.29,2.05,1.74,3.2,2.51,4.57,3.08,2.02,10.56-2.32,13.94-1.15.9-2.36,1.62-3.57,2.29,1.58-3.33,2.43-6.32.23-11.74-2.22-5.48-6.54-5.76-9.69-10.33-4.13-6-3.2-14.19-8.52-20.52-3.95-4.7-11.27-5.76-16.68-3.17-1.14.54-2.23,1.27-2.97,2.29-2.23,3.06-.51,7.54,2.22,10.15,2.73,2.62,6.32,4.22,8.98,6.92,5.26,5.35,5.47,14.85.45,20.43-2.42,2.69-6.13,5.41-5.23,8.91.98,3.83,6.8,4.59,8.02,8.35.66,2.02-.29,4.22-1.56,5.92-2.21,2.96-5.51,5.33-8.42,7.8-2.23,1.9-4.15,3.9-5.28,6.25.22-3.96.5-7.86.16-11.05-.56-5.19-3.07-10.77-7.99-12.49-1.74-.61-3.63-.67-5.41-1.14-1.78-.48-3.59-1.54-4.15-3.3-.36-1.14-.14-2.36-.12-3.56.09-4.72-3.64-9.05-8.09-10.28-4.58-1.26-8.8,2.66-13.01,1.21-1.54-.53-2.59-1.91-3.88-2.91-6.1-4.69-11.85,2.05-18.18,1.19-3.94-.54-10.78-3.45-13.73,1.02-3.32,5.01,2.67,5.9,6.63,6.47,4.86.7,9.62,2.14,14.05,4.26-1.57.99-.61,3.59.99,4.54,4.71,2.81,10.46-1.21,15.23,1.53,5.48,3.15,5.8,10.29,2.74,15.12-.45.71-.96,1.43-1.01,2.26-.07,1.1.69,2.08,1.47,2.86,1.54,1.52,3.36,2.75,5.34,3.61,1.67.72,3.53,1.23,4.75,2.58,1.98,2.2,1.44,5.73-.03,8.3-.48.83-1.04,1.61-1.61,2.38-1.86-.19-3.72-.34-5.58-.24-3.36.19-6.87,1.36-8.91,4.05-3,3.95,1.83,9.24-1.92,12.15-1.59,1.24-3.66,1.53-5.64,1.99-1.51-2.1-3.04-4.31-5.38-5.36-4.55-2.04-10.29,1.13-14.7-1.19-2.16-1.13-3.49-3.34-4.91-5.32-5.91-8.23-15.29-13.57-25.18-15.3-5.08-.89-11.9-.98-16.84.52-11,3.35-3.31,9.39,4.94,10.5,5,.67,10.14.16,15.05,1.3,6.93,1.61,12.97,6.67,15.77,13.22,2.8,6.52,3.63,15.5,10.4,17.6,3.38,1.05,8.13.37,9.44,3.66.61,1.52.07,3.23-.23,4.84-2.32,12.53,12.15,21.95,23.31,20.33,3.25-.47,6.5-1.63,9.73-1.07,1.68.29,3.22,1.04,4.69,1.91h0c.83.5,1.65,1.02,2.44,1.56.72.49,1.36,1,1.95,1.54,1.17,1.08,2.11,2.27,3.02,3.6.45.66.9,1.36,1.37,2.09,1.42,2.24,3.18,4.32,5.18,6.13-.96.38-1.95.69-3.03.81-8.48.97-14.34-10.04-23.36-1.66-1.89,1.76-3.33,4.13-5.69,5.16-3.2,1.39-6.82-.16-10.2-1.05-3.38-.89-7.89-.52-9.13,2.75-.77,2.04.14,4.37-.39,6.49-.9,3.62-5.24,4.91-8.85,5.82-4.73,1.18-9.71,3.02-12.39,7.09s-1.44,10.88,3.29,12.08c5.41,1.39,9.43-4.75,14.16-7.72,5.2-3.27,12.6-2.43,16.94,1.92,1.67,1.67,3.13,3.91,5.46,4.3,2.33.39,4.45-1.25,6.5-2.43,8.8-5.08,15.48,1.1,23.69.18,7.58-.85,13,7.72,20.47,9.26,3.42.7,6.96-.26,9.93-2.15,2.67,2.06,5.77,3.59,10.24,5.84,7.15,3.59,12.01,8.06,13.45,16.28.82,5.04-.06,10.24.74,15.28,2.27,9.8,8.95,18.22,18.56,21.63,7.27,2.58,20.73,5.49,23.7,13.9,1.02,2.89-.55,6.02-.52,9.08.06,5.41,4.87,9.33,8.44,13.41,4.84,5.54,7.81,12.44,11.86,18.58,4.05,6.15,9.8,11.88,17.08,12.87,2.45-.93,3.18-4.22,2.33-6.7-.85-2.48-2.78-4.4-4.39-6.46-5.01-6.4-6.87-14.97-5.63-22.94.99-6.37,8.62-13.12,8.39-18.62-.05-1.24-.53-2.42-1.09-3.52-2.37-4.67-6.34-8.51-11.08-10.73-1.13-.53-2.36-1-3.18-1.95-1.17-1.36-1.22-3.34-1.14-5.14.19-4.31.75-8.6,1.69-12.82.61-2.75,1.38-5.56.96-8.34-.43-2.89-1.72-5.06-3.5-6.82,5.85-2.79,12.25-6.8,17.89-4.96,6.63,2.16,9.35,9.98,17.27,8.93,5.7-.75,7.89-6.08,12.57-8.86,3.51-2.08,8.23-2.67,11.59-.34,6.2,4.29,4.06,14.77,9.42,20.07,1.35,1.34,3.35,2.27,5.17,1.71,1.42-.44,2.44-1.66,3.73-2.39,2.3-1.29,5.24-.86,7.58.36,2.34,1.22,4.24,3.13,6.21,4.88,3.14,2.8,6.57,5.28,10.21,7.39,1.77,1.02,3.91,1.98,5.77,1.14,1.09-.49,1.85-1.52,2.3-2.62Z"/>
          <path class="cls-4" d="M732.01,1323.02c-3.41-.72-6.85-1.34-10.29-1.76-10.57-1.28-21.29-2.65-31.32-7.63-11.71-5.81-21.99-14.09-33.25-20.89-19.47-11.76-47.63-12.24-62.01,5.04,13.34-22.13,33.47-35.13,60.39-30.22-6.97-9.77-22.37-15.77-32.56-19.51-13.74-5.03-37.67-12.18-51.06-7.05,8.54-7.4,30.12-7.4,41.2-6.78,6.29.38,14.1,1.68,20.36,3.4,5.74,1.56,11.42,6.17,17.27,6.46-11.92-24.27-18.31-50.01-19.76-76.48-.94-17.33,1.1-34.55,7.11-49.53-1.58,21.07-1.99,41.34,2.31,62.52,1.87,9.2,4.37,17.43,7.35,26.27,3.55,10.56,10.35,22.37,16.34,31.79,4.08,6.42,17.53,17.56,18.78,24.17-3.76-20.04-11.29-39.46-12.8-60.84-1.71-24.21-1.32-47.83-13.6-70.04,15.35,20.57,22.26,49.75,26.51,74.35,1.49,8.62-1.43,38.68,5.78,42.61,5.21-28.19,7.73-62.18.65-91.44,10.73,31.87,10.72,62.72,14.39,94.41,10.85-11.19,15.4-83.97,3.21-95.7,22.35,21.53,17.2,83.8,14.83,110.93,5.58-14.18,3.31-34.13,10.01-49.4,5.74-13.07,19.65-34.36,32.63-39.83-7.34,15.26-11.15,30.94-12.17,48.77-.74,12.86-2.93,35.53,3.3,47.14,4.56-18.18,7.42-36.16,19.93-50.23,11.69-13.17,29.05-15.76,41.66-23.82-11.05,14.03-24.14,23.75-33.15,40.2-5.67,10.37-10.38,21.7-14.11,33.19,9.34-10.84,23.75-16.89,34.43-26.65,13.08-11.94,26.45-23.55,42.07-31.78,11.09-5.87,33.19-17.48,46.59-13.7-11.14-3.14-36.62,19.23-44.44,25.78-15.16,12.72-42.67,31.05-45.79,53.71,20.3-13.8,35.76-26.41,61.44-30.55,20.18-3.25,39.92-6.02,56.1-19.74-16.61,14.08-26.37,31.72-46.88,41.24-7.82,3.63-15.55,6.54-23.6,9.15-8.77,2.86-60.04,14.54-55.88,26.2,6.08,17.11,52.57-12.86,60.51-17.52,10.82-6.35,23.08-9.35,35.91-9.84,6.43-.24,13,.11,19.45,1.73,3.63.88,15.29,8.39,17.81,7.87-10.17,2.1-23.39-.66-34.49.68-15.3,1.86-30.63,6.09-44.55,12.08-12.17,5.25-21.87,14.08-34.67,18.74-17.64,6.44-40.61,9.75-59.91,6.99-7.36-1.06-14.68-2.97-22.06-4.5Z"/>
          <path class="cls-4" d="M565.93,1304.93c2.76.15,5.53.37,8.29.77,8.47,1.22,17.08,2.4,25.41.51,9.73-2.2,18.52-6.7,27.97-9.79,16.35-5.35,38.69.27,48.73,17.3-8.84-20.73-23.77-35.53-45.48-37.3,6.29-6.41,18.95-7.98,27.32-8.82,11.28-1.14,30.79-1.81,41,5.19-6.19-7.8-23.29-12.41-32.11-14.27-5.02-1.03-11.3-1.65-16.4-1.59-4.67.04-9.53,2.55-14.19,1.54,11.33-17.07,18.41-36.52,21.62-57.6,2.1-13.81,1.83-28.16-1.77-41.55-.39,17.37-1.64,33.83-6.71,50.04-2.2,7.03-4.82,13.15-7.87,19.66-3.64,7.78-9.95,15.87-15.42,22.2-3.73,4.32-15.26,10.45-16.76,15.52,4.54-15.39,12.02-29.49,14.89-46.44,3.24-19.2,4.77-38.37,16.23-53.71-13.76,13.35-21.52,35.46-26.8,54.43-1.85,6.65-1.88,31.57-7.91,33.21-1.93-23.89-1.27-51.9,6.62-74.04-10.99,23.47-13.39,48.41-18.77,73.23-7.73-11.36-5.65-71.15,4.92-78.03-19.38,12.63-20.16,64.06-20.4,86.49-3.32-12.65.04-28.29-4.08-42.06-3.53-11.79-12.89-31.96-22.75-39.15,4.62,13.9,6.42,27.38,5.84,42.02-.41,10.55-.45,29.34-6.29,37.39-2.2-15.66-3.06-30.8-11.87-44.85-8.24-13.14-21.79-18.93-31.15-28.14,7.66,13.7,17.27,24.34,23.13,39.56,3.69,9.59,6.53,19.76,8.59,29.83-6.55-10.75-17.5-18.72-25.2-28.88-9.43-12.44-19.12-24.67-30.85-34.66-8.33-7.11-24.93-21.21-35.84-21.01,9.07-.16,27.52,23.36,33.2,30.32,11.02,13.51,31.39,34.2,32.09,53.17-15.01-15.48-26.27-28.97-46.3-37.79-15.74-6.93-31.15-13.38-42.9-27.92,12.06,14.92,18.42,31.27,33.93,43.34,5.91,4.6,11.81,8.6,17.98,12.43,6.72,4.18,46.43,24.56,42.23,33.09-6.15,12.53-40.64-21.6-46.57-27.06-8.08-7.44-17.56-12.48-27.68-15.62-5.07-1.56-10.31-2.69-15.54-2.75-2.95-.07-12.77,3.52-14.72,2.56,7.89,3.87,18.58,4.46,27.27,7.91,11.97,4.77,23.79,11.45,34.35,19.27,9.23,6.84,16.23,16.05,26,22.54,13.48,8.97,31.41,16.54,46.92,18.43,5.91.71,11.86.73,17.83,1.07Z"/>
          <path class="cls-4" d="M1178.9,1317.97c-2.82.18-5.65.42-8.46.83-8.62,1.26-17.38,2.49-26.04.81-10.11-1.96-19.39-6.11-29.27-8.92-17.09-4.86-39.68.74-48.99,16.99,7.86-19.74,22.31-33.93,44.49-35.89-6.83-5.99-19.92-7.32-28.55-8.01-11.64-.93-31.7-1.33-41.77,5.43,5.89-7.46,23.17-12.04,32.11-13.91,5.09-1.04,11.5-1.7,16.73-1.71,4.79-.02,9.92,2.3,14.65,1.28-12.63-16.02-21.03-34.34-25.56-54.26-2.96-13.05-3.52-26.63-.62-39.36,1.42,16.44,3.67,32.01,9.81,47.29,2.66,6.63,5.72,12.39,9.23,18.52,4.19,7.32,11.13,14.9,17.13,20.83,4.08,4.04,16.27,9.71,18.11,14.49-5.56-14.52-14.06-27.77-17.99-43.78-4.45-18.14-7.14-36.27-19.8-50.65,14.9,12.47,24.15,33.3,30.69,51.2,2.29,6.28,3.78,29.86,10.06,31.34.58-22.65-1.73-49.16-11.12-70.02,12.65,22.08,16.57,45.66,23.54,69.1,7.26-10.85,1.63-67.44-9.61-73.81,20.63,11.72,24.44,60.4,26,81.63,2.66-12.02-1.69-26.78,1.73-39.87,2.93-11.2,11.36-30.42,21.05-37.35-3.93,13.22-4.98,26-3.53,39.85,1.04,9.98,2.18,27.77,8.65,35.33,1.34-14.86,1.34-29.2,9.56-42.61,7.68-12.54,21.25-18.2,30.31-27.03-7.06,13.06-16.3,23.26-21.41,37.74-3.22,9.13-5.55,18.79-7.07,28.35,6.09-10.26,16.86-17.94,24.17-27.66,8.95-11.9,18.17-23.6,29.63-33.2,8.13-6.84,24.34-20.39,35.55-20.34-9.31-.04-26.87,22.46-32.29,29.12-10.51,12.93-30.2,32.77-29.81,50.75,14.49-14.85,25.26-27.76,45.29-36.36,15.74-6.76,31.18-13.05,42.39-26.97-11.5,14.28-17.07,29.83-32.27,41.45-5.8,4.43-11.61,8.29-17.72,12-6.65,4.04-46.21,23.83-41.39,31.86,7.05,11.79,40.44-20.96,46.2-26.21,7.85-7.14,17.28-12.03,27.49-15.13,5.11-1.54,10.42-2.67,15.79-2.8,3.02-.1,13.31,3.17,15.25,2.24-7.87,3.76-18.81,4.45-27.52,7.83-12.01,4.67-23.74,11.14-34.12,18.67-9.07,6.59-15.71,15.4-25.36,21.67-13.3,8.66-31.26,16.06-47.07,18.03-6.02.75-12.12.84-18.23,1.23Z"/>
          <path class="cls-4" d="M983.61,1296.07c2.92.08,5.86.24,8.77.57,8.95,1,18.04,1.96,26.95-.06,10.41-2.36,19.91-6.93,30.06-10.15,17.55-5.57,41.06-.6,51.08,15.77-8.6-19.99-23.9-34.07-46.88-35.32,6.91-6.38,20.42-8.19,29.33-9.2,12.01-1.36,32.75-2.44,43.33,4.15-6.28-7.46-24.25-11.57-33.55-13.18-5.29-.9-11.93-1.35-17.35-1.19-4.96.14-10.21,2.7-15.12,1.81,12.67-16.88,20.91-35.97,25.12-56.57,2.74-13.49,3-27.46-.32-40.42-1.07,16.92-3.02,32.99-9,48.88-2.6,6.9-5.61,12.92-9.1,19.32-4.15,7.65-11.15,15.68-17.21,21.96-4.13,4.29-16.59,10.52-18.38,15.49,5.4-15.09,13.87-28.98,17.55-45.56,4.16-18.77,6.51-37.48,19.25-52.66-15.11,13.3-24.17,35.01-30.5,53.6-2.22,6.52-3.18,30.78-9.64,32.52-1.15-23.23.6-50.52,9.81-72.25-12.54,23.1-16.03,47.44-22.67,71.74-7.77-10.89-3.33-69.17,8.15-76.1-21.05,12.73-23.81,62.83-24.91,84.68-3.05-12.25,1.1-27.55-2.75-40.87-3.31-11.4-12.48-30.84-22.67-37.62,4.39,13.44,5.78,26.52,4.61,40.79-.84,10.28-1.58,28.58-8.09,36.56-1.74-15.21-2.09-29.93-10.92-43.42-8.25-12.61-22.42-17.95-32.01-26.71,7.62,13.17,17.42,23.32,23.06,38.01,3.55,9.26,6.19,19.1,8,28.86-6.55-10.32-17.87-17.84-25.67-27.57-9.54-11.91-19.37-23.61-31.45-33.07-8.58-6.74-25.66-20.1-37.26-19.67,9.63-.36,28.33,22.14,34.1,28.79,11.19,12.91,32.03,32.61,32.06,51.08-15.35-14.75-26.79-27.64-47.72-35.78-16.44-6.4-32.57-12.34-44.49-26.24,12.24,14.26,18.38,30.04,34.39,41.45,6.1,4.35,12.21,8.11,18.62,11.71,6.98,3.92,48.37,22.89,43.58,31.29-7,12.34-42.33-20.14-48.42-25.33-8.29-7.06-18.17-11.76-28.8-14.6-5.33-1.41-10.84-2.39-16.4-2.34-3.12,0-13.69,3.71-15.72,2.82,8.23,3.59,19.56,3.93,28.65,7.1,12.53,4.38,24.82,10.63,35.74,18,9.54,6.45,16.63,15.27,26.75,21.38,13.97,8.44,32.72,15.42,49.12,16.91,6.25.56,12.56.45,18.89.65Z"/>
        </g>
      </g>
    </g>
  </g>
</svg>