<?xml version="1.0" encoding="UTF-8"?>
<svg id="Layer_2" data-name="Layer 2" xmlns="http://www.w3.org/2000/svg" viewBox="0 0 1920 1080">
  <defs>
    <style>
      .cls-1 {
        fill: #3c4850;
      }

      .cls-2 {
        fill: #6a4c34;
      }

      .cls-3 {
        fill: #db5a28;
      }

      .cls-4 {
        fill: #57a2d2;
      }

      .cls-5 {
        fill: #edae70;
      }

      .cls-6 {
        fill: #e79752;
      }

      .cls-7 {
        fill: #164767;
      }

      .cls-8 {
        fill: #78bbe7;
      }
    </style>
  </defs>
  <g id="Layer_1-2" data-name="Layer 1">
    <g>
      <polygon class="cls-8" points="0 756.62 502.27 442.53 529.98 553.05 980.37 264.89 1066.98 358.61 1510.44 0 1920 350.97 1920 1080 0 1080 0 756.62"/>
      <polygon class="cls-4" points="514.67 1069.07 1545.36 436.08 1920 589.33 1920 1080 514.67 1069.07"/>
      <path class="cls-7" d="M0,942.4s543.59-399.27,1288.28-67.31c238.64,106.38,540.33,80.62,631.72,105.35v99.55H0v-137.6Z"/>
      <g>
        <path class="cls-3" d="M244.71,882.55l8.99,15.83,11.86,20.3c.86,1.48,2.26,3.2,3.1,4.71l4.24,7.61c1.21,2.17,2.64,7.03,2.96,9.67l1.32,11.05c1.09,9.06-3.94,16.41-8.97,23.1-.97,1.3-3.89,3.27-5.25,4.53-6.55,6.12-19.38,6.61-26.2,4.57-4.85-1.45-10.74-5.09-14.27-8.52-8.86-8.58-9.23-31.14-7.54-42.06,4.35-6.85,4.25-12.75,8.96-20.28l6.37,11.68c.42.78,2.52,3.17,3.32,2.62,5.49-3.7.18-14.66,2.07-30.68l1.37-11.58,1.28-4.55c.51-1.83,1.36-6.09,4.61-6.06.75,2.38,1.41,5.67,1.77,8.08Z"/>
        <path class="cls-2" d="M268.22,974.81c1.67,3.04,6.21,3.7,10.21,3.73,3.47.03,6.77,1.16,9.96,1.6,4.71.65,9.37.65,13.94,1.01l-.03,13.86c-5.89-1.45-11.04-2.7-16.12-4.56s-9.84-6.2-16.07-3.22l7.03,4.51c2.93,1.88,6.17,3.1,9.22,2.97l7.67,2.53c1.19,4.68.17,10.27-2.44,15.13.69,2.17.76,2.66-.67.56l-3.92,4.14-1.14-4.21c-.17-.64-2.99-.3-3.65-.68l-13.6-7.83-12.16-7.01c-6.15-3.55-10.13-6.73-16.67-2.57l-9.56,6.07c-1.75.2-2.3.34.03,1.1-11.03,3.43-13.18,9.02-23.39,11.34l-1.54,3.67c-1.61-.67-3.87-1.49-4.15-2.69l-1.35-5.82-.84,2.04-2.25-8.84c-.28-1.1-.72-4.54.31-4.66l3.4-.39,6.93-3.01,5.96-3.21-7-.05c-3.81-.03-7.04,1.88-9.75,3.83l-8.22,2.32.14-15.46,10.31-1.75c10.66-1.81,26.23,1.58,23.68-3.89,3.54,3.43,9.43,7.06,14.27,8.52,6.81,2.04,19.65,1.55,26.2-4.57,1.35-1.27,4.27-3.24,5.25-4.53Z"/>
        <path class="cls-1" d="M286.18,990.44c-1.36.25-3.89.71-3.87.71,2.62,2.16,3.22,2.64,4.06,3.55-3.05.13-6.29-1.09-9.22-2.97l-7.03-4.51c6.23-2.98,11.16,1.42,16.07,3.22Z"/>
        <path class="cls-1" d="M200.45,996.61c-1.09-.94-2.49-1.8-3.86-2.43,2.71-1.95,5.94-3.86,9.75-3.83l7,.05-5.96,3.21-6.93,3.01Z"/>
      </g>
    </g>
    <polygon class="cls-6" points="444.28 870.25 587.99 662.55 800.3 639.44 654.85 931.73 444.28 870.25"/>
    <polygon class="cls-6" points="793.97 734.99 859.45 934.62 732.82 929.98 793.97 734.99"/>
    <polyline class="cls-5" points="800.3 639.44 654.85 931.73 732.82 929.98 743.89 929.73 794.2 758.04 852.07 934.62 933.1 934.62"/>
  </g>
</svg>