<?xml version="1.0" encoding="UTF-8"?>
<svg id="Layer_1" data-name="Layer 1" xmlns="http://www.w3.org/2000/svg" viewBox="0 0 974.45 434.37">
  <defs>
    <style>
      .cls-1 {
        fill: #231f20;
      }
    </style>
  </defs>
  <g>
    <path class="cls-1" d="M66.3,42.64c-7.5-5.7-12.9-13.5-12.9-22.2C53.4,8.44,62.7.64,75.6.04c11.7-.6,27,5.1,36.6,16.5,6.6-1.2,15-2.1,22.2-1.8,20.4.9,30.9,9.3,30.9,18.9,0,13.5-21,24.3-45,24.3-15.6,0-30.6-2.7-42-8.4-1.5,2.1-3.3,5.4-4.5,9-.9,3-1.5,6.6-.9,9.6,3.3-.6,10.5-1.2,14.7-.9,8.7.3,16.8,2.4,16.2,7.5-.6,4.2-9,5.7-16.5,5.7-9.3,0-20.1-3-24-8.1-8.1,3-18.9,9.9-27.3,18-9.6,9-17.4,21.3-17.7,33-.6,16.2,8.7,21.9,24.6,21.9,17.7,0,32.4-7.8,44.1-15.6,7.8-5.4,17.7-14.1,21.3-17.4,2.4-2.1,3.3-2.4,3.9-1.8.6.6.3,1.5-2.7,4.2-3.9,3.6-14.7,13.2-21.3,17.7-12.3,8.7-27.6,16.2-45.3,17.1-25.8,1.2-42.9-7.2-42.9-26.7,0-21.9,24-43.8,61.8-52.5-1.5-2.7-2.1-5.4-2.1-9.3,0-6.6,2.4-12.6,6.6-18.3ZM75,2.74c-10.2.6-18.9,6.6-18.9,17.4,0,7.5,4.8,14.1,12,20.1,1.5-2.1,4.5-5.1,6.3-6.6,8.4-7.2,19.5-12.6,32.1-15.9-7.5-9.3-20.4-15.6-31.5-15ZM87.6,77.74c5.7.3,10.8-.9,10.8-3.9,0-2.7-6-3.9-10.8-4.2-3.3-.3-10.2,0-14.1.6,1.2,4.8,8.1,7.2,14.1,7.5ZM158.1,33.64c.3-7.2-5.1-15.9-22.8-16.5-6.3-.3-13.5,1.2-20.4,3.6,1.8,3.6,3.3,8.4,3.9,13.2.6,5.1.3,7.8-.6,7.8-.6,0-.3-1.5-1.5-6-1.2-4.8-3.9-9.6-6.6-13.2-7.5,3.6-15.3,9.3-21.9,15.3-1.8,1.5-6,6-8.4,9.3,10.8,5.4,25.5,7.8,39.9,7.8,19.8,0,37.8-7.8,38.4-21.3Z"/>
    <path class="cls-1" d="M144.9,87.94c5.7,0,7.5,3.3,7.5,6.6,0,3.6-2.4,7.5-6.3,12.9-4.5,6-10.8,14.1-14.1,18.9l.3.3c7.2-6,17.1-14.7,27.6-22.5,10.5-7.8,23.7-16.2,32.4-16.2,7.5,0,10.5,3.6,9.6,8.7-.9,4.8-6.6,11.1-11.7,17.1-5.1,6-8.1,9.6-10.8,13.2l.3.3c6.9-6,17.7-15.3,28.2-23.1,10.5-7.8,23.7-16.2,32.7-16.2,6.6,0,9.9,3.3,9.3,8.1-.9,5.4-7.2,12.3-12,18.3-4.8,5.7-8.1,10.5-9.9,13.2-2.4,3.6-2.4,5.7-1.2,6.6,1.5,1.2,4.8,0,7.2-1.2,3.6-1.8,7.8-4.2,14.4-9.3,5.1-3.9,11.1-9.3,14.4-12.3,1.8-1.5,3-2.7,3.9-1.8.6.6-.3,1.8-2.4,3.9-2.7,2.7-11.7,10.8-18,15.6-6,4.5-17.7,12-27,12-6,0-9.3-2.7-9-7.8.3-6.9,7.5-14.7,12.6-21l12.6-14.7c1.2-1.5,1.8-3.3.3-4.2s-4.8.3-7.8,1.8c-5.4,2.7-13.8,7.8-23.4,15.3-13.2,10.2-20.4,17.1-33.6,27.3-2.7,2.1-4.8,2.7-7.8,2.7-4.8,0-5.7-.9-3.9-4.8,3-6.3,10.5-16.8,15.9-23.4,5.1-6.3,10.5-11.7,12.6-14.7,1.2-1.5,1.5-3.6-.3-4.2s-4.2.3-7.5,1.8c-5.4,2.7-14.4,8.1-23.4,15.3-13.2,10.2-20.4,17.1-33.6,27.3-2.7,2.1-4.5,2.7-7.8,2.7-4.2,0-6.3-.6-3.9-4.8,2.1-3.9,8.7-13.8,13.2-20.1,4.5-6.3,8.7-11.4,12-15.6,2.1-2.7,2.7-4.2,2.1-5.1-.9-1.2-2.7-.6-4.5.3-3.6,1.8-8.1,5.1-11.7,8.1l-12.9,11.4c-3,2.7-4.2,3.6-5.1,2.7-.6-.9.9-2.4,4.5-5.7,3.6-3.3,10.2-9.6,15.6-13.8,8.1-6.3,14.1-9.9,20.4-9.9Z"/>
    <path class="cls-1" d="M274.2,105.34c-4.5,3.6-7.8,6.3-10.8,9-2.4,2.1-3.6,3-4.5,2.4-.6-.6,0-1.8,3.3-4.8,3.3-3,14.1-12,21.3-16.8,7.8-5.4,11.7-6.6,17.4-6.6,6.3,0,6.9.9,3.3,4.8-5.4,6-10.2,11.7-16.2,19.2-5.1,6.3-8.7,11.7-10.5,14.7-1.8,3.3-2.1,5.4-.9,6.6,1.5,1.2,4.2.6,7.2-.9,3-1.5,8.1-4.8,13.2-9,6.3-5.1,9-7.5,13.8-12,2.7-2.4,3.9-3.6,4.8-2.7s-2.4,3.9-3.3,4.8c-3.6,3.6-11.1,10.2-17.1,15-6,4.8-16.2,12.3-26.1,12.3-6.3,0-9-3-9-7.8,0-3.9,2.1-7.8,4.5-11.4,6-9.3,17.7-21.6,22.5-25.8-2.1.9-8.4,5.4-12.9,9ZM331.2,55.84c-3.6,4.8-11.1,8.1-14.1,8.1-1.5-1.8-1.8-6.3-.3-10.2,1.8-4.5,6.3-5.7,12-5.7,4.2,0,6,3.3,2.4,7.8Z"/>
    <path class="cls-1" d="M325.19,102.34l-12.3,11.1c-1.8,1.5-2.7,1.8-3.3.9-.3-.9.6-1.8,1.5-2.7,1.2-1.2,12.6-11.1,21.9-18.9,7.8-9.9,22.5-28.2,35.4-42.9,10.2-12,22.5-25.2,35.7-37.2,3.6-3.3,6.9-5.1,10.8-5.1,3,0,4.5,1.2,4.5,2.1-5.7,5.7-32.1,34.8-44.7,49.8-20.1,24.3-41.7,52.2-48,66-.9,2.1-2.7,6.3-.6,8.1,2.1,1.5,6.6-.3,9.3-1.8,3.9-2.1,8.1-5.1,12.3-8.4,5.4-4.2,9.3-7.5,13.2-11.1,1.2-1.2,3.6-3.3,4.5-2.4.6.6-.3,1.8-2.1,3.6-3.6,3.6-11.1,10.2-18.3,15.6-6,4.5-17.1,12-27,12-6,0-9.6-2.7-9.3-8.1.3-7.2,7.8-18.9,16.8-30.3l-.3-.3Z"/>
    <path class="cls-1" d="M425.39,105.34c-6,5.1-16.5,13.2-24.3,19.2-12.3,9.3-23.1,16.5-32.1,16.5-6.3,0-9.9-3.3-9.6-8.7.3-3.3,2.1-7.5,5.4-12,6-8.4,13.8-16.8,21.3-24-2.1.9-8.7,5.7-13.2,9.3-4.5,3.6-7.5,6-10.5,8.7-2.4,2.1-3.6,3-4.5,2.4-.6-.6,0-1.8,3.3-4.8,3.3-3,14.1-12,21.3-16.8,7.8-5.4,11.7-6.6,17.4-6.6,6.3,0,6.9.9,3.3,4.8-3.9,4.2-9.6,11.1-15.6,18.6-4.8,6.3-9.6,12.9-11.1,16.2-1.2,2.4-1.2,4.5-.3,5.4,1.2,1.2,3.9.6,6.9-.9,6.6-3.6,13.2-8.1,22.5-15.3,14.4-11.1,22.8-18.6,32.4-26.1,2.4-1.8,4.2-3.3,8.7-3.3,6,0,7.5.6,4.2,4.5-4.8,6.3-9.6,12.3-15.6,20.1-5.1,6.6-17.1,23.1-23.7,32.1,9-4.5,22.8-10.8,33.9-15,10.8-4.2,28.2-10.2,43.5-8.7,16.5,1.5,25.8,15.6,21.6,31.2-.9,3.9-3.3,7.2-4.5,9-.6.9-1.8,2.1-2.4,1.5-.3-.3.3-1.2.9-2.1.9-1.5,1.8-3.6,2.7-7.5,3-12.9-6.6-24.9-21-26.4-10.8-1.2-27.3,2.4-40.2,6.9-15.6,5.4-25.5,9.9-36.6,15-11.4,16.2-33.3,45-42.9,55.5-20.1,22.2-42.9,41.1-61.2,50.7-6.9,3.6-15,6.3-21,6.3-7.2,0-15.3-2.4-13.8-12.6,2.4-18,36.6-43.5,59.4-59.1,24.9-17.1,43.8-27.6,63.9-39,5.1-7.2,13.8-20.1,31.8-44.7l-.3-.3ZM304.19,251.75c13.5-8.1,31.2-23.7,54.9-54,12-15.3,26.1-33.9,32.1-42.3-16.2,9.3-35.7,20.4-63,39.3-25.2,17.4-46.2,38.1-47.4,53.7-.3,4.5,1.5,7.2,4.5,8.1,4.8,1.5,13.2-1.2,18.9-4.8Z"/>
  </g>
  <g>
    <path class="cls-1" d="M279.78,299.97c-.3-9.9,7.2-20.4,18-20.4,6.9,0,12,4.2,11.4,10.2-.6,4.8-3.6,7.5-6.6,10.2-2.7,2.4-5.1,4.2-5.7,7.5-1.2,6,6.6,10.5,21.6,10.5,25.8,0,66.3-18.6,97.8-42,27.6-20.1,54-47.1,83.7-74.7-14.4-2.7-33.3-4.8-59.4-4.8-32.7,0-64.2,12.3-69.9,39.3-2.4,12,1.2,27,20.4,33.6,2.4.9,3.9.6,3.6,1.5-.3.9-2.4,1.2-5.7.3-17.4-5.1-26.4-20.4-24.9-36.3,3-27.9,30.3-46.2,77.1-44.4,24.9.9,48,5.7,61.5,7.8l5.7-5.4c2.7-2.4,6.6-5.7,9.6-5.4,4.5.6,3.9,3-.3,7.8l-4.2,4.8c7.5,1.2,16.2,1.5,21.9,1.5,8.4,0,20.4-1.2,30.9-5.4,10.2-4.2,16.5-9,20.1-13.8,3.9-4.8,1.8-6.6,3.3-7.2,2.1-.6,2.4,4.2.9,7.5-1.8,3.9-4.5,8.1-11.4,15-14.4,15-36,38.4-50.1,56.1-15.6,19.5-31.8,40.8-32.1,51.9,0,2.4,1.5,3.9,3.9,3.9,4.8,0,13.2-4.5,22.8-12.3,6-4.8,11.1-9.3,14.4-12.3,1.5-1.2,2.7-2.4,3.6-1.5.6.9-.6,2.1-2.7,4.2-3.9,3.6-9.3,8.4-16.8,14.4-6,4.8-16.2,11.7-24.6,12-7.5.3-13.2-2.4-13.5-11.1-.3-10.8,9.3-24.9,22.2-41.4,12-15.6,34.5-39.9,49.8-52.8l-.3-.3c-20.1,15-40.5,31.8-60.3,48.9-22.8,19.8-40.2,35.4-57.3,51.6-3.6,3.3-5.1,6-7.8,3.9-2.4-1.8-.9-5.7.9-8.1,17.4-24.3,47.4-74.4,63.6-94.5l-.3-.3c-11.1,10.8-50.1,49.5-76.8,69-29.7,22.2-71.1,42.6-102.3,42.6-16.8,0-34.8-4.5-35.7-21.6ZM516.78,235.47c16.5-13.5,30.9-24.6,46.5-35.4v-.3c-8.7,3.3-19.8,4.5-28.8,4.8-6.9,0-15.6-.6-23.1-1.5-14.7,21-36.3,61.2-51,80.7,11.7-10.5,35.7-31.5,56.4-48.3Z"/>
    <path class="cls-1" d="M539.27,287.37c-2.1,1.8-3.3,2.4-3.9,1.8-.6-.9.9-2.4,2.1-3.6,2.1-2.1,6.3-5.4,9.3-7.5,3.9-2.7,8.1-5.4,14.4-8.7,8.7-4.5,18-7.8,24.9-8.1,2.1,0,4.5,0,4.5,1.2,0,.6-.9.6-3.3,1.8-7.2,3.3-13.2,8.4-21.6,16.5-8.7,8.7-16.8,20.4-17.4,26.4-.3,3,.9,5.1,4.2,5.1,6.6,0,18.6-8.1,27.9-18.3.3-3,1.5-7.5,5.4-12.6,3.3-4.5,7.5-6.9,9.6-7.8.9-2.1.9-5.4.9-6.9,0-3.3-1.2-4.2-.3-4.8,1.2-.6,3,.6,4.2,1.8,2.4,2.4,4.2,6,3.6,10.5-.9,7.2-7.8,15.9-17.1,24.3,1.2.6,4.5.3,5.7,0,2.7-.6,6-2.1,10.2-5.1,3.9-2.7,6.3-4.8,9.6-7.8,2.7-2.4,4.2-3.9,5.1-3,.9.9-.9,2.7-3.9,5.4-2.7,2.4-5.7,5.1-9.6,7.8-4.8,3.3-8.4,4.8-11.4,5.4-2.7.6-6.3.6-8.1-.6-7.8,6-21.9,14.7-34.2,14.7-9.3,0-15-4.5-14.7-13.2.3-6,3.9-13.2,9.6-19.2l-.3-.3-5.4,4.8Z"/>
    <path class="cls-1" d="M628.37,288.87c3.3-4.5,8.7-11.4,12-15.6,2.1-2.7,2.7-4.2,2.1-5.1-.9-1.2-2.7-.6-4.5.3-3.6,1.8-8.1,5.1-11.7,8.1-3.9,3.3-8.7,7.5-12.9,11.4-3,2.7-4.2,3.6-5.1,2.7-.6-.9.9-2.4,4.5-5.7,3.6-3.3,10.2-9.6,15.6-13.8,8.1-6.3,14.1-9.9,20.4-9.9,5.7,0,7.5,3.3,7.5,6.6,0,3.6-2.4,7.5-6.3,12.9-2.4,3.3-6.6,8.7-9,12l.6.6c3.3-3.3,10.5-10.5,18.3-16.8,4.8-3.9,9.6-7.8,14.7-11.1,4.5-3,6.9-3.9,8.7-4.2,1.5-.3,5.4-.3,6.9.3.9.3,1.2,1.5-2.1,4.2-4.2,3.6-9.9,8.7-11.4,13.8-2.4,8.1,1.2,11.7,5.7,11.7,3.6,0,6.9-2.7,10.2-5.7,2.1-1.8,3-2.4,3.9-1.8.6.6-.3,1.8-3,4.5s-6.9,5.7-11.1,6c-5.7.3-10.2-1.2-12.9-5.4-2.1-3.3-2.1-9.6.6-15.9-4.5,3.3-10.5,7.8-12.9,9.9-8.7,7.5-18.6,16.8-30.3,28.2-2.1,2.1-4.5,2.7-7.8,2.7-4.2,0-6.3-.6-3.9-4.8,2.1-3.9,8.4-13.8,13.2-20.1Z"/>
    <path class="cls-1" d="M745.67,261.27c6,.9,7.5,5.4,6.9,10.2h.3c6.6-7.5,9.9-10.2,14.4-10.2,5.7,0,7.2,1.2,3.9,4.8-5.4,6.3-9.6,12-15.6,19.8-5.1,6.6-15.6,21.3-24.6,33.3,6.6-3.9,19.8-12,28.8-18.9,6.6-5.1,12.3-9.6,18.6-15.3,1.5-1.5,3-2.1,3.6-1.5.9.9-1.5,3-3,4.5-4.5,4.2-10.8,9.3-17.7,14.7-10.8,8.1-23.4,15.9-33,21.3-12.9,18.9-32.4,44.1-41.1,53.7-20.1,22.2-44.1,41.1-61.8,50.4-7.8,4.2-15,6.3-20.7,6.3-7.5,0-15.6-2.4-14.1-12.6,2.4-18,37.2-43.2,60.6-58.5,27.6-17.7,40.2-24.3,60.9-37.2,5.4-7.5,15.3-21,20.1-28.2l-.3-.3c-8.1,6.9-21.3,16.2-32.4,16.8-6.6.3-13.2-2.1-12.3-12,.6-4.5,3-9.3,8.4-15.6l-.3-.3-3.9,3.6c-1.2.9-2.1,1.5-2.7.9-.6-.9,1.5-3.3,4.8-6.3.9-.9,5.4-4.5,8.4-6.6s7.8-5.4,13.8-8.4c10.8-5.7,22.2-9.6,30-8.4ZM649.37,368.67c-25.2,16.8-47.4,37.5-48.6,53.1-.3,4.5,1.5,7.2,4.5,8.1,4.8,1.5,13.5-1.5,18.9-4.8,13.5-8.1,31.2-23.7,54.9-54,12-15.3,24.3-31.5,30.3-39.9-17.7,11.7-32.1,18.9-60,37.5ZM716.87,283.17c-12.3,12-17.4,19.8-16.8,23.7.3,2.1,1.8,3,3.9,3,5.7,0,17.1-6.6,25.2-14.1,9.6-8.4,20.4-21.3,20.7-26.1.3-3.9-2.1-5.4-5.4-5.4-6,0-16.8,8.1-27.6,18.9Z"/>
    <path class="cls-1" d="M854.27,261.27c6.3-.3,6.9,1.2,3.9,4.8-3.9,4.5-10.5,12-16.8,19.8-3.9,4.8-7.8,9.9-10.5,14.7-2.1,3.6-2.1,6-.9,6.9,1.5,1.2,4.5,0,6.9-1.2,3-1.5,8.7-5.4,13.5-9.3,6.3-5.1,11.1-9.3,14.4-12.3,1.8-1.5,3.3-3,4.2-2.1s-.6,2.4-3.9,5.4c-3.9,3.6-11.1,9.9-16.8,14.4-6,4.8-15.9,12-25.8,12-5.7,0-8.4-2.7-8.7-6.3-.3-3.3,1.5-7.5,4.2-10.8l-.3-.3c-7.8,6.9-21.6,16.8-33,17.4-6.6.3-13.5-2.4-12.3-12,.6-4.5,3-9.3,8.4-15.6l-.3-.3-3.9,3.6c-1.2.9-2.1,1.5-2.7.9-.6-.9.9-2.7,4.2-5.7.9-.9,6-5.1,9-7.2s8.1-5.4,13.8-8.4c11.7-6,22.2-9.6,30-8.4,6,.9,8.1,6.3,6.3,11.4,7.2-7.5,12.3-11.4,17.1-11.4ZM802.07,283.17c-12.3,12-17.4,19.8-16.8,23.7.3,2.1,1.8,3,3.9,3,5.7,0,17.1-6.6,25.2-14.1,9.6-8.4,20.4-21.3,20.7-26.1.3-3.9-2.1-5.4-5.4-5.4-6,0-16.8,8.1-27.6,18.9Z"/>
    <path class="cls-1" d="M917.86,306.57c.3-6.6,6.9-14.1,12.6-21l12.6-14.7c1.2-1.5,1.8-3.3.3-4.2s-4.8.3-7.8,1.8c-5.4,2.7-13.8,7.8-23.4,15.3-13.2,10.2-20.4,17.1-33.6,27.3-2.7,2.1-4.5,2.7-7.8,2.7-4.2,0-6.3-.6-3.9-4.8,2.1-3.9,8.4-13.8,13.2-20.1l12-15.6c2.1-2.7,2.7-4.2,2.1-5.1-.9-1.2-2.7-.6-4.5.3-3.6,1.8-8.1,5.1-11.7,8.1l-12.9,11.4c-3,2.7-4.2,3.6-5.1,2.7-.6-.9.9-2.4,4.5-5.7,3.6-3.3,10.2-9.6,15.6-13.8,8.1-6.3,14.1-9.9,20.4-9.9,5.7,0,7.5,3.3,7.5,6.6,0,3.6-2.4,7.5-6.3,12.9-4.5,6-10.8,14.1-14.1,18.9l.3.3c7.2-6,17.1-14.7,27.6-22.5,10.5-7.8,23.7-16.2,32.7-16.2,6.3,0,9.9,3,9.3,8.1-.9,5.4-7.2,12.3-12,18.3-4.8,5.7-8.4,10.8-9.9,13.2-2.4,3.9-2.4,5.7-1.2,6.6,1.5,1.2,4.8,0,7.2-1.2,3.6-1.8,7.8-4.2,14.4-9.3,5.1-3.9,11.1-9.3,14.4-12.3,2.4-2.1,3.3-2.4,3.9-1.8s-.3,1.8-2.4,3.9c-2.7,2.7-11.7,10.8-18,15.6-6,4.5-17.7,12-27,12-5.7,0-9.3-2.7-9-7.8Z"/>
  </g>
</svg>