<?xml version="1.0" encoding="UTF-8"?>
<svg id="Layer_2" data-name="Layer 2" xmlns="http://www.w3.org/2000/svg" viewBox="0 0 1790.68 2683">
  <defs>
    <style>
      .cls-1 {
        fill-rule: evenodd;
      }

      .cls-1, .cls-2 {
        fill: #fff;
      }

      .cls-3 {
        opacity: .76;
      }
    </style>
  </defs>
  <g id="Layer_1-2" data-name="Layer 1">
    <g class="cls-3">
      <g id="stars">
        <ellipse class="cls-2" cx="1344.99" cy="1547.07" rx="2.93" ry="3.29"/>
        <ellipse class="cls-2" cx="1328.01" cy="902.69" rx="2.93" ry="3.29"/>
        <ellipse class="cls-2" cx="1408.8" cy="252.22" rx="2.93" ry="3.29"/>
        <ellipse class="cls-2" cx="1707.85" cy="1448.56" rx="2.93" ry="3.29"/>
        <ellipse class="cls-2" cx="1225.74" cy="2124.8" rx="2.93" ry="3.29"/>
        <ellipse class="cls-2" cx="1208.77" cy="1480.43" rx="2.93" ry="3.29"/>
        <ellipse class="cls-2" cx="1782.7" cy="392.93" rx="2.93" ry="3.29"/>
        <path class="cls-1" d="M1585.93,1066.5c-.72-1.63-.13-3.6,1.32-4.41s3.21-.14,3.92,1.49c.72,1.63.13,3.6-1.32,4.41s-3.21.14-3.92-1.49Z"/>
        <path class="cls-1" d="M1103.82,1742.74c-.72-1.63-.13-3.6,1.32-4.41s3.21-.14,3.92,1.49.13,3.6-1.32,4.41-3.21.14-3.92-1.49Z"/>
        <path class="cls-1" d="M1086.85,1098.37c-.72-1.63-.13-3.6,1.32-4.41,1.45-.81,3.21-.14,3.92,1.49s.13,3.6-1.32,4.41-3.21.14-3.92-1.49Z"/>
        <path class="cls-1" d="M1442.73,525.08c-.49.27-1.09.05-1.33-.51s-.04-1.23.45-1.5,1.09-.05,1.33.51.04,1.23-.45,1.5Z"/>
        <path class="cls-1" d="M1482.8,1687.52c-.77-1.6-.25-3.59,1.17-4.46s3.2-.28,3.97,1.31c.77,1.6.25,3.59-1.17,4.46s-3.2.28-3.97-1.31Z"/>
        <path class="cls-1" d="M1465.82,1043.15c-.77-1.6-.25-3.59,1.17-4.46s3.2-.28,3.97,1.31.25,3.59-1.17,4.46-3.2.28-3.97-1.31Z"/>
        <path class="cls-1" d="M1393.58,104.06c-1.42.87-3.2.28-3.97-1.31s-.25-3.59,1.17-4.46c1.42-.87,3.2-.28,3.97,1.31s.25,3.59-1.17,4.46Z"/>
        <path class="cls-1" d="M1570.04,1308.1c.77,1.6.25,3.59-1.17,4.46s-3.2.28-3.97-1.31c-.77-1.6-.25-3.59,1.17-4.46s3.2-.28,3.97,1.31Z"/>
        <path class="cls-1" d="M1087.93,1984.34c.77,1.6.25,3.59-1.17,4.46s-3.2.28-3.97-1.31-.25-3.59,1.17-4.46,3.2-.28,3.97,1.31Z"/>
        <path class="cls-1" d="M1070.96,1339.97c.77,1.6.25,3.59-1.17,4.46s-3.2.28-3.97-1.31-.25-3.59,1.17-4.46,3.2-.28,3.97,1.31Z"/>
        <path class="cls-1" d="M1657.71,547.79c1.42-.87,3.2-.28,3.97,1.31s.25,3.59-1.17,4.46c-1.42.87-3.2.28-3.97-1.31-.77-1.6-.25-3.59,1.17-4.46Z"/>
        <path class="cls-1" d="M1664.21,1152.4c-.72-.56-.89-1.67-.39-2.48.5-.8,1.49-1,2.21-.44s.89,1.67.39,2.48-1.49,1-2.21.44Z"/>
        <path class="cls-1" d="M1182.1,1828.64c-.72-.56-.89-1.67-.39-2.48s1.49-1,2.21-.44.89,1.67.39,2.48-1.49,1-2.21.44Z"/>
        <path class="cls-1" d="M1165.13,1184.27c-.72-.56-.89-1.67-.39-2.48s1.49-1,2.21-.44.89,1.67.39,2.48-1.49,1-2.21.44Z"/>
        <path class="cls-1" d="M1519.15,441.96c-.5.8-1.49,1-2.21.44s-.89-1.67-.39-2.48,1.49-1,2.21-.44c.72.56.89,1.67.39,2.48Z"/>
        <ellipse class="cls-2" cx="1415.27" cy="1370.05" rx="2.93" ry="3.29"/>
        <ellipse class="cls-2" cx="1398.29" cy="725.67" rx="2.93" ry="3.29"/>
        <ellipse class="cls-2" cx="1111.06" cy="179.94" rx="2.93" ry="3.29"/>
        <ellipse class="cls-2" cx="1637.57" cy="1625.58" rx="2.93" ry="3.29"/>
        <ellipse class="cls-2" cx="1155.46" cy="2301.82" rx="2.93" ry="3.29"/>
        <ellipse class="cls-2" cx="1160.08" cy="1652.47" rx="2.93" ry="3.29"/>
        <path class="cls-1" d="M1578.92,872.82c-.72-1.63-.13-3.6,1.32-4.41,1.45-.81,3.21-.14,3.92,1.49.72,1.63.13,3.6-1.32,4.41-1.45.81-3.21.14-3.92-1.49Z"/>
        <path class="cls-1" d="M1096.81,1549.06c-.72-1.63-.13-3.6,1.32-4.41s3.21-.14,3.92,1.49c.72,1.63.13,3.6-1.32,4.41s-3.21.14-3.92-1.49Z"/>
        <path class="cls-1" d="M1079.83,904.69c-.72-1.63-.13-3.6,1.32-4.41,1.45-.81,3.21-.14,3.92,1.49s.13,3.6-1.32,4.41c-1.45.81-3.21.14-3.92-1.49Z"/>
        <path class="cls-1" d="M1270.36,537.81c-1.45.81-3.21.14-3.92-1.49s-.13-3.6,1.32-4.41c1.45-.81,3.21-.14,3.92,1.49.72,1.63.13,3.6-1.32,4.41Z"/>
        <path class="cls-1" d="M1712.04,1013c-.77-1.6-.25-3.59,1.17-4.46s3.2-.28,3.97,1.31c.77,1.6.25,3.59-1.17,4.46-1.42.87-3.2.28-3.97-1.31Z"/>
        <path class="cls-1" d="M1229.93,1689.24c-.77-1.6-.25-3.59,1.17-4.46s3.2-.28,3.97,1.31.25,3.59-1.17,4.46-3.2.28-3.97-1.31Z"/>
        <path class="cls-1" d="M1212.95,1044.87c-.77-1.6-.25-3.59,1.17-4.46s3.2-.28,3.97,1.31c.77,1.6.25,3.59-1.17,4.46s-3.2.28-3.97-1.31Z"/>
        <path class="cls-1" d="M1432.3,198.13c-1.42.87-3.2.28-3.97-1.31s-.25-3.59,1.17-4.46,3.2-.28,3.97,1.31.25,3.59-1.17,4.46Z"/>
        <path class="cls-1" d="M1340.8,1982.63c.77,1.6.25,3.59-1.17,4.46s-3.2.28-3.97-1.31c-.77-1.6-.25-3.59,1.17-4.46s3.2-.28,3.97,1.31Z"/>
        <path class="cls-1" d="M1323.82,1338.25c.77,1.6.25,3.59-1.17,4.46s-3.2.28-3.97-1.31c-.77-1.6-.25-3.59,1.17-4.46s3.2-.28,3.97,1.31Z"/>
        <path class="cls-1" d="M1656.18,263.63c1.42-.87,3.2-.28,3.97,1.31.77,1.6.25,3.59-1.17,4.46s-3.2.28-3.97-1.31-.25-3.59,1.17-4.46Z"/>
        <path class="cls-1" d="M1541.68,1249.86c-1.32-1.04-1.65-3.09-.72-4.58.93-1.49,2.75-1.85,4.08-.81,1.32,1.04,1.65,3.09.72,4.58s-2.75,1.85-4.08.81Z"/>
        <path class="cls-1" d="M1059.57,1926.09c-1.32-1.04-1.65-3.09-.72-4.58.93-1.49,2.75-1.85,4.08-.81s1.65,3.09.72,4.58-2.75,1.85-4.08.81Z"/>
        <path class="cls-1" d="M1042.59,1281.72c-1.32-1.04-1.65-3.09-.72-4.58s2.75-1.85,4.08-.81,1.65,3.09.72,4.58-2.75,1.85-4.08.81Z"/>
        <path class="cls-1" d="M1605.87,579.66c-.93,1.49-2.75,1.85-4.08.81-1.32-1.04-1.65-3.09-.72-4.58.93-1.49,2.75-1.85,4.08-.81,1.32,1.04,1.65,3.09.72,4.58Z"/>
        <ellipse class="cls-2" cx="1338.17" cy="1685.93" rx="2.93" ry="3.29"/>
        <ellipse class="cls-2" cx="1321.19" cy="1041.56" rx="2.93" ry="3.29"/>
        <ellipse class="cls-2" cx="1361.44" cy="442.72" rx="2.93" ry="3.29"/>
        <ellipse class="cls-2" cx="1714.68" cy="1309.7" rx="2.93" ry="3.29"/>
        <ellipse class="cls-2" cx="1232.57" cy="1985.94" rx="2.93" ry="3.29"/>
        <ellipse class="cls-2" cx="1215.59" cy="1341.57" rx="2.93" ry="3.29"/>
        <ellipse class="cls-2" cx="1659.13" cy="385.25" rx="2.93" ry="3.29"/>
        <path class="cls-1" d="M1634.71,1194.32c-.72-1.63-.13-3.6,1.32-4.41s3.21-.14,3.92,1.49.13,3.6-1.32,4.41-3.21.14-3.92-1.49Z"/>
        <path class="cls-1" d="M1152.6,1870.56c-.72-1.63-.13-3.6,1.32-4.41s3.21-.14,3.92,1.49.13,3.6-1.32,4.41-3.21.14-3.92-1.49Z"/>
        <path class="cls-1" d="M1163.23,1230.11c-.72-1.63-.13-3.6,1.32-4.41s3.21-.14,3.92,1.49.13,3.6-1.32,4.41-3.21.14-3.92-1.49Z"/>
        <path class="cls-1" d="M1556.45,475.12c-1.45.81-3.21.14-3.92-1.49-.72-1.63-.13-3.6,1.32-4.41s3.21-.14,3.92,1.49c.72,1.63.13,3.6-1.32,4.41Z"/>
        <path class="cls-1" d="M1425.24,1036.81c-.77-1.6-.25-3.59,1.17-4.46s3.2-.28,3.97,1.31.25,3.59-1.17,4.46-3.2.28-3.97-1.31Z"/>
        <path class="cls-1" d="M1278.69,390.46c-.77-1.6-.25-3.59,1.17-4.46s3.2-.28,3.97,1.31c.77,1.6.25,3.59-1.17,4.46s-3.2.28-3.97-1.31Z"/>
        <path class="cls-1" d="M814.52,168.75c-1.42.87-3.2.28-3.97-1.31s-.25-3.59,1.17-4.46c1.42-.87,3.2-.28,3.97,1.31s.25,3.59-1.17,4.46Z"/>
        <path class="cls-1" d="M1627.61,1958.82c.77,1.6.25,3.59-1.17,4.46s-3.2.28-3.97-1.31c-.77-1.6-.25-3.59,1.17-4.46s3.2-.28,3.97,1.31Z"/>
        <path class="cls-1" d="M1190.67,2640.56c.77,1.6.25,3.59-1.17,4.46s-3.2.28-3.97-1.31-.25-3.59,1.17-4.46,3.2-.28,3.97,1.31Z"/>
        <path class="cls-1" d="M1128.52,1990.68c.77,1.6.25,3.59-1.17,4.46s-3.2.28-3.97-1.31c-.77-1.6-.25-3.59,1.17-4.46,1.42-.87,3.2-.28,3.97,1.31Z"/>
        <path class="cls-1" d="M1458.73,567.84c-1.32-1.04-1.65-3.09-.72-4.58.93-1.49,2.75-1.85,4.08-.81s1.65,3.09.72,4.58-2.75,1.85-4.08.81Z"/>
        <path class="cls-1" d="M976.63,1244.08c-1.32-1.04-1.65-3.09-.72-4.58s2.75-1.85,4.08-.81,1.65,3.09.72,4.58-2.75,1.85-4.08.81Z"/>
        <path class="cls-1" d="M959.65,599.71c-1.32-1.04-1.65-3.09-.72-4.58.93-1.49,2.75-1.85,4.08-.81s1.65,3.09.72,4.58-2.75,1.85-4.08.81Z"/>
        <path class="cls-1" d="M998.96,672.87c-.93,1.49-2.75,1.85-4.08.81s-1.65-3.09-.72-4.58c.93-1.49,2.75-1.85,4.08-.81,1.32,1.04,1.65,3.09.72,4.58Z"/>
        <ellipse class="cls-2" cx="1722.04" cy="728.63" rx="1.53" ry="1.72"/>
        <ellipse class="cls-2" cx="1239.94" cy="1404.87" rx="1.53" ry="1.72"/>
        <ellipse class="cls-2" cx="1222.96" cy="760.49" rx="1.53" ry="1.72"/>
        <ellipse class="cls-2" cx="1142.04" cy="376.98" rx="1.53" ry="1.72"/>
        <ellipse class="cls-2" cx="1445.49" cy="1547.02" rx="4.13" ry="4.64"/>
        <ellipse class="cls-2" cx="963.38" cy="2223.26" rx="4.13" ry="4.64"/>
        <ellipse class="cls-2" cx="946.4" cy="1578.89" rx="4.13" ry="4.64"/>
        <ellipse class="cls-2" cx="1390.48" cy="1317.13" rx="1.33" ry="1.49"/>
        <ellipse class="cls-2" cx="905.43" cy="1996.68" rx="4.27" ry="4.79"/>
        <ellipse class="cls-2" cx="888.46" cy="1352.31" rx="4.27" ry="4.79"/>
        <ellipse class="cls-2" cx="1671.02" cy="750.24" rx="1.93" ry="2.17"/>
        <ellipse class="cls-2" cx="1419.88" cy="1105.97" rx="3.31" ry="3.72"/>
        <ellipse class="cls-2" cx="937.78" cy="1782.21" rx="3.31" ry="3.72"/>
        <ellipse class="cls-2" cx="920.8" cy="1137.84" rx="3.31" ry="3.72"/>
        <ellipse class="cls-2" cx="1477.84" cy="716.53" rx="3.31" ry="3.72"/>
        <ellipse class="cls-2" cx="1332.19" cy="2265.43" rx="2.93" ry="3.29"/>
        <ellipse class="cls-2" cx="1315.21" cy="1621.06" rx="2.93" ry="3.29"/>
        <path class="cls-1" d="M1434.97,993.65c-.72-1.63-.13-3.6,1.32-4.41,1.45-.81,3.21-.14,3.92,1.49s.13,3.6-1.32,4.41-3.21.14-3.92-1.49Z"/>
        <path class="cls-1" d="M952.86,1669.89c-.72-1.63-.13-3.6,1.32-4.41s3.21-.14,3.92,1.49.13,3.6-1.32,4.41-3.21.14-3.92-1.49Z"/>
        <path class="cls-1" d="M935.88,1025.51c-.72-1.63-.13-3.6,1.32-4.41s3.21-.14,3.92,1.49c.72,1.63.13,3.6-1.32,4.41s-3.21.14-3.92-1.49Z"/>
        <path class="cls-1" d="M1377.88,699.58c-1.45.81-3.21.14-3.92-1.49-.72-1.63-.13-3.6,1.32-4.41s3.21-.14,3.92,1.49c.72,1.63.13,3.6-1.32,4.41Z"/>
        <path class="cls-1" d="M1778.44,436.16c-.77-1.6-.25-3.59,1.17-4.46s3.2-.28,3.97,1.31c.77,1.6.25,3.59-1.17,4.46s-3.2.28-3.97-1.31Z"/>
        <path class="cls-1" d="M1296.34,1112.4c-.77-1.6-.25-3.59,1.17-4.46s3.2-.28,3.97,1.31c.77,1.6.25,3.59-1.17,4.46s-3.2.28-3.97-1.31Z"/>
        <path class="cls-1" d="M1259.35,466.44c-.57-.84-.42-2.04.33-2.68s1.82-.47,2.38.37.42,2.04-.33,2.68-1.82.47-2.38-.37Z"/>
        <path class="cls-1" d="M881.79,313.6c-1.42.87-3.2.28-3.97-1.31s-.25-3.59,1.17-4.46c1.42-.87,3.2-.28,3.97,1.31.77,1.6.25,3.59-1.17,4.46Z"/>
        <path class="cls-1" d="M1756.51,1883.22c.77,1.6.25,3.59-1.17,4.46s-3.2.28-3.97-1.31-.25-3.59,1.17-4.46c1.42-.87,3.2-.28,3.97,1.31Z"/>
        <path class="cls-1" d="M1274.4,2559.46c.77,1.6.25,3.59-1.17,4.46s-3.2.28-3.97-1.31c-.77-1.6-.25-3.59,1.17-4.46s3.2-.28,3.97,1.31Z"/>
        <path class="cls-1" d="M1257.42,1915.09c.77,1.6.25,3.59-1.17,4.46s-3.2.28-3.97-1.31-.25-3.59,1.17-4.46,3.2-.28,3.97,1.31Z"/>
        <path class="cls-1" d="M1373.13,699.91c-1.32-1.04-1.65-3.09-.72-4.58s2.75-1.85,4.08-.81,1.65,3.09.72,4.58-2.75,1.85-4.08.81Z"/>
        <ellipse class="cls-2" cx="1696.81" cy="1725.4" rx="2.93" ry="3.29"/>
        <path class="cls-1" d="M1486.39,812.97c-.72-1.63-.13-3.6,1.32-4.41,1.45-.81,3.21-.14,3.92,1.49s.13,3.6-1.32,4.41-3.21.14-3.92-1.49Z"/>
        <path class="cls-1" d="M1004.28,1489.21c-.72-1.63-.13-3.6,1.32-4.41s3.21-.14,3.92,1.49.13,3.6-1.32,4.41c-1.45.81-3.21.14-3.92-1.49Z"/>
        <path class="cls-1" d="M987.3,844.83c-.72-1.63-.13-3.6,1.32-4.41s3.21-.14,3.92,1.49.13,3.6-1.32,4.41-3.21.14-3.92-1.49Z"/>
        <path class="cls-1" d="M1217.1,641.8c-1.45.81-3.21.14-3.92-1.49-.72-1.63-.13-3.6,1.32-4.41s3.21-.14,3.92,1.49c.72,1.63.13,3.6-1.32,4.41Z"/>
        <path class="cls-1" d="M1467.21,1937.85c.96,1.98.31,4.47-1.45,5.55s-3.97.35-4.94-1.63-.31-4.47,1.45-5.55,3.97-.35,4.94,1.63Z"/>
        <ellipse class="cls-2" cx="1424.43" cy="1834.55" rx="1.51" ry="1.7"/>
        <ellipse class="cls-2" cx="942.32" cy="2510.79" rx="1.51" ry="1.7"/>
        <ellipse class="cls-2" cx="925.34" cy="1866.41" rx="1.51" ry="1.7"/>
        <path class="cls-1" d="M1516.84,552.69c-.54-.43-.67-1.27-.29-1.88s1.13-.76,1.67-.33.67,1.27.29,1.88-1.13.76-1.67.33Z"/>
        <path class="cls-1" d="M1034.73,1228.93c-.54-.43-.67-1.27-.29-1.88s1.13-.76,1.67-.33.67,1.27.29,1.88-1.13.76-1.67.33Z"/>
        <path class="cls-1" d="M1017.76,584.56c-.54-.43-.67-1.27-.29-1.88s1.13-.76,1.67-.33.67,1.27.29,1.88-1.13.76-1.67.33Z"/>
        <path class="cls-1" d="M985.48,607.57c-.38.61-1.13.76-1.67.33s-.67-1.27-.29-1.88,1.13-.76,1.67-.33.67,1.27.29,1.88Z"/>
        <ellipse class="cls-2" cx="1700.99" cy="477.12" rx="1.41" ry="1.59"/>
        <ellipse class="cls-2" cx="1218.89" cy="1153.36" rx="1.41" ry="1.59"/>
        <ellipse class="cls-2" cx="1201.91" cy="508.99" rx="1.41" ry="1.59"/>
        <ellipse class="cls-2" cx="918.24" cy="400.63" rx="1.41" ry="1.59"/>
        <ellipse class="cls-2" cx="1673.13" cy="389.51" rx=".55" ry=".62"/>
        <ellipse class="cls-2" cx="1191.02" cy="1065.75" rx=".55" ry=".62"/>
        <ellipse class="cls-2" cx="1174.05" cy="421.38" rx=".55" ry=".62"/>
        <ellipse class="cls-2" cx="840.27" cy="431.94" rx=".55" ry=".62"/>
        <ellipse class="cls-2" cx="1353.36" cy="2516.8" rx="2.93" ry="3.29"/>
        <ellipse class="cls-2" cx="1336.38" cy="1872.43" rx="2.93" ry="3.29"/>
        <path class="cls-1" d="M1372.13,752.83c-.32-.71-.06-1.58.58-1.94s1.41-.06,1.72.65.06,1.58-.58,1.94-1.41.06-1.72-.65Z"/>
        <path class="cls-1" d="M890.02,1429.07c-.32-.71-.06-1.58.58-1.94s1.41-.06,1.72.65.06,1.58-.58,1.94-1.41.06-1.72-.65Z"/>
        <path class="cls-1" d="M873.04,784.7c-.32-.71-.06-1.58.58-1.94s1.41-.06,1.72.65.06,1.58-.58,1.94-1.41.06-1.72-.65Z"/>
        <path class="cls-1" d="M1163.58,770.19c-.64.35-1.41.06-1.72-.65s-.06-1.58.58-1.94,1.41-.06,1.72.65.06,1.58-.58,1.94Z"/>
        <path class="cls-1" d="M1616.38,1786.68c.77,1.6.25,3.59-1.17,4.46s-3.2.28-3.97-1.31c-.77-1.6-.25-3.59,1.17-4.46s3.2-.28,3.97,1.31Z"/>
        <path class="cls-1" d="M1536.84,716.45c-1.32-1.04-1.65-3.09-.72-4.58.93-1.49,2.75-1.85,4.08-.81,1.32,1.04,1.65,3.09.72,4.58-.93,1.49-2.75,1.85-4.08.81Z"/>
        <ellipse class="cls-2" cx="1478.19" cy="1710.26" rx="2.93" ry="3.29"/>
        <path class="cls-1" d="M1688.24,717.4c-.72-1.63-.13-3.6,1.32-4.41,1.45-.81,3.21-.14,3.92,1.49s.13,3.6-1.32,4.41c-1.45.81-3.21.14-3.92-1.49Z"/>
        <path class="cls-1" d="M1473.89,2132.84c.77,1.6.25,3.59-1.17,4.46s-3.2.28-3.97-1.31c-.77-1.6-.25-3.59,1.17-4.46s3.2-.28,3.97,1.31Z"/>
        <ellipse class="cls-2" cx="1711.3" cy="184.97" rx="2.93" ry="3.29"/>
        <path class="cls-1" d="M1290.43,711.93c-.72-1.63-.13-3.6,1.32-4.41,1.45-.81,3.21-.14,3.92,1.49s.13,3.6-1.32,4.41c-1.45.81-3.21.14-3.92-1.49Z"/>
        <path class="cls-1" d="M1615.48,2071.99c.77,1.6.25,3.59-1.17,4.46s-3.2.28-3.97-1.31c-.77-1.6-.25-3.59,1.17-4.46s3.2-.28,3.97,1.31Z"/>
        <ellipse class="cls-2" cx="1364.21" cy="97.88" rx="1.17" ry="1.31"/>
        <ellipse class="cls-2" cx="1392.5" cy="155.5" rx="2.06" ry="2.32"/>
        <ellipse class="cls-2" cx="1532.06" cy="31.77" rx="2.89" ry="3.25"/>
        <ellipse class="cls-2" cx="1402.41" cy="51.57" rx="3.72" ry="4.18"/>
        <ellipse class="cls-2" cx="1259" cy="68.09" rx="3.72" ry="4.18"/>
        <ellipse class="cls-2" cx="1436.13" cy="103.64" rx="2.75" ry="3.09"/>
        <ellipse class="cls-2" cx="1292.72" cy="120.16" rx="2.75" ry="3.09"/>
        <ellipse class="cls-2" cx="1397.31" cy="377.26" rx="2.2" ry="2.47"/>
        <ellipse class="cls-2" cx="1168.78" cy="313.89" rx="3.98" ry="4.47"/>
        <ellipse class="cls-2" cx="1317.94" cy="540.08" rx="1.48" ry="1.66"/>
        <ellipse class="cls-2" cx="1180.87" cy="526.48" rx="2.62" ry="2.94"/>
        <ellipse class="cls-2" cx="1621.24" cy="120.24" rx="2.62" ry="2.94"/>
        <ellipse class="cls-2" cx="1477.84" cy="136.76" rx="2.62" ry="2.94"/>
        <ellipse class="cls-2" cx="1668.19" cy="216.72" rx="4.4" ry="4.95"/>
        <ellipse class="cls-2" cx="1676.72" cy="83.39" rx="1.93" ry="2.17"/>
        <ellipse class="cls-2" cx="1722.68" cy="348.37" rx="1.93" ry="2.17"/>
        <ellipse class="cls-2" cx="1579.28" cy="364.89" rx="1.93" ry="2.17"/>
        <path class="cls-1" d="M1424.86,460.4c-1.32-1.04-1.65-3.09-.72-4.58.93-1.49,2.75-1.85,4.08-.81s1.65,3.09.72,4.58-2.75,1.85-4.08.81Z"/>
        <ellipse class="cls-2" cx="1723.5" cy="846.55" rx="2.48" ry="3.25"/>
        <ellipse class="cls-2" cx="1580.1" cy="863.07" rx="2.48" ry="3.25"/>
        <ellipse class="cls-2" cx="1631.7" cy="938.57" rx="2.62" ry="3.09"/>
        <ellipse class="cls-2" cx="1488.3" cy="955.09" rx="2.62" ry="3.09"/>
        <ellipse class="cls-2" cx="1543.76" cy="986.21" rx="1.1" ry="1.24"/>
        <ellipse class="cls-2" cx="1400.35" cy="1002.73" rx="1.1" ry="1.24"/>
        <ellipse class="cls-2" cx="1429.24" cy="1197.17" rx="1.65" ry="1.86"/>
        <ellipse class="cls-2" cx="1285.84" cy="1213.69" rx="1.65" ry="1.86"/>
        <ellipse class="cls-2" cx="1386.17" cy="905.59" rx="1.79" ry="2.01"/>
        <ellipse class="cls-2" cx="1242.76" cy="922.11" rx="1.79" ry="2.01"/>
        <ellipse class="cls-2" cx="1608.33" cy="614.29" rx="1.65" ry="1.86"/>
        <ellipse class="cls-2" cx="1464.93" cy="630.81" rx="1.65" ry="1.86"/>
        <ellipse class="cls-2" cx="1498.27" cy="2554.89" rx="3.64" ry="4.09"/>
        <ellipse class="cls-2" cx="1354.87" cy="2571.41" rx="3.64" ry="4.09"/>
        <ellipse class="cls-2" cx="1788.89" cy="2673.58" rx="1.79" ry="2.01"/>
        <ellipse class="cls-2" cx="1461.45" cy="2381.59" rx="3.85" ry="4.33"/>
        <ellipse class="cls-2" cx="1318.05" cy="2398.12" rx="3.85" ry="4.33"/>
        <ellipse class="cls-2" cx="1680.58" cy="2532.37" rx="3.85" ry="4.33"/>
        <ellipse class="cls-2" cx="1657.22" cy="2331.3" rx="1.1" ry="1.24"/>
        <ellipse class="cls-2" cx="1650.5" cy="2388.59" rx="3.48" ry="3.91"/>
        <ellipse class="cls-2" cx="1708.09" cy="2665.56" rx="3.85" ry="4.33"/>
        <ellipse class="cls-2" cx="1592.62" cy="2654.89" rx="5.64" ry="6.34"/>
        <ellipse class="cls-2" cx="1699.97" cy="2188.73" rx="3.72" ry="4.18"/>
        <ellipse class="cls-2" cx="1728.73" cy="30.07" rx="1.1" ry="1.24"/>
        <ellipse class="cls-2" cx="1676.57" cy="55.28" rx=".69" ry=".77"/>
        <ellipse class="cls-2" cx="1752.13" cy="1662.4" rx="1.65" ry="1.86"/>
        <ellipse class="cls-2" cx="1623.45" cy="1442.01" rx=".96" ry="1.08"/>
        <ellipse class="cls-2" cx="1421.95" cy="1631.62" rx="2.06" ry="2.32"/>
        <ellipse class="cls-2" cx="1370.48" cy="1831.76" rx="3.72" ry="4.18"/>
        <ellipse class="cls-2" cx="1457.25" cy="1351.14" rx="2.41" ry="2.7"/>
        <ellipse class="cls-2" cx="1475.11" cy="1081.29" rx="1.48" ry="1.66"/>
        <ellipse class="cls-2" cx="1356.3" cy="848.56" rx="2.2" ry="2.47"/>
        <ellipse class="cls-2" cx="1390.16" cy="2320.35" rx="1.38" ry="1.55"/>
        <ellipse class="cls-2" cx="1403.78" cy="2492.18" rx="2.34" ry="2.63"/>
        <ellipse class="cls-2" cx="1403.78" cy="2492.18" rx="2.34" ry="2.63"/>
        <ellipse class="cls-2" cx="1385.75" cy="1996.48" rx=".83" ry=".93"/>
        <ellipse class="cls-2" cx="1650.7" cy="2160.89" rx="2.06" ry="2.32"/>
        <ellipse class="cls-2" cx="1527.93" cy="2251.52" rx="2.06" ry="2.32"/>
        <ellipse class="cls-2" cx="1483.75" cy="2016.59" rx="1.93" ry="2.17"/>
        <ellipse class="cls-2" cx="1659.82" cy="2045.42" rx="1.11" ry="1.25"/>
        <ellipse class="cls-2" cx="1683.36" cy="1251.75" rx="1.72" ry="1.49"/>
        <ellipse class="cls-2" cx="1564.74" cy="63.9" rx="1.4" ry="1.3"/>
        <ellipse class="cls-2" cx="1448.18" cy="866.43" rx="1.4" ry="1.3"/>
        <ellipse class="cls-2" cx="1445.37" cy="2239.69" rx="1.4" ry="1.3"/>
        <ellipse class="cls-2" cx="1773.34" cy="1.3" rx="1.4" ry="1.3"/>
        <ellipse class="cls-2" cx="1750.06" cy="1175.11" rx="1.4" ry="1.3"/>
        <ellipse class="cls-2" cx="1606.32" cy="2416.04" rx="1.4" ry="1.3"/>
        <ellipse class="cls-2" cx="1487" cy="1434.32" rx="1.4" ry="1.3"/>
        <ellipse class="cls-2" cx="1619.97" cy="2175.59" rx="1.11" ry="1.25"/>
        <ellipse class="cls-2" cx="1621.69" cy="1407.37" rx="1.72" ry="1.49"/>
        <ellipse class="cls-2" cx="1502.18" cy="65.04" rx="1.39" ry="1.32"/>
        <ellipse class="cls-2" cx="1386.87" cy="881.06" rx="1.39" ry="1.32"/>
        <ellipse class="cls-2" cx="1384.09" cy="2277.4" rx="1.39" ry="1.32"/>
        <ellipse class="cls-2" cx="1754.36" cy="2408.42" rx="1.39" ry="1.32"/>
        <ellipse class="cls-2" cx="1543.32" cy="2456.72" rx="1.39" ry="1.32"/>
        <ellipse class="cls-2" cx="1425.27" cy="1458.49" rx="1.39" ry="1.32"/>
        <ellipse class="cls-2" cx="1688.29" cy="1958.12" rx="1.11" ry="1.25"/>
        <ellipse class="cls-2" cx="1727.43" cy="1147.38" rx="1.72" ry="1.49"/>
        <ellipse class="cls-2" cx="1740.25" cy="66.83" rx="1.41" ry="1.3"/>
        <ellipse class="cls-2" cx="1623.09" cy="873.31" rx="1.41" ry="1.3"/>
        <ellipse class="cls-2" cx="1620.27" cy="2253.32" rx="1.41" ry="1.3"/>
        <ellipse class="cls-2" cx="1782.05" cy="2430.55" rx="1.41" ry="1.3"/>
        <ellipse class="cls-2" cx="1662.11" cy="1444" rx="1.41" ry="1.3"/>
        <ellipse class="cls-2" cx="1747.54" cy="1941.36" rx="1.11" ry="1.25"/>
        <ellipse class="cls-2" cx="1657.6" cy="1836.88" rx="1.11" ry="1.25"/>
        <ellipse class="cls-2" cx="1679.92" cy="1002.44" rx="1.72" ry="1.49"/>
        <ellipse class="cls-2" cx="1545.9" cy="346.34" rx="1.71" ry="1.81"/>
        <ellipse class="cls-2" cx="1404.17" cy="1464.37" rx="1.71" ry="1.81"/>
        <ellipse class="cls-2" cx="1442.26" cy="2034.31" rx="1.71" ry="1.81"/>
      </g>
      <g id="stars1">
        <path class="cls-1" d="M1351.07,1003.07l12.21-2.22c.49-.09.97-.36,1.33-.76s.6-.94.68-1.49l1.97-13.72,1.97,13.72c.08.55.32,1.09.68,1.49s.83.68,1.33.76l12.21,2.22-12.21,2.22c-.49.09-.97.35-1.33.76-.35.4-.6.94-.68,1.49l-1.97,13.72-1.97-13.72c-.08-.55-.32-1.09-.68-1.49-.35-.42-.83-.68-1.33-.76l-12.21-2.22Z"/>
        <path class="cls-1" d="M1238.5,961.49l20.28-2.71c1.11-.14,2.11-.69,2.88-1.59.8-.87,1.29-1.99,1.41-3.23l2.42-22.79,2.42,22.79c.13,1.24.62,2.37,1.41,3.23.77.9,1.77,1.44,2.88,1.59l20.28,2.71-20.28,2.71c-1.11.14-2.11.69-2.88,1.59-.8.87-1.29,1.99-1.41,3.23l-2.42,22.79-2.42-22.79c-.13-1.24-.62-2.37-1.41-3.23-.77-.9-1.77-1.44-2.88-1.59l-20.28-2.71Z"/>
        <path class="cls-1" d="M898.6,519.54l-2.42,22.79c-.13,1.24-.62,2.37-1.41,3.23-.77.9-1.77,1.44-2.88,1.59l-20.28,2.71,20.28,2.71c1.1.14,2.11.69,2.88,1.59.8.87,1.29,1.99,1.41,3.23l2.42,22.79,2.42-22.79c.13-1.24.62-2.37,1.41-3.23.77-.9,1.77-1.44,2.88-1.59l20.28-2.71-20.28-2.71c-1.1-.14-2.11-.69-2.88-1.59-.8-.87-1.29-1.99-1.41-3.23l-2.42-22.79Z"/>
        <path class="cls-1" d="M523.77,554.87l-2.42,22.79c-.13,1.24-.62,2.37-1.41,3.23-.77.9-1.77,1.44-2.88,1.59l-20.28,2.71,20.28,2.71c1.1.14,2.11.69,2.88,1.59.8.87,1.29,1.99,1.41,3.23l2.42,22.79,2.42-22.79c.13-1.24.62-2.37,1.41-3.23.77-.9,1.77-1.44,2.88-1.59l20.28-2.71-20.28-2.71c-1.1-.14-2.11-.69-2.88-1.59-.8-.87-1.29-1.99-1.41-3.23l-2.42-22.79Z"/>
        <path class="cls-1" d="M1054.45,164.37l-2.42,22.79c-.13,1.24-.62,2.37-1.41,3.23-.77.9-1.77,1.44-2.88,1.59l-20.28,2.71,20.28,2.71c1.1.14,2.11.69,2.88,1.59.8.87,1.29,1.99,1.41,3.23l2.42,22.79,2.42-22.79c.13-1.24.62-2.37,1.41-3.23.77-.9,1.77-1.44,2.88-1.59l20.28-2.71-20.28-2.71c-1.1-.14-2.11-.69-2.88-1.59-.8-.87-1.29-1.99-1.41-3.23l-2.42-22.79Z"/>
        <path class="cls-1" d="M1585.73,1803.87l13.33-1.78c.73-.09,1.39-.46,1.89-1.04.52-.57.84-1.31.93-2.13l1.59-14.97,1.59,14.97c.08.82.41,1.56.93,2.13.51.59,1.17.95,1.89,1.04l13.33,1.78-13.33,1.78c-.73.09-1.39.46-1.89,1.04-.52.57-.84,1.31-.93,2.13l-1.59,14.97-1.59-14.97c-.08-.82-.41-1.56-.93-2.13-.51-.59-1.17-.95-1.89-1.04l-13.33-1.78Z"/>
        <path class="cls-1" d="M740.7,940.06l-1.59,14.97c-.08.82-.41,1.56-.93,2.13-.51.59-1.17.95-1.89,1.04l-13.33,1.78,13.33,1.78c.73.09,1.38.46,1.89,1.04.52.57.84,1.31.93,2.13l1.59,14.97,1.59-14.97c.08-.82.41-1.56.93-2.13.51-.59,1.17-.95,1.89-1.04l13.33-1.78-13.33-1.78c-.73-.09-1.38-.46-1.89-1.04-.52-.57-.84-1.31-.93-2.13l-1.59-14.97Z"/>
        <path class="cls-1" d="M1120.85,1385.17l8.69-1.16c.47-.06.9-.3,1.23-.68.34-.37.55-.85.61-1.39l1.04-9.77,1.04,9.77c.06.53.26,1.01.61,1.39.33.38.76.62,1.23.68l8.69,1.16-8.69,1.16c-.47.06-.9.3-1.23.68-.34.37-.55.85-.61,1.39l-1.04,9.77-1.04-9.77c-.06-.53-.26-1.01-.61-1.39-.33-.38-.76-.62-1.23-.68l-8.69-1.16Z"/>
        <path class="cls-1" d="M515.75,976.26l-1.04,9.77c-.06.53-.26,1.02-.61,1.39-.33.38-.76.62-1.23.68l-8.69,1.16,8.69,1.16c.47.06.9.3,1.23.68.34.37.55.85.61,1.39l1.04,9.77,1.04-9.77c.06-.53.26-1.02.61-1.39.33-.38.76-.62,1.23-.68l8.69-1.16-8.69-1.16c-.47-.06-.9-.3-1.23-.68-.34-.37-.55-.85-.61-1.39l-1.04-9.77Z"/>
        <path class="cls-1" d="M1373.74,723.93l12.17-1.63c.66-.09,1.26-.42,1.73-.95.48-.52.77-1.2.85-1.94l1.45-13.67,1.45,13.67c.08.75.37,1.42.85,1.94.46.54,1.06.87,1.73.95l12.17,1.63-12.17,1.63c-.66.09-1.26.42-1.73.95-.48.52-.77,1.2-.85,1.94l-1.45,13.67-1.45-13.67c-.08-.75-.37-1.42-.85-1.94-.46-.54-1.06-.87-1.73-.95l-12.17-1.63Z"/>
        <path class="cls-1" d="M337.18,982.59l-1.45,13.67c-.08.75-.37,1.42-.85,1.94-.46.54-1.06.87-1.73.95l-12.17,1.63,12.17,1.63c.66.09,1.26.42,1.73.95.48.52.77,1.2.85,1.94l1.45,13.67,1.45-13.67c.08-.75.37-1.42.85-1.94.46-.54,1.06-.87,1.73-.95l12.17-1.63-12.17-1.63c-.66-.09-1.26-.42-1.73-.95-.48-.52-.77-1.2-.85-1.94l-1.45-13.67Z"/>
        <path class="cls-1" d="M698.7,2084.53l12.17-1.63c.66-.09,1.26-.42,1.73-.95.48-.52.77-1.2.85-1.94l1.45-13.67,1.45,13.67c.08.75.37,1.42.85,1.94.46.54,1.06.87,1.73.95l12.17,1.63-12.17,1.63c-.66.09-1.26.42-1.73.95-.48.52-.77,1.2-.85,1.94l-1.45,13.67-1.45-13.67c-.08-.75-.37-1.42-.85-1.94-.46-.54-1.06-.87-1.73-.95l-12.17-1.63Z"/>
        <path class="cls-1" d="M1122.38,433.07l-1.45,13.67c-.08.75-.37,1.42-.85,1.94-.46.54-1.06.87-1.73.95l-12.17,1.63,12.17,1.63c.66.09,1.26.42,1.73.95.48.52.77,1.2.85,1.94l1.45,13.67,1.45-13.67c.08-.75.37-1.42.85-1.94.46-.54,1.06-.87,1.73-.95l12.17-1.63-12.17-1.63c-.66-.09-1.26-.42-1.73-.95-.48-.52-.77-1.2-.85-1.94l-1.45-13.67Z"/>
        <path class="cls-1" d="M729.84,543.77l-1.45,13.67c-.08.75-.37,1.42-.85,1.94-.46.54-1.06.87-1.73.95l-12.17,1.63,12.17,1.63c.66.09,1.26.42,1.73.95.48.52.77,1.2.85,1.94l1.45,13.67,1.45-13.67c.08-.75.37-1.42.85-1.94.46-.54,1.06-.87,1.73-.95l12.17-1.63-12.17-1.63c-.66-.09-1.26-.42-1.73-.95-.48-.52-.77-1.2-.85-1.94l-1.45-13.67Z"/>
        <path class="cls-1" d="M1659.73,1353.98l-1.45,13.67c-.08.75-.37,1.42-.85,1.94-.46.54-1.06.87-1.73.95l-12.17,1.63,12.17,1.63c.66.09,1.26.42,1.73.95.48.52.77,1.2.85,1.94l1.45,13.67,1.45-13.67c.08-.75.37-1.42.85-1.94.46-.54,1.06-.87,1.73-.95l12.17-1.63-12.17-1.63c-.66-.09-1.26-.42-1.73-.95-.48-.52-.77-1.2-.85-1.94l-1.45-13.67Z"/>
        <path class="cls-1" d="M1467.03,1043.8l16.8-2.25c.92-.12,1.75-.57,2.39-1.32.66-.72,1.06-1.65,1.17-2.68l2-18.88,2,18.88c.11,1.03.51,1.96,1.17,2.68.64.74,1.47,1.2,2.39,1.32l16.8,2.25-16.8,2.25c-.92.12-1.75.57-2.39,1.32-.66.72-1.06,1.65-1.17,2.68l-2,18.88-2-18.88c-.11-1.03-.51-1.96-1.17-2.68-.64-.74-1.47-1.2-2.39-1.32l-16.8-2.25Z"/>
        <path class="cls-1" d="M246.97,1367.25l-2,18.88c-.11,1.03-.51,1.96-1.17,2.68-.64.74-1.47,1.2-2.38,1.32l-16.8,2.25,16.8,2.25c.92.12,1.75.57,2.38,1.32.66.72,1.06,1.65,1.17,2.68l2,18.88,2-18.88c.11-1.03.51-1.96,1.17-2.68.64-.74,1.47-1.2,2.38-1.32l16.8-2.25-16.8-2.25c-.92-.12-1.75-.57-2.38-1.32-.66-.72-1.06-1.65-1.17-2.68l-2-18.88Z"/>
        <path class="cls-1" d="M999.62,1803.13l8.69-1.16c.47-.06.9-.3,1.23-.68.34-.37.55-.85.61-1.39l1.04-9.77,1.04,9.77c.06.53.26,1.01.61,1.39.33.38.76.62,1.23.68l8.69,1.16-8.69,1.16c-.47.06-.9.3-1.23.68-.34.37-.55.85-.61,1.39l-1.04,9.77-1.04-9.77c-.06-.53-.26-1.01-.61-1.39-.33-.38-.76-.62-1.23-.68l-8.69-1.16Z"/>
        <path class="cls-1" d="M621,1849.95l-1.03,9.68c-.05.53-.26,1.01-.6,1.37-.33.38-.75.61-1.22.67l-8.62,1.15,8.62,1.15c.47.06.9.29,1.22.67.34.37.55.85.6,1.37l1.03,9.68,1.03-9.68c.05-.53.26-1.01.6-1.37.33-.38.75-.61,1.22-.67l8.62-1.15-8.62-1.15c-.47-.06-.9-.29-1.22-.67-.34-.37-.55-.85-.6-1.37l-1.03-9.68Z"/>
        <path class="cls-1" d="M833.72,2101.23l-2,18.88c-.11,1.03-.51,1.96-1.17,2.68-.64.74-1.47,1.2-2.38,1.32l-16.8,2.25,16.8,2.25c.92.12,1.75.57,2.38,1.32.66.72,1.06,1.65,1.17,2.68l2,18.88,2-18.88c.11-1.03.51-1.96,1.17-2.68.64-.74,1.47-1.2,2.38-1.32l16.8-2.25-16.8-2.25c-.92-.12-1.75-.57-2.38-1.32-.66-.72-1.06-1.65-1.17-2.68l-2-18.88Z"/>
        <path class="cls-1" d="M348.83,789.54l-2,18.88c-.11,1.03-.51,1.96-1.17,2.68-.64.74-1.47,1.2-2.38,1.32l-16.8,2.25,16.8,2.25c.92.12,1.75.57,2.38,1.32.66.72,1.06,1.65,1.17,2.68l2,18.88,2-18.88c.11-1.03.51-1.96,1.17-2.68.64-.74,1.47-1.2,2.38-1.32l16.8-2.25-16.8-2.25c-.92-.12-1.75-.57-2.38-1.32-.66-.72-1.06-1.65-1.17-2.68l-2-18.88Z"/>
        <path class="cls-1" d="M115.24,212.93l-2,18.88c-.11,1.03-.51,1.96-1.17,2.68-.64.74-1.47,1.2-2.38,1.32l-16.8,2.25,16.8,2.25c.92.12,1.75.57,2.38,1.32.66.72,1.06,1.65,1.17,2.68l2,18.88,2-18.88c.11-1.03.51-1.96,1.17-2.68.64-.74,1.47-1.2,2.38-1.32l16.8-2.25-16.8-2.25c-.92-.12-1.75-.57-2.38-1.32-.66-.72-1.06-1.65-1.17-2.68l-2-18.88Z"/>
        <path class="cls-1" d="M173.87,2351.96l-.82,7.7c-.04.42-.21.8-.48,1.09-.26.3-.6.49-.97.54l-6.85.92,6.85.92c.37.05.71.23.97.54.27.29.43.67.48,1.09l.82,7.7.82-7.7c.04-.42.21-.8.48-1.09.26-.3.6-.49.97-.54l6.85-.92-6.85-.92c-.37-.05-.71-.23-.97-.54-.27-.29-.43-.67-.48-1.09l-.82-7.7Z"/>
        <path class="cls-1" d="M1548.12,2482.47l-2,18.88c-.11,1.03-.51,1.96-1.17,2.68-.64.74-1.47,1.2-2.38,1.32l-16.8,2.25,16.8,2.25c.92.12,1.75.57,2.38,1.32.66.72,1.06,1.65,1.17,2.68l2,18.88,2-18.88c.11-1.03.51-1.96,1.17-2.68.64-.74,1.47-1.2,2.38-1.32l16.8-2.25-16.8-2.25c-.92-.12-1.75-.57-2.38-1.32-.66-.72-1.06-1.65-1.17-2.68l-2-18.88Z"/>
        <path class="cls-1" d="M374.58,449.76l2-18.88c.11-1.03.51-1.96,1.17-2.68.64-.74,1.47-1.2,2.38-1.32l16.8-2.25-16.8-2.25c-.92-.12-1.75-.57-2.38-1.32-.66-.72-1.06-1.65-1.17-2.68l-2-18.88-2,18.88c-.11,1.03-.51,1.96-1.17,2.68-.64.74-1.47,1.2-2.38,1.32l-16.8,2.25,16.8,2.25c.92.12,1.75.57,2.38,1.32.66.72,1.06,1.65,1.17,2.68l2,18.88Z"/>
        <path class="cls-1" d="M1548.1,1043.8l23.2-3.11c1.27-.17,2.41-.79,3.29-1.82.91-.99,1.47-2.28,1.62-3.7l2.76-26.07,2.76,26.07c.15,1.42.71,2.71,1.62,3.7.88,1.02,2.03,1.65,3.29,1.82l23.2,3.11-23.2,3.11c-1.27.17-2.41.79-3.29,1.82-.91.99-1.47,2.28-1.62,3.7l-2.76,26.07-2.76-26.07c-.15-1.42-.71-2.71-1.62-3.7-.88-1.02-2.03-1.65-3.29-1.82l-23.2-3.11Z"/>
        <path class="cls-1" d="M224.61,2193.64l-2.76,26.07c-.15,1.42-.71,2.71-1.62,3.7-.88,1.02-2.03,1.65-3.29,1.82l-23.2,3.11,23.2,3.11c1.26.17,2.41.79,3.29,1.82.91.99,1.47,2.28,1.62,3.7l2.76,26.07,2.76-26.07c.15-1.42.71-2.71,1.62-3.7.88-1.02,2.03-1.65,3.29-1.82l23.2-3.11-23.2-3.11c-1.26-.17-2.41-.79-3.29-1.82-.91-.99-1.47-2.28-1.62-3.7l-2.76-26.07Z"/>
        <path class="cls-1" d="M1698.08,738.57l2.76-26.07c.15-1.42.71-2.71,1.62-3.7.88-1.02,2.03-1.65,3.29-1.82l23.2-3.11-23.2-3.11c-1.26-.17-2.41-.79-3.29-1.82-.91-.99-1.47-2.28-1.62-3.7l-2.76-26.07-2.76,26.07c-.15,1.42-.71,2.71-1.62,3.7-.88,1.02-2.03,1.65-3.29,1.82l-23.2,3.11,23.2,3.11c1.26.17,2.41.79,3.29,1.82.91.99,1.47,2.28,1.62,3.7l2.76,26.07Z"/>
        <path class="cls-1" d="M1478.24,2596.28l2.76,26.07c.15,1.42.71,2.71,1.62,3.7.88,1.02,2.03,1.65,3.29,1.82l23.2,3.11-23.2,3.11c-1.26.17-2.41.79-3.29,1.82-.91.99-1.47,2.28-1.62,3.7l-2.76,26.07-2.76-26.07c-.15-1.42-.71-2.71-1.62-3.7-.88-1.02-2.03-1.65-3.29-1.82l-23.2-3.11,23.2-3.11c1.26-.17,2.41-.79,3.29-1.82.91-.99,1.47-2.28,1.62-3.7l2.76-26.07Z"/>
        <path class="cls-1" d="M444.43,335.97l-2.76-26.07c-.15-1.42-.71-2.71-1.62-3.7-.88-1.02-2.03-1.65-3.29-1.82l-23.2-3.11,23.2-3.11c1.26-.17,2.41-.79,3.29-1.82.91-.99,1.47-2.28,1.62-3.7l2.76-26.07,2.76,26.07c.15,1.42.71,2.71,1.62,3.7.88,1.02,2.03,1.65,3.29,1.82l23.2,3.11-23.2,3.11c-1.26.17-2.41.79-3.29,1.82-.91.99-1.47,2.28-1.62,3.7l-2.76,26.07Z"/>
        <path class="cls-1" d="M1085.39,1830.03l13.33-1.78c.73-.09,1.39-.46,1.89-1.04.52-.57.84-1.31.93-2.13l1.59-14.97,1.59,14.97c.08.82.41,1.56.93,2.13.51.59,1.17.95,1.89,1.04l13.33,1.78-13.33,1.78c-.73.09-1.39.46-1.89,1.04-.52.57-.84,1.31-.93,2.13l-1.59,14.97-1.59-14.97c-.08-.82-.41-1.56-.93-2.13-.51-.59-1.17-.95-1.89-1.04l-13.33-1.78Z"/>
        <path class="cls-1" d="M1120.84,746.08l-14.8,1.98c-.81.11-1.54.51-2.1,1.16-.58.63-.94,1.45-1.03,2.36l-1.76,16.63-1.76-16.63c-.09-.91-.45-1.73-1.03-2.36-.56-.65-1.29-1.05-2.1-1.16l-14.8-1.98,14.8-1.98c.81-.11,1.54-.51,2.1-1.16.58-.63.94-1.45,1.03-2.36l1.76-16.63,1.76,16.63c.09.91.45,1.73,1.03,2.36.56.65,1.29,1.05,2.1,1.16l14.8,1.98Z"/>
        <path class="cls-1" d="M643.75,2202.39l-12.86-1.72c-.7-.09-1.34-.44-1.83-1.01-.51-.55-.81-1.26-.9-2.05l-1.53-14.45-1.53,14.45c-.08.79-.39,1.5-.9,2.05-.49.57-1.12.92-1.83,1.01l-12.86,1.72,12.86,1.72c.7.09,1.34.44,1.83,1.01.51.55.81,1.26.9,2.05l1.53,14.45,1.53-14.45c.08-.79.39-1.5.9-2.05.49-.57,1.12-.92,1.83-1.01l12.86-1.72Z"/>
        <path class="cls-1" d="M1086.91,2630.99l2.76-26.07c.15-1.42.71-2.71,1.62-3.7.88-1.02,2.03-1.65,3.29-1.82l23.2-3.11-23.2-3.11c-1.26-.17-2.41-.79-3.29-1.82-.91-.99-1.47-2.28-1.62-3.7l-2.76-26.07-2.76,26.07c-.15,1.42-.71,2.71-1.62,3.7-.88,1.02-2.03,1.65-3.29,1.82l-23.2,3.11,23.2,3.11c1.26.17,2.41.79,3.29,1.82.91.99,1.47,2.28,1.62,3.7l2.76,26.07Z"/>
        <path class="cls-1" d="M1452.41,2113.76l2,18.88c.11,1.03.51,1.96,1.17,2.68.64.74,1.47,1.2,2.38,1.32l16.8,2.25-16.8,2.25c-.92.12-1.75.57-2.38,1.32-.66.72-1.06,1.65-1.17,2.68l-2,18.88-2-18.88c-.11-1.03-.51-1.96-1.17-2.68-.64-.74-1.47-1.2-2.38-1.32l-16.8-2.25,16.8-2.25c.92-.12,1.75-.57,2.38-1.32.66-.72,1.06-1.65,1.17-2.68l2-18.88Z"/>
        <path class="cls-1" d="M1194.86,2301.71l2,18.88c.11,1.03.51,1.96,1.17,2.68.64.74,1.47,1.2,2.38,1.32l16.8,2.25-16.8,2.25c-.92.12-1.75.57-2.38,1.32-.66.72-1.06,1.65-1.17,2.68l-2,18.88-2-18.88c-.11-1.03-.51-1.96-1.17-2.68-.64-.74-1.47-1.2-2.38-1.32l-16.8-2.25,16.8-2.25c.92-.12,1.75-.57,2.38-1.32.66-.72,1.06-1.65,1.17-2.68l2-18.88Z"/>
        <path class="cls-1" d="M945.46,2581.98l2,18.88c.11,1.03.51,1.96,1.17,2.68.64.74,1.47,1.2,2.38,1.32l16.8,2.25-16.8,2.25c-.92.12-1.75.57-2.38,1.32-.66.72-1.06,1.65-1.17,2.68l-2,18.88-2-18.88c-.11-1.03-.51-1.96-1.17-2.68-.64-.74-1.47-1.2-2.38-1.32l-16.8-2.25,16.8-2.25c.92-.12,1.75-.57,2.38-1.32.66-.72,1.06-1.65,1.17-2.68l2-18.88Z"/>
        <path class="cls-1" d="M1621.18,374.36l2,18.88c.11,1.03.51,1.96,1.17,2.68.64.74,1.47,1.2,2.38,1.32l16.8,2.25-16.8,2.25c-.92.12-1.75.57-2.38,1.32-.66.72-1.06,1.65-1.17,2.68l-2,18.88-2-18.88c-.11-1.03-.51-1.96-1.17-2.68-.64-.74-1.47-1.2-2.38-1.32l-16.8-2.25,16.8-2.25c.92-.12,1.75-.57,2.38-1.32.66-.72,1.06-1.65,1.17-2.68l2-18.88Z"/>
        <path class="cls-1" d="M1706.59,1091.42l2,18.88c.11,1.03.51,1.96,1.17,2.68.64.74,1.47,1.2,2.38,1.32l16.8,2.25-16.8,2.25c-.92.12-1.75.57-2.38,1.32-.66.72-1.06,1.65-1.17,2.68l-2,18.88-2-18.88c-.11-1.03-.51-1.96-1.17-2.68-.64-.74-1.47-1.2-2.38-1.32l-16.8-2.25,16.8-2.25c.92-.12,1.75-.57,2.38-1.32.66-.72,1.06-1.65,1.17-2.68l2-18.88Z"/>
        <path class="cls-1" d="M1672.62,1587.04l2,18.88c.11,1.03.51,1.96,1.17,2.68.64.74,1.47,1.2,2.38,1.32l16.8,2.25-16.8,2.25c-.92.12-1.75.57-2.38,1.32-.66.72-1.06,1.65-1.17,2.68l-2,18.88-2-18.88c-.11-1.03-.51-1.96-1.17-2.68-.64-.74-1.47-1.2-2.38-1.32l-16.8-2.25,16.8-2.25c.92-.12,1.75-.57,2.38-1.32.66-.72,1.06-1.65,1.17-2.68l2-18.88Z"/>
        <path class="cls-1" d="M470.28,818.47l-2-18.88c-.11-1.03-.51-1.96-1.17-2.68-.64-.74-1.47-1.2-2.38-1.32l-16.8-2.25,16.8-2.25c.92-.12,1.75-.57,2.38-1.32.66-.72,1.06-1.65,1.17-2.68l2-18.88,2,18.88c.11,1.03.51,1.96,1.17,2.68.64.74,1.47,1.2,2.38,1.32l16.8,2.25-16.8,2.25c-.92.12-1.75.57-2.38,1.32-.66.72-1.06,1.65-1.17,2.68l-2,18.88Z"/>
        <path class="cls-1" d="M1643.55,267.1l13.33-1.78c.73-.09,1.39-.46,1.89-1.04.52-.57.84-1.31.93-2.13l1.59-14.97,1.59,14.97c.08.82.41,1.56.93,2.13.51.59,1.17.95,1.89,1.04l13.33,1.78-13.33,1.78c-.73.09-1.39.46-1.89,1.04-.52.57-.84,1.31-.93,2.13l-1.59,14.97-1.59-14.97c-.08-.82-.41-1.56-.93-2.13-.51-.59-1.17-.95-1.89-1.04l-13.33-1.78Z"/>
        <path class="cls-1" d="M102.7,1369.29l-13.33-1.78c-.73-.09-1.39-.46-1.89-1.04-.52-.57-.84-1.31-.93-2.13l-1.59-14.97-1.59,14.97c-.08.82-.41,1.56-.93,2.13-.51.59-1.17.95-1.89,1.04l-13.33,1.78,13.33,1.78c.73.09,1.39.46,1.89,1.04.52.57.84,1.31.93,2.13l1.59,14.97,1.59-14.97c.08-.82.41-1.56.93-2.13.51-.59,1.17-.95,1.89-1.04l13.33-1.78Z"/>
        <path class="cls-1" d="M178.35,1516.87l-1.59,14.97c-.08.82-.41,1.56-.93,2.13-.51.59-1.17.95-1.89,1.04l-13.33,1.78,13.33,1.78c.73.09,1.38.46,1.89,1.04.52.57.84,1.31.93,2.13l1.59,14.97,1.59-14.97c.08-.82.41-1.56.93-2.13.51-.59,1.17-.95,1.89-1.04l13.33-1.78-13.33-1.78c-.73-.09-1.38-.46-1.89-1.04-.52-.57-.84-1.31-.93-2.13l-1.59-14.97Z"/>
        <g>
          <path class="cls-1" d="M1530.37,1907.2l1.59,14.97c.08.82.41,1.56.93,2.13.51.59,1.17.95,1.89,1.04l13.33,1.78-13.33,1.78c-.73.09-1.38.46-1.89,1.04-.52.57-.84,1.31-.93,2.13l-1.59,14.97-1.59-14.97c-.08-.82-.41-1.56-.93-2.13-.51-.59-1.17-.95-1.89-1.04l-13.33-1.78,13.33-1.78c.73-.09,1.38-.46,1.89-1.04.52-.57.84-1.31.93-2.13l1.59-14.97Z"/>
          <path class="cls-1" d="M707.65,1267.75l-6.08-.81c-.33-.04-.63-.21-.86-.48-.24-.26-.39-.6-.42-.97l-.72-6.84-.72,6.84c-.04.37-.19.71-.42.97-.23.27-.53.43-.86.48l-6.08.81,6.08.81c.33.04.63.21.86.48.24.26.39.6.42.97l.72,6.84.72-6.84c.04-.37.19-.71.42-.97.23-.27.53-.43.86-.48l6.08-.81Z"/>
          <path class="cls-1" d="M1285.11,1976.52l-12.17-1.63c-.66-.09-1.26-.42-1.73-.95-.48-.52-.77-1.2-.85-1.94l-1.45-13.67-1.45,13.67c-.08.75-.37,1.42-.85,1.94-.46.54-1.06.87-1.73.95l-12.17,1.63,12.17,1.63c.66.09,1.26.42,1.73.95.48.52.77,1.2.85,1.94l1.45,13.67,1.45-13.67c.08-.75.37-1.42.85-1.94.46-.54,1.06-.87,1.73-.95l12.17-1.63Z"/>
          <path class="cls-1" d="M1352.61,252.99l-2.42,22.79c-.13,1.24-.62,2.37-1.41,3.23-.77.9-1.77,1.44-2.88,1.59l-20.28,2.71,20.28,2.71c1.1.14,2.11.69,2.88,1.59.8.87,1.29,1.99,1.41,3.23l2.42,22.79,2.42-22.79c.13-1.24.62-2.37,1.41-3.23.77-.9,1.77-1.44,2.88-1.59l20.28-2.71-20.28-2.71c-1.1-.14-2.11-.69-2.88-1.59-.8-.87-1.29-1.99-1.41-3.23l-2.42-22.79Z"/>
          <path class="cls-1" d="M1428.91,1209.93c-.27-.44-.72-.72-1.22-.74l-23.17-1.08,23.17-1.08c.25-.01.49-.09.7-.22l-11.65-5.65,12.37,4.66c.14-.51.06-1.07-.23-1.51l-13.67-20.52,15.22,19.17c.16.21.37.36.59.46l-3.23-13.5,4.38,13.5c.45-.2.8-.61.93-1.14l6.12-24.51-4.19,24.99c-.05.27-.03.54.04.8l7.62-11.18-6.9,12.17c.42.27.94.3,1.39.09l21.31-10.04-20.45,11.99c-.22.13-.41.31-.54.53l12.73-.45-12.99,1.68c.07.53.37.99.81,1.25l20.45,11.99-21.31-10.04c-.23-.11-.48-.15-.72-.14l8.26,10.62-9.3-10.08c-.33.39-.48.93-.39,1.47l4.19,24.99-6.12-24.51c-.07-.27-.19-.5-.35-.7l-2.43,13.7,1.4-14.25c-.48-.04-.96.17-1.29.58l-15.22,19.17,13.67-20.52c.15-.22.24-.48.28-.74l-11.29,6.46,11.04-7.69Z"/>
          <path class="cls-1" d="M836.03,1780.58c-.26-.19-.42-.49-.43-.82l-.63-15.62-.63,15.62c0,.17-.05.33-.13.47l-3.3-7.85,2.73,8.34c-.3.1-.63.04-.88-.16l-12-9.22,11.21,10.26c.12.11.21.25.27.4l-7.89-2.18,7.9,2.96c-.11.31-.36.54-.67.63l-14.33,4.13,14.61-2.83c.16-.03.32-.02.47.03l-6.54,5.14,7.12-4.65c.16.28.18.63.05.94l-5.87,14.37,7.01-13.79c.08-.15.18-.27.31-.37l-.26,8.58.98-8.76c.31.05.58.25.73.54l7.01,13.79-5.87-14.37c-.06-.16-.09-.32-.08-.49l6.21,5.57-5.89-6.27c.23-.22.55-.32.86-.26l14.61,2.83-14.33-4.13c-.16-.04-.29-.13-.41-.24l8.01-1.64-8.33.94c-.02-.33.1-.65.34-.87l11.21-10.26-12,9.22c-.13.1-.28.16-.43.19l3.78-7.61-4.5,7.44Z"/>
          <path class="cls-1" d="M624.42,309.89c-.51-.4-.84-1.04-.87-1.76l-1.27-33.37-1.27,33.37c-.01.36-.1.71-.26,1.01l-6.61-16.77,5.45,17.81c-.6.21-1.25.09-1.76-.33l-24.01-19.69,22.43,21.92c.24.24.43.53.54.86l-15.79-4.65,15.79,6.31c-.23.65-.72,1.15-1.33,1.34l-28.67,8.81,29.23-6.04c.32-.07.64-.04.93.06l-13.08,10.97,14.24-9.94c.31.61.35,1.35.1,2l-11.74,30.69,14.03-29.45c.15-.32.37-.59.62-.78l-.52,18.33,1.96-18.71c.62.11,1.16.53,1.46,1.16l14.03,29.45-11.74-30.69c-.13-.33-.18-.69-.16-1.04l12.43,11.89-11.79-13.39c.46-.48,1.09-.69,1.72-.56l29.23,6.04-28.67-8.81c-.31-.1-.59-.27-.82-.51l16.02-3.5-16.67,2.01c-.05-.7.2-1.39.68-1.86l22.43-21.92-24.01,19.69c-.26.21-.56.35-.86.4l7.55-16.26-8.99,15.9Z"/>
          <path class="cls-1" d="M820.87,822.71c-.59-.97-1-2.09-1.18-3.29-.75-4.93-1.7-11.19-1.7-11.19,0,0-.95,6.26-1.7,11.19-.18,1.21-.59,2.32-1.18,3.29-.49-.23-.96-.53-1.41-.88-2.26-1.8-4.57-3.64-4.57-3.64,0,0,1.63,2.6,3.24,5.14.32.5.58,1.03.78,1.58-.86.66-1.86,1.12-2.93,1.33-4.38.84-9.96,1.91-9.96,1.91,0,0,5.57,1.07,9.96,1.91,1.07.21,2.07.67,2.93,1.33-.21.55-.47,1.08-.78,1.58-1.6,2.54-3.24,5.14-3.24,5.14,0,0,2.31-1.84,4.57-3.64.45-.36.92-.65,1.41-.88.59.97,1,2.09,1.18,3.29.75,4.93,1.7,11.19,1.7,11.19,0,0,.95-6.26,1.7-11.19.18-1.21.59-2.32,1.18-3.29.49.23.96.53,1.41.88,2.26,1.8,4.57,3.64,4.57,3.64,0,0-1.63-2.6-3.24-5.14-.32-.5-.58-1.03-.78-1.58.86-.66,1.86-1.12,2.93-1.33,4.38-.84,9.95-1.91,9.95-1.91,0,0-5.57-1.07-9.95-1.91-1.07-.21-2.07-.67-2.93-1.33.21-.55.47-1.08.78-1.58,1.6-2.54,3.24-5.14,3.24-5.14,0,0-2.31,1.84-4.57,3.64-.45.36-.92.65-1.41.88Z"/>
          <path class="cls-1" d="M901.43,653.64c-.68-1.11-1.15-2.4-1.36-3.78-.86-5.66-1.96-12.85-1.96-12.85,0,0-1.1,7.19-1.96,12.85-.21,1.39-.68,2.67-1.36,3.78-.56-.27-1.11-.6-1.62-1.01-2.6-2.07-5.25-4.18-5.25-4.18,0,0,1.88,2.98,3.72,5.9.36.58.66,1.19.9,1.82-.99.76-2.13,1.29-3.37,1.53-5.04.97-11.44,2.2-11.44,2.2,0,0,6.4,1.23,11.44,2.2,1.23.24,2.38.77,3.37,1.53-.24.63-.54,1.24-.9,1.82-1.84,2.92-3.72,5.9-3.72,5.9,0,0,2.65-2.11,5.25-4.18.51-.41,1.06-.75,1.62-1.01.68,1.11,1.15,2.4,1.36,3.78.86,5.66,1.96,12.85,1.96,12.85,0,0,1.1-7.19,1.96-12.85.21-1.39.68-2.67,1.36-3.78.56.27,1.11.6,1.62,1.01,2.6,2.07,5.25,4.18,5.25,4.18,0,0-1.88-2.98-3.72-5.9-.36-.58-.66-1.19-.9-1.82.99-.76,2.13-1.29,3.37-1.53,5.04-.97,11.44-2.2,11.44-2.2,0,0-6.4-1.23-11.44-2.2-1.23-.24-2.38-.77-3.37-1.53.24-.63.54-1.24.9-1.82,1.84-2.92,3.72-5.9,3.72-5.9,0,0-2.65,2.11-5.25,4.18-.51.41-1.06.75-1.62,1.01Z"/>
          <path class="cls-1" d="M1249.77,2487.04l20.19-2.09c1.27-.13,2.46-.76,3.36-1.77.9-1.01,1.46-2.35,1.57-3.77l1.86-22.7,1.86,22.7c.12,1.43.67,2.76,1.58,3.77.9,1.01,2.09,1.64,3.36,1.77l20.2,2.09-20.2,2.09c-1.27.13-2.45.76-3.36,1.77-.9,1.01-1.46,2.35-1.58,3.77l-1.86,22.7-1.86-22.7c-.11-1.43-.67-2.76-1.57-3.77-.9-1.01-2.09-1.64-3.36-1.77l-20.19-2.09Z"/>
          <path class="cls-1" d="M227.97,788.3l13.27-1.37c.84-.09,1.62-.5,2.21-1.16.59-.67.96-1.54,1.03-2.48l1.22-14.91,1.22,14.91c.08.94.44,1.81,1.04,2.48.59.67,1.37,1.08,2.21,1.16l13.27,1.37-13.27,1.37c-.83.09-1.61.5-2.21,1.16-.59.67-.96,1.54-1.04,2.48l-1.22,14.91-1.22-14.91c-.08-.94-.44-1.81-1.03-2.48-.59-.67-1.37-1.08-2.21-1.16l-13.27-1.37Z"/>
          <path class="cls-1" d="M139.51,1811.53l20.19-2.09c1.27-.13,2.46-.76,3.36-1.77.9-1.01,1.46-2.35,1.57-3.77l1.86-22.7,1.86,22.7c.12,1.43.67,2.76,1.58,3.77.9,1.01,2.09,1.64,3.36,1.77l20.2,2.09-20.2,2.09c-1.27.13-2.45.76-3.36,1.77-.9,1.01-1.46,2.35-1.58,3.77l-1.86,22.7-1.86-22.7c-.11-1.43-.67-2.76-1.57-3.77-.9-1.01-2.09-1.64-3.36-1.77l-20.19-2.09Z"/>
          <path class="cls-1" d="M1110.17,2101.95c-.72-.55-1.18-1.46-1.22-2.46l-1.78-46.81-1.78,46.81c-.02.51-.15.99-.36,1.42l-9.27-23.53,7.65,24.99c-.84.29-1.75.12-2.47-.47l-33.68-27.63,31.46,30.75c.34.33.6.75.76,1.2l-22.15-6.53,22.16,8.86c-.32.91-1.01,1.62-1.87,1.88l-40.22,12.36,41.01-8.47c.44-.09.89-.06,1.31.08l-18.35,15.39,19.98-13.94c.44.85.5,1.89.14,2.81l-16.47,43.04,19.68-41.31c.21-.45.51-.82.87-1.1l-.74,25.72,2.76-26.24c.86.15,1.63.74,2.05,1.63l19.68,41.31-16.47-43.04c-.18-.47-.25-.96-.22-1.45l17.43,16.68-16.54-18.78c.64-.67,1.53-.97,2.41-.78l41.01,8.47-40.22-12.36c-.44-.13-.83-.38-1.15-.71l22.48-4.92-23.38,2.82c-.06-.98.28-1.95.96-2.6l31.46-30.75-33.68,27.63c-.36.3-.78.49-1.21.57l10.59-22.81-12.62,22.3Z"/>
        </g>
        <g>
          <path class="cls-1" d="M912.61,814.71l12.17-1.63c.66-.09,1.26-.42,1.73-.95.48-.52.77-1.2.85-1.94l1.45-13.67,1.45,13.67c.08.75.37,1.42.85,1.94.46.54,1.06.87,1.73.95l12.17,1.63-12.17,1.63c-.66.09-1.26.42-1.73.95-.48.52-.77,1.2-.85,1.94l-1.45,13.67-1.45-13.67c-.08-.75-.37-1.42-.85-1.94-.46-.54-1.06-.87-1.73-.95l-12.17-1.63Z"/>
          <path class="cls-1" d="M423.61,1586.18l12.17-1.63c.66-.09,1.26-.42,1.73-.95.48-.52.77-1.2.85-1.94l1.45-13.67,1.45,13.67c.08.75.37,1.42.85,1.94.46.54,1.06.87,1.73.95l12.17,1.63-12.17,1.63c-.66.09-1.26.42-1.73.95-.48.52-.77,1.2-.85,1.94l-1.45,13.67-1.45-13.67c-.08-.75-.37-1.42-.85-1.94-.46-.54-1.06-.87-1.73-.95l-12.17-1.63Z"/>
          <path class="cls-1" d="M374.58,1292.46l-1.04,9.77c-.06.53-.26,1.02-.61,1.39-.33.38-.76.62-1.23.68l-8.69,1.16,8.69,1.16c.47.06.9.3,1.23.68.34.37.55.85.61,1.39l1.04,9.77,1.04-9.77c.06-.53.26-1.02.61-1.39.33-.38.76-.62,1.23-.68l8.69-1.16-8.69-1.16c-.47-.06-.9-.3-1.23-.68-.34-.37-.55-.85-.61-1.39l-1.04-9.77Z"/>
          <path class="cls-1" d="M99.67,1724.5c-.35-.58-.93-.94-1.56-.98l-29.7-1.42,29.7-1.42c.32-.02.63-.12.9-.29l-14.93-7.42,15.85,6.13c.18-.67.08-1.4-.3-1.98l-17.53-26.98,19.51,25.2c.21.27.47.48.76.61l-4.14-17.74,5.62,17.75c.58-.26,1.03-.81,1.19-1.5l7.84-32.22-5.37,32.85c-.06.36-.04.71.05,1.05l9.76-14.7-8.84,16c.54.35,1.2.4,1.78.12l27.31-13.2-26.21,15.76c-.28.17-.52.41-.7.7l16.32-.59-16.65,2.21c.09.69.47,1.3,1.03,1.64l26.21,15.76-27.31-13.2c-.3-.14-.61-.2-.92-.18l10.58,13.97-11.92-13.25c-.42.51-.61,1.23-.5,1.93l5.37,32.85-7.84-32.22c-.08-.35-.24-.66-.45-.92l-3.12,18.01,1.79-18.73c-.62-.05-1.24.23-1.65.77l-19.51,25.2,17.53-26.98c.19-.29.31-.63.36-.97l-14.47,8.49,14.15-10.11Z"/>
          <path class="cls-1" d="M1068.76,1352.85c-1.31-1.01-2.83-1.71-4.46-2.02-6.67-1.28-15.15-2.91-15.15-2.91,0,0,8.48-1.63,15.15-2.91,1.63-.31,3.15-1.02,4.46-2.02-.31-.84-.71-1.65-1.19-2.41-2.44-3.87-4.92-7.82-4.92-7.82,0,0,3.51,2.8,6.96,5.53.68.54,1.4.99,2.14,1.34.89-1.48,1.52-3.18,1.8-5.01,1.14-7.5,2.59-17.02,2.59-17.02,0,0,1.45,9.53,2.59,17.02.28,1.84.91,3.54,1.8,5.01.75-.35,1.47-.8,2.15-1.34,3.44-2.74,6.96-5.53,6.96-5.53,0,0-2.49,3.95-4.92,7.82-.48.76-.88,1.57-1.19,2.41,1.31,1.01,2.83,1.71,4.46,2.02,6.67,1.28,15.15,2.91,15.15,2.91,0,0-8.48,1.63-15.15,2.91-1.63.31-3.15,1.02-4.46,2.02.31.84.71,1.65,1.19,2.41,2.44,3.87,4.92,7.82,4.92,7.82,0,0-3.51-2.79-6.96-5.53-.68-.54-1.4-.99-2.15-1.34-.89,1.48-1.52,3.18-1.8,5.01-1.14,7.5-2.59,17.02-2.59,17.02,0,0-1.45-9.53-2.59-17.02-.28-1.84-.91-3.54-1.8-5.01-.75.35-1.47.8-2.14,1.34-3.44,2.74-6.96,5.53-6.96,5.53,0,0,2.49-3.95,4.92-7.82.48-.76.88-1.57,1.19-2.41Z"/>
          <path class="cls-1" d="M677.16,1758.92c-1.31-1.01-2.83-1.71-4.46-2.02-6.67-1.28-15.15-2.91-15.15-2.91,0,0,8.48-1.63,15.15-2.91,1.63-.31,3.15-1.02,4.46-2.02-.31-.84-.71-1.65-1.19-2.41-2.44-3.87-4.92-7.82-4.92-7.82,0,0,3.51,2.8,6.96,5.53.68.54,1.4.99,2.14,1.34.89-1.48,1.52-3.18,1.8-5.01,1.14-7.5,2.59-17.02,2.59-17.02,0,0,1.45,9.53,2.59,17.02.28,1.84.91,3.54,1.8,5.01.75-.35,1.47-.8,2.15-1.34,3.44-2.74,6.96-5.53,6.96-5.53,0,0-2.49,3.95-4.92,7.82-.48.76-.88,1.57-1.19,2.41,1.31,1.01,2.83,1.71,4.46,2.02,6.67,1.28,15.15,2.91,15.15,2.91,0,0-8.48,1.63-15.15,2.91-1.63.31-3.15,1.02-4.46,2.02.31.84.71,1.65,1.19,2.41,2.44,3.87,4.92,7.82,4.92,7.82,0,0-3.51-2.79-6.96-5.53-.68-.54-1.4-.99-2.15-1.34-.89,1.48-1.52,3.18-1.8,5.01-1.14,7.5-2.59,17.02-2.59,17.02,0,0-1.45-9.53-2.59-17.02-.28-1.84-.91-3.54-1.8-5.01-.75.35-1.47.8-2.14,1.34-3.44,2.74-6.96,5.53-6.96,5.53,0,0,2.49-3.95,4.92-7.82.48-.76.88-1.57,1.19-2.41Z"/>
          <path class="cls-1" d="M1555.45,2191.2l20.19-2.09c1.27-.13,2.46-.76,3.36-1.77.9-1.01,1.46-2.35,1.57-3.77l1.86-22.7,1.86,22.7c.12,1.43.67,2.76,1.58,3.77.9,1.01,2.09,1.64,3.36,1.77l20.2,2.09-20.2,2.09c-1.27.13-2.45.76-3.36,1.77-.9,1.01-1.46,2.35-1.58,3.77l-1.86,22.7-1.86-22.7c-.11-1.43-.67-2.76-1.57-3.77-.9-1.01-2.09-1.64-3.36-1.77l-20.19-2.09Z"/>
          <path class="cls-1" d="M304.8,2420.42l12.12-1.25c.76-.08,1.47-.45,2.02-1.06.54-.61.87-1.41.94-2.26l1.12-13.62,1.11,13.62c.07.86.4,1.66.95,2.26.54.61,1.25.98,2.01,1.06l12.12,1.25-12.12,1.25c-.76.08-1.47.45-2.01,1.06-.54.61-.87,1.41-.95,2.26l-1.11,13.62-1.12-13.62c-.07-.86-.4-1.66-.94-2.26-.54-.61-1.25-.98-2.02-1.06l-12.12-1.25Z"/>
          <path class="cls-1" d="M1389.93,1691.77l20.19-2.09c1.27-.13,2.46-.76,3.36-1.77.9-1.01,1.46-2.35,1.57-3.77l1.86-22.7,1.86,22.7c.12,1.43.67,2.76,1.58,3.77.9,1.01,2.09,1.64,3.36,1.77l20.2,2.09-20.2,2.09c-1.27.13-2.45.76-3.36,1.77-.9,1.01-1.46,2.35-1.58,3.77l-1.86,22.7-1.86-22.7c-.11-1.43-.67-2.76-1.57-3.77-.9-1.01-2.09-1.64-3.36-1.77l-20.19-2.09Z"/>
        </g>
        <path class="cls-1" d="M59.97,746.08l-1.45,13.67c-.08.75-.37,1.42-.85,1.94-.46.54-1.06.87-1.73.95l-12.17,1.63,12.17,1.63c.66.09,1.26.42,1.73.95.48.52.77,1.2.85,1.94l1.45,13.67,1.45-13.67c.08-.75.37-1.42.85-1.94.46-.54,1.06-.87,1.73-.95l12.17-1.63-12.17-1.63c-.66-.09-1.26-.42-1.73-.95-.48-.52-.77-1.2-.85-1.94l-1.45-13.67Z"/>
        <path class="cls-1" d="M1659.74,1146.86l1.45,13.67c.08.75.37,1.42.85,1.94.46.54,1.06.87,1.73.95l12.17,1.63-12.17,1.63c-.66.09-1.26.42-1.73.95-.48.52-.77,1.2-.85,1.94l-1.45,13.67-1.45-13.67c-.08-.75-.37-1.42-.85-1.94-.46-.54-1.06-.87-1.73-.95l-12.17-1.63,12.17-1.63c.66-.09,1.26-.42,1.73-.95.48-.52.77-1.2.85-1.94l1.45-13.67Z"/>
        <path class="cls-1" d="M729.63,194.73l-1.45,13.67c-.08.75-.37,1.42-.85,1.94-.46.54-1.06.87-1.73.95l-12.17,1.63,12.17,1.63c.66.09,1.26.42,1.73.95.48.52.77,1.2.85,1.94l1.45,13.67,1.45-13.67c.08-.75.37-1.42.85-1.94.46-.54,1.06-.87,1.73-.95l12.17-1.63-12.17-1.63c-.66-.09-1.26-.42-1.73-.95-.48-.52-.77-1.2-.85-1.94l-1.45-13.67Z"/>
        <path class="cls-1" d="M973.23,597.34l1.45,13.67c.08.75.37,1.42.85,1.94.46.54,1.06.87,1.73.95l12.17,1.63-12.17,1.63c-.66.09-1.26.42-1.73.95-.48.52-.77,1.2-.85,1.94l-1.45,13.67-1.45-13.67c-.08-.75-.37-1.42-.85-1.94-.46-.54-1.06-.87-1.73-.95l-12.17-1.63,12.17-1.63c.66-.09,1.26-.42,1.73-.95.48-.52.77-1.2.85-1.94l1.45-13.67Z"/>
        <path class="cls-1" d="M605.48,2477.28l20.28-2.71c1.11-.14,2.11-.69,2.88-1.59.8-.87,1.29-1.99,1.41-3.23l2.42-22.79,2.42,22.79c.13,1.24.62,2.37,1.41,3.23.77.9,1.77,1.44,2.88,1.59l20.28,2.71-20.28,2.71c-1.11.14-2.11.69-2.88,1.59-.8.87-1.29,1.99-1.41,3.23l-2.42,22.79-2.42-22.79c-.13-1.24-.62-2.37-1.41-3.23-.77-.9-1.77-1.44-2.88-1.59l-20.28-2.71Z"/>
        <path class="cls-1" d="M1470.86,536.71l-2.42,22.79c-.13,1.24-.62,2.37-1.41,3.23-.77.9-1.77,1.44-2.88,1.59l-20.28,2.71,20.28,2.71c1.1.14,2.11.69,2.88,1.59.8.87,1.29,1.99,1.41,3.23l2.42,22.79,2.42-22.79c.13-1.24.62-2.37,1.41-3.23.77-.9,1.77-1.44,2.88-1.59l20.28-2.71-20.28-2.71c-1.1-.14-2.11-.69-2.88-1.59-.8-.87-1.29-1.99-1.41-3.23l-2.42-22.79Z"/>
        <path class="cls-1" d="M1327.94,1100.12l8.69-1.16c.47-.06.9-.3,1.23-.68.34-.37.55-.85.61-1.39l1.04-9.77,1.04,9.77c.06.53.26,1.01.61,1.39.33.38.76.62,1.23.68l8.69,1.16-8.69,1.16c-.47.06-.9.3-1.23.68-.34.37-.55.85-.61,1.39l-1.04,9.77-1.04-9.77c-.06-.53-.26-1.01-.61-1.39-.33-.38-.76-.62-1.23-.68l-8.69-1.16Z"/>
        <path class="cls-1" d="M1656.44,610.33l8.44-3.52,3.13-9.48,3.13,9.48,8.44,3.52-8.44,3.52-3.13,9.48-3.13-9.48-8.44-3.52Z"/>
        <path class="cls-1" d="M285.52,1169.38l-3.13,9.48-8.44,3.52,8.44,3.52,3.13,9.48,3.13-9.48,8.44-3.52-8.44-3.52-3.13-9.48Z"/>
        <path class="cls-1" d="M1172.29,1056.57c-.86-.66-1.86-1.12-2.93-1.33-4.38-.84-9.96-1.91-9.96-1.91,0,0,5.57-1.07,9.96-1.91,1.07-.21,2.07-.67,2.93-1.33-.21-.55-.47-1.08-.78-1.58-1.6-2.54-3.24-5.14-3.24-5.14,0,0,2.31,1.84,4.57,3.64.45.36.92.65,1.41.88.59-.97,1-2.09,1.18-3.29.75-4.93,1.7-11.19,1.7-11.19,0,0,.95,6.26,1.7,11.19.18,1.21.59,2.32,1.18,3.29.49-.23.96-.53,1.41-.88,2.26-1.8,4.57-3.64,4.57-3.64,0,0-1.63,2.6-3.24,5.14-.32.5-.58,1.03-.78,1.58.86.66,1.86,1.12,2.93,1.33,4.38.84,9.95,1.91,9.95,1.91,0,0-5.57,1.07-9.95,1.91-1.07.21-2.07.67-2.93,1.33.21.55.47,1.08.78,1.58,1.6,2.54,3.24,5.14,3.24,5.14,0,0-2.31-1.84-4.57-3.64-.45-.36-.92-.65-1.41-.88-.59.97-1,2.09-1.18,3.29-.75,4.93-1.7,11.19-1.7,11.19,0,0-.95-6.26-1.7-11.19-.18-1.21-.59-2.32-1.18-3.29-.49.23-.96.53-1.41.88-2.26,1.8-4.57,3.64-4.57,3.64,0,0,1.63-2.6,3.24-5.14.32-.5.58-1.03.78-1.58Z"/>
        <path class="cls-1" d="M186.91,1008.22c-.3-.5-.51-1.07-.61-1.69-.39-2.53-.88-5.75-.88-5.75,0,0-.49,3.22-.88,5.75-.09.62-.31,1.19-.61,1.69-.25-.12-.49-.27-.72-.45-1.16-.92-2.35-1.87-2.35-1.87,0,0,.84,1.33,1.66,2.64.16.26.3.53.4.81-.44.34-.95.58-1.51.68-2.25.43-5.12.98-5.12.98,0,0,2.86.55,5.12.98.55.11,1.06.34,1.51.68-.11.28-.24.56-.4.81-.82,1.31-1.66,2.64-1.66,2.64,0,0,1.19-.94,2.35-1.87.23-.18.47-.33.72-.45.3.5.51,1.07.61,1.69.39,2.53.88,5.75.88,5.75,0,0,.49-3.22.88-5.75.09-.62.31-1.19.61-1.69.25.12.5.27.72.45,1.16.92,2.35,1.87,2.35,1.87,0,0-.84-1.33-1.66-2.64-.16-.26-.3-.53-.4-.81.44-.34.95-.58,1.51-.68,2.25-.43,5.12-.98,5.12-.98,0,0-2.86-.55-5.12-.98-.55-.11-1.06-.34-1.51-.68.11-.28.24-.56.4-.81.82-1.31,1.66-2.64,1.66-2.64,0,0-1.19.94-2.35,1.87-.23.18-.47.33-.72.45Z"/>
        <path class="cls-1" d="M1376.23,1922.57c-.83-.64-1.79-1.08-2.83-1.28-4.23-.81-9.61-1.85-9.61-1.85,0,0,5.38-1.03,9.61-1.85,1.04-.2,2-.65,2.83-1.28-.2-.53-.45-1.04-.76-1.53-1.54-2.45-3.12-4.96-3.12-4.96,0,0,2.23,1.77,4.41,3.51.43.34.89.63,1.36.85.57-.94.96-2.01,1.14-3.18.72-4.75,1.64-10.79,1.64-10.79,0,0,.92,6.04,1.64,10.79.18,1.16.57,2.24,1.14,3.18.47-.22.93-.51,1.36-.85,2.18-1.74,4.41-3.51,4.41-3.51,0,0-1.58,2.5-3.12,4.96-.3.48-.56,1-.76,1.53.83.64,1.79,1.08,2.83,1.28,4.23.81,9.6,1.85,9.6,1.85,0,0-5.38,1.03-9.6,1.85-1.04.2-2,.65-2.83,1.28.2.53.45,1.04.76,1.53,1.54,2.45,3.12,4.96,3.12,4.96,0,0-2.23-1.77-4.41-3.51-.43-.34-.89-.63-1.36-.85-.57.94-.96,2.01-1.14,3.18-.72,4.75-1.64,10.79-1.64,10.79,0,0-.92-6.04-1.64-10.79-.18-1.16-.57-2.24-1.14-3.18-.47.22-.93.51-1.36.85-2.18,1.74-4.41,3.51-4.41,3.51,0,0,1.58-2.5,3.12-4.96.3-.48.56-1,.76-1.53Z"/>
        <path class="cls-1" d="M96.08,1219.66c-.65-1.08-1.11-2.32-1.31-3.66-.83-5.47-1.89-12.43-1.89-12.43,0,0-1.06,6.95-1.89,12.43-.2,1.34-.66,2.58-1.31,3.66-.54-.26-1.07-.58-1.57-.98-2.51-2-5.08-4.04-5.08-4.04,0,0,1.82,2.88,3.59,5.71.35.56.64,1.15.87,1.76-.96.73-2.06,1.25-3.26,1.48-4.87.94-11.06,2.13-11.06,2.13,0,0,6.19,1.19,11.06,2.13,1.19.23,2.3.74,3.26,1.48-.23.61-.52,1.2-.87,1.76-1.78,2.82-3.59,5.71-3.59,5.71,0,0,2.57-2.04,5.08-4.04.5-.39,1.02-.72,1.57-.98.65,1.08,1.11,2.32,1.31,3.66.83,5.47,1.89,12.43,1.89,12.43,0,0,1.06-6.95,1.89-12.43.2-1.34.66-2.58,1.31-3.66.54.26,1.07.58,1.57.98,2.51,2,5.08,4.04,5.08,4.04,0,0-1.82-2.88-3.59-5.71-.35-.56-.64-1.15-.87-1.76.96-.73,2.06-1.25,3.26-1.48,4.87-.94,11.06-2.13,11.06-2.13,0,0-6.19-1.19-11.06-2.13-1.19-.23-2.3-.74-3.26-1.48.23-.61.52-1.2.87-1.76,1.78-2.82,3.59-5.71,3.59-5.71,0,0-2.57,2.04-5.08,4.04-.5.39-1.02.72-1.57.98Z"/>
        <path class="cls-1" d="M59.67,2418.77c-.65-1.08-1.11-2.32-1.31-3.66-.83-5.47-1.89-12.43-1.89-12.43,0,0-1.06,6.95-1.89,12.43-.2,1.34-.66,2.58-1.31,3.66-.54-.26-1.07-.58-1.57-.98-2.51-2-5.08-4.04-5.08-4.04,0,0,1.82,2.88,3.59,5.71.35.56.64,1.15.87,1.76-.96.73-2.06,1.25-3.26,1.48-4.87.94-11.06,2.13-11.06,2.13,0,0,6.19,1.19,11.06,2.13,1.19.23,2.3.74,3.26,1.48-.23.61-.52,1.2-.87,1.76-1.78,2.82-3.59,5.71-3.59,5.71,0,0,2.57-2.04,5.08-4.04.5-.39,1.02-.72,1.57-.98.65,1.08,1.11,2.32,1.31,3.66.83,5.47,1.89,12.43,1.89,12.43,0,0,1.06-6.95,1.89-12.43.2-1.34.66-2.58,1.31-3.66.54.26,1.07.58,1.57.98,2.51,2,5.08,4.04,5.08,4.04,0,0-1.82-2.88-3.59-5.71-.35-.56-.64-1.15-.87-1.76.96-.73,2.06-1.25,3.26-1.48,4.87-.94,11.06-2.13,11.06-2.13,0,0-6.19-1.19-11.06-2.13-1.19-.23-2.3-.74-3.26-1.48.23-.61.52-1.2.87-1.76,1.78-2.82,3.59-5.71,3.59-5.71,0,0-2.57,2.04-5.08,4.04-.5.39-1.02.72-1.57.98Z"/>
        <path class="cls-1" d="M841.92,2357.49l16.73-1.73c1.05-.11,2.04-.63,2.78-1.47.75-.84,1.21-1.94,1.3-3.13l1.54-18.8,1.54,18.8c.1,1.18.56,2.29,1.31,3.13.75.84,1.73,1.36,2.78,1.47l16.74,1.73-16.74,1.73c-1.05.11-2.03.63-2.78,1.47-.75.84-1.21,1.94-1.31,3.13l-1.54,18.8-1.54-18.8c-.09-1.18-.55-2.29-1.3-3.13-.75-.84-1.73-1.36-2.78-1.47l-16.73-1.73Z"/>
        <path class="cls-1" d="M84.97,2090.07l16.73-1.73c1.05-.11,2.04-.63,2.78-1.47.75-.84,1.21-1.94,1.3-3.13l1.54-18.8,1.54,18.8c.1,1.18.56,2.29,1.31,3.13.75.84,1.73,1.36,2.78,1.47l16.74,1.73-16.74,1.73c-1.05.11-2.03.63-2.78,1.47-.75.84-1.21,1.94-1.31,3.13l-1.54,18.8-1.54-18.8c-.09-1.18-.55-2.29-1.3-3.13-.75-.84-1.73-1.36-2.78-1.47l-16.73-1.73Z"/>
        <path class="cls-1" d="M92.88,2582.66l20.19-2.09c1.27-.13,2.46-.76,3.36-1.77.9-1.01,1.46-2.35,1.57-3.77l1.86-22.7,1.86,22.7c.12,1.43.67,2.76,1.58,3.77.9,1.01,2.09,1.64,3.36,1.77l20.2,2.09-20.2,2.09c-1.27.13-2.45.76-3.36,1.77-.9,1.01-1.46,2.35-1.58,3.77l-1.86,22.7-1.86-22.7c-.11-1.43-.67-2.76-1.57-3.77-.9-1.01-2.09-1.64-3.36-1.77l-20.19-2.09Z"/>
        <path class="cls-1" d="M1641.02,1823.8l20.19-2.09c1.27-.13,2.46-.76,3.36-1.77.9-1.01,1.46-2.35,1.57-3.77l1.86-22.7,1.86,22.7c.12,1.43.67,2.76,1.58,3.77.9,1.01,2.09,1.64,3.36,1.77l20.2,2.09-20.2,2.09c-1.27.13-2.45.76-3.36,1.77-.9,1.01-1.46,2.35-1.58,3.77l-1.86,22.7-1.86-22.7c-.11-1.43-.67-2.76-1.57-3.77-.9-1.01-2.09-1.64-3.36-1.77l-20.19-2.09Z"/>
        <path class="cls-1" d="M119.75,489.19l20.19-2.09c1.27-.13,2.46-.76,3.36-1.77.9-1.01,1.46-2.35,1.57-3.77l1.86-22.7,1.86,22.7c.12,1.43.67,2.76,1.58,3.77.9,1.01,2.09,1.64,3.36,1.77l20.2,2.09-20.2,2.09c-1.27.13-2.45.76-3.36,1.77-.9,1.01-1.46,2.35-1.58,3.77l-1.86,22.7-1.86-22.7c-.11-1.43-.67-2.76-1.57-3.77-.9-1.01-2.09-1.64-3.36-1.77l-20.19-2.09Z"/>
        <path class="cls-1" d="M1212.46,623.33l20.19-2.09c1.27-.13,2.46-.76,3.36-1.77.9-1.01,1.46-2.35,1.57-3.77l1.86-22.7,1.86,22.7c.12,1.43.67,2.76,1.58,3.77.9,1.01,2.09,1.64,3.36,1.77l20.2,2.09-20.2,2.09c-1.27.13-2.45.76-3.36,1.77-.9,1.01-1.46,2.35-1.58,3.77l-1.86,22.7-1.86-22.7c-.11-1.43-.67-2.76-1.57-3.77-.9-1.01-2.09-1.64-3.36-1.77l-20.19-2.09Z"/>
      </g>
      <g id="stars2">
        <ellipse class="cls-2" cx="809.85" cy="1808.51" rx="2.93" ry="3.29"/>
        <ellipse class="cls-2" cx="327.75" cy="1132.27" rx="2.93" ry="3.29"/>
        <ellipse class="cls-2" cx="310.77" cy="1776.65" rx="2.93" ry="3.29"/>
        <ellipse class="cls-2" cx="391.55" cy="2427.12" rx="2.93" ry="3.29"/>
        <ellipse class="cls-2" cx="690.6" cy="1230.78" rx="2.93" ry="3.29"/>
        <ellipse class="cls-2" cx="208.5" cy="554.54" rx="2.93" ry="3.29"/>
        <ellipse class="cls-2" cx="191.52" cy="1198.91" rx="2.93" ry="3.29"/>
        <ellipse class="cls-2" cx="765.46" cy="2286.41" rx="2.93" ry="3.29"/>
        <path class="cls-1" d="M568.69,1612.84c-.72,1.63-.13,3.6,1.32,4.41s3.21.14,3.92-1.49.13-3.6-1.32-4.41-3.21-.14-3.92,1.49Z"/>
        <path class="cls-1" d="M86.58,936.6c-.72,1.63-.13,3.6,1.32,4.41s3.21.14,3.92-1.49.13-3.6-1.32-4.41c-1.45-.81-3.21-.14-3.92,1.49Z"/>
        <path class="cls-1" d="M69.6,1580.97c-.72,1.63-.13,3.6,1.32,4.41s3.21.14,3.92-1.49.13-3.6-1.32-4.41-3.21-.14-3.92,1.49Z"/>
        <path class="cls-1" d="M425.48,2154.26c-.49-.27-1.09-.05-1.33.51s-.04,1.23.45,1.5,1.09.05,1.33-.51.04-1.23-.45-1.5Z"/>
        <path class="cls-1" d="M947.66,1668.06c-.77,1.6-.25,3.59,1.17,4.46s3.2.28,3.97-1.31c.77-1.6.25-3.59-1.17-4.46s-3.2-.28-3.97,1.31Z"/>
        <path class="cls-1" d="M465.56,991.82c-.77,1.6-.25,3.59,1.17,4.46,1.42.87,3.2.28,3.97-1.31s.25-3.59-1.17-4.46c-1.42-.87-3.2-.28-3.97,1.31Z"/>
        <path class="cls-1" d="M448.58,1636.19c-.77,1.6-.25,3.59,1.17,4.46s3.2.28,3.97-1.31.25-3.59-1.17-4.46-3.2-.28-3.97,1.31Z"/>
        <path class="cls-1" d="M376.33,2575.28c-1.42-.87-3.2-.28-3.97,1.31s-.25,3.59,1.17,4.46,3.2.28,3.97-1.31.25-3.59-1.17-4.46Z"/>
        <path class="cls-1" d="M552.8,1371.24c.77-1.6.25-3.59-1.17-4.46s-3.2-.28-3.97,1.31-.25,3.59,1.17,4.46,3.2.28,3.97-1.31Z"/>
        <path class="cls-1" d="M70.69,695c.77-1.6.25-3.59-1.17-4.46s-3.2-.28-3.97,1.31-.25,3.59,1.17,4.46,3.2.28,3.97-1.31Z"/>
        <path class="cls-1" d="M53.71,1339.37c.77-1.6.25-3.59-1.17-4.46s-3.2-.28-3.97,1.31-.25,3.59,1.17,4.46,3.2.28,3.97-1.31Z"/>
        <path class="cls-1" d="M640.46,2131.55c1.42.87,3.2.28,3.97-1.31s.25-3.59-1.17-4.46-3.2-.28-3.97,1.31-.25,3.59,1.17,4.46Z"/>
        <path class="cls-1" d="M646.97,1526.94c-.72.56-.89,1.67-.39,2.48s1.49,1,2.21.44.89-1.67.39-2.48-1.49-1-2.21-.44Z"/>
        <path class="cls-1" d="M164.86,850.7c-.72.56-.89,1.67-.39,2.48s1.49,1,2.21.44.89-1.67.39-2.48-1.49-1-2.21-.44Z"/>
        <path class="cls-1" d="M147.88,1495.07c-.72.56-.89,1.67-.39,2.48s1.49,1,2.21.44.89-1.67.39-2.48-1.49-1-2.21-.44Z"/>
        <path class="cls-1" d="M501.91,2237.38c-.5-.8-1.49-1-2.21-.44s-.89,1.67-.39,2.48,1.49,1,2.21.44.89-1.67.39-2.48Z"/>
        <ellipse class="cls-2" cx="880.13" cy="1985.54" rx="2.93" ry="3.29"/>
        <ellipse class="cls-2" cx="398.03" cy="1309.29" rx="2.93" ry="3.29"/>
        <ellipse class="cls-2" cx="381.05" cy="1953.67" rx="2.93" ry="3.29"/>
        <ellipse class="cls-2" cx="93.81" cy="2499.4" rx="2.93" ry="3.29"/>
        <ellipse class="cls-2" cx="620.32" cy="1053.76" rx="2.93" ry="3.29"/>
        <ellipse class="cls-2" cx="138.22" cy="377.52" rx="2.93" ry="3.29"/>
        <ellipse class="cls-2" cx="142.84" cy="1026.87" rx="2.93" ry="3.29"/>
        <ellipse class="cls-2" cx="922.98" cy="2207.44" rx="2.93" ry="3.29"/>
        <path class="cls-1" d="M561.67,1806.52c-.72,1.63-.13,3.6,1.32,4.41s3.21.14,3.92-1.49.13-3.6-1.32-4.41-3.21-.14-3.92,1.49Z"/>
        <path class="cls-1" d="M79.57,1130.28c-.72,1.63-.13,3.6,1.32,4.41s3.21.14,3.92-1.49.13-3.6-1.32-4.41-3.21-.14-3.92,1.49Z"/>
        <path class="cls-1" d="M62.59,1774.65c-.72,1.63-.13,3.6,1.32,4.41s3.21.14,3.92-1.49.13-3.6-1.32-4.41-3.21-.14-3.92,1.49Z"/>
        <path class="cls-1" d="M253.12,2141.53c-1.45-.81-3.21-.14-3.92,1.49s-.13,3.6,1.32,4.41c1.45.81,3.21.14,3.92-1.49s.13-3.6-1.32-4.41Z"/>
        <path class="cls-1" d="M694.8,1666.34c-.77,1.6-.25,3.59,1.17,4.46s3.2.28,3.97-1.31.25-3.59-1.17-4.46-3.2-.28-3.97,1.31Z"/>
        <path class="cls-1" d="M212.69,990.1c-.77,1.6-.25,3.59,1.17,4.46,1.42.87,3.2.28,3.97-1.31s.25-3.59-1.17-4.46c-1.42-.87-3.2-.28-3.97,1.31Z"/>
        <path class="cls-1" d="M195.71,1634.47c-.77,1.6-.25,3.59,1.17,4.46s3.2.28,3.97-1.31.25-3.59-1.17-4.46-3.2-.28-3.97,1.31Z"/>
        <path class="cls-1" d="M415.05,2481.21c-1.42-.87-3.2-.28-3.97,1.31s-.25,3.59,1.17,4.46,3.2.28,3.97-1.31.25-3.59-1.17-4.46Z"/>
        <path class="cls-1" d="M805.66,1372.95c.77-1.6.25-3.59-1.17-4.46s-3.2-.28-3.97,1.31-.25,3.59,1.17,4.46,3.2.28,3.97-1.31Z"/>
        <path class="cls-1" d="M323.56,696.71c.77-1.6.25-3.59-1.17-4.46s-3.2-.28-3.97,1.31-.25,3.59,1.17,4.46,3.2.28,3.97-1.31Z"/>
        <path class="cls-1" d="M306.58,1341.09c.77-1.6.25-3.59-1.17-4.46-1.42-.87-3.2-.28-3.97,1.31s-.25,3.59,1.17,4.46,3.2.28,3.97-1.31Z"/>
        <path class="cls-1" d="M638.94,2415.71c1.42.87,3.2.28,3.97-1.31s.25-3.59-1.17-4.46-3.2-.28-3.97,1.31-.25,3.59,1.17,4.46Z"/>
        <path class="cls-1" d="M524.43,1429.48c-1.32,1.04-1.65,3.09-.72,4.58s2.75,1.85,4.08.81,1.65-3.09.72-4.58-2.75-1.85-4.08-.81Z"/>
        <path class="cls-1" d="M42.32,753.25c-1.32,1.04-1.65,3.09-.72,4.58s2.75,1.85,4.08.81,1.65-3.09.72-4.58-2.75-1.85-4.08-.81Z"/>
        <path class="cls-1" d="M25.35,1397.62c-1.32,1.04-1.65,3.09-.72,4.58s2.75,1.85,4.08.81,1.65-3.09.72-4.58-2.75-1.85-4.08-.81Z"/>
        <path class="cls-1" d="M588.63,2099.68c-.93-1.49-2.75-1.85-4.08-.81s-1.65,3.09-.72,4.58,2.75,1.85,4.08.81,1.65-3.09.72-4.58Z"/>
        <ellipse class="cls-2" cx="803.03" cy="1669.65" rx="2.93" ry="3.29"/>
        <ellipse class="cls-2" cx="320.92" cy="993.41" rx="2.93" ry="3.29"/>
        <ellipse class="cls-2" cx="303.94" cy="1637.79" rx="2.93" ry="3.29"/>
        <ellipse class="cls-2" cx="344.19" cy="2236.62" rx="2.93" ry="3.29"/>
        <ellipse class="cls-2" cx="215.33" cy="693.4" rx="2.93" ry="3.29"/>
        <ellipse class="cls-2" cx="198.35" cy="1337.77" rx="2.93" ry="3.29"/>
        <ellipse class="cls-2" cx="641.88" cy="2294.09" rx="2.93" ry="3.29"/>
        <path class="cls-1" d="M617.47,1485.02c-.72,1.63-.13,3.6,1.32,4.41,1.45.81,3.21.14,3.92-1.49s.13-3.6-1.32-4.41-3.21-.14-3.92,1.49Z"/>
        <path class="cls-1" d="M135.36,808.78c-.72,1.63-.13,3.6,1.32,4.41s3.21.14,3.92-1.49.13-3.6-1.32-4.41-3.21-.14-3.92,1.49Z"/>
        <path class="cls-1" d="M145.99,1449.23c-.72,1.63-.13,3.6,1.32,4.41s3.21.14,3.92-1.49.13-3.6-1.32-4.41-3.21-.14-3.92,1.49Z"/>
        <path class="cls-1" d="M539.21,2204.22c-1.45-.81-3.21-.14-3.92,1.49s-.13,3.6,1.32,4.41,3.21.14,3.92-1.49.13-3.6-1.32-4.41Z"/>
        <path class="cls-1" d="M890.1,2318.77c-.77,1.6-.25,3.59,1.17,4.46s3.2.28,3.97-1.31.25-3.59-1.17-4.46-3.2-.28-3.97,1.31Z"/>
        <path class="cls-1" d="M407.99,1642.53c-.77,1.6-.25,3.59,1.17,4.46s3.2.28,3.97-1.31.25-3.59-1.17-4.46-3.2-.28-3.97,1.31Z"/>
        <path class="cls-1" d="M261.45,2288.88c-.77,1.6-.25,3.59,1.17,4.46s3.2.28,3.97-1.31.25-3.59-1.17-4.46-3.2-.28-3.97,1.31Z"/>
        <path class="cls-1" d="M610.36,720.52c.77-1.6.25-3.59-1.17-4.46-1.42-.87-3.2-.28-3.97,1.31s-.25,3.59,1.17,4.46c1.42.87,3.2.28,3.97-1.31Z"/>
        <path class="cls-1" d="M173.42,38.78c.77-1.6.25-3.59-1.17-4.46-1.42-.87-3.2-.28-3.97,1.31s-.25,3.59,1.17,4.46c1.42.87,3.2.28,3.97-1.31Z"/>
        <path class="cls-1" d="M111.28,688.66c.77-1.6.25-3.59-1.17-4.46s-3.2-.28-3.97,1.31-.25,3.59,1.17,4.46,3.2.28,3.97-1.31Z"/>
        <path class="cls-1" d="M1219.52,2196.24c1.42.87,3.2.28,3.97-1.31s.25-3.59-1.17-4.46-3.2-.28-3.97,1.31-.25,3.59,1.17,4.46Z"/>
        <path class="cls-1" d="M441.49,2111.5c-1.32,1.04-1.65,3.09-.72,4.58s2.75,1.85,4.08.81,1.65-3.09.72-4.58-2.75-1.85-4.08-.81Z"/>
        <ellipse class="cls-2" cx="704.8" cy="1950.71" rx="1.53" ry="1.72"/>
        <ellipse class="cls-2" cx="222.69" cy="1274.47" rx="1.53" ry="1.72"/>
        <ellipse class="cls-2" cx="205.71" cy="1918.85" rx="1.53" ry="1.72"/>
        <ellipse class="cls-2" cx="124.8" cy="2302.36" rx="1.53" ry="1.72"/>
        <ellipse class="cls-2" cx="428.24" cy="1132.32" rx="4.13" ry="4.64"/>
        <ellipse class="cls-2" cx="853.07" cy="1991.58" rx="4.13" ry="4.64"/>
        <ellipse class="cls-2" cx="373.24" cy="1362.21" rx="1.33" ry="1.49"/>
        <ellipse class="cls-2" cx="653.77" cy="1929.1" rx="1.93" ry="2.17"/>
        <ellipse class="cls-2" cx="402.64" cy="1573.37" rx="3.31" ry="3.72"/>
        <ellipse class="cls-2" cx="460.59" cy="1962.81" rx="3.31" ry="3.72"/>
        <ellipse class="cls-2" cx="797.05" cy="1090.15" rx="2.93" ry="3.29"/>
        <ellipse class="cls-2" cx="314.95" cy="413.91" rx="2.93" ry="3.29"/>
        <ellipse class="cls-2" cx="297.97" cy="1058.28" rx="2.93" ry="3.29"/>
        <ellipse class="cls-2" cx="890.6" cy="2406.04" rx="2.93" ry="3.29"/>
        <path class="cls-1" d="M417.72,1685.69c-.72,1.63-.13,3.6,1.32,4.41s3.21.14,3.92-1.49.13-3.6-1.32-4.41-3.21-.14-3.92,1.49Z"/>
        <path class="cls-1" d="M360.64,1979.76c-1.45-.81-3.21-.14-3.92,1.49s-.13,3.6,1.32,4.41,3.21.14,3.92-1.49.13-3.6-1.32-4.41Z"/>
        <path class="cls-1" d="M761.2,2243.18c-.77,1.6-.25,3.59,1.17,4.46s3.2.28,3.97-1.31.25-3.59-1.17-4.46-3.2-.28-3.97,1.31Z"/>
        <path class="cls-1" d="M279.09,1566.94c-.77,1.6-.25,3.59,1.17,4.46s3.2.28,3.97-1.31.25-3.59-1.17-4.46-3.2-.28-3.97,1.31Z"/>
        <path class="cls-1" d="M242.1,2212.9c-.57.84-.42,2.04.33,2.68s1.82.47,2.38-.37.42-2.04-.33-2.68-1.82-.47-2.38.37Z"/>
        <path class="cls-1" d="M739.26,796.12c.77-1.6.25-3.59-1.17-4.46-1.42-.87-3.2-.28-3.97,1.31-.77,1.6-.25,3.59,1.17,4.46,1.42.87,3.2.28,3.97-1.31Z"/>
        <path class="cls-1" d="M257.16,119.88c.77-1.6.25-3.59-1.17-4.46-1.42-.87-3.2-.28-3.97,1.31s-.25,3.59,1.17,4.46c1.42.87,3.2.28,3.97-1.31Z"/>
        <path class="cls-1" d="M240.18,764.25c.77-1.6.25-3.59-1.17-4.46-1.42-.87-3.2-.28-3.97,1.31s-.25,3.59,1.17,4.46,3.2.28,3.97-1.31Z"/>
        <path class="cls-1" d="M1152.25,2341.09c1.42.87,3.2.28,3.97-1.31s.25-3.59-1.17-4.46-3.2-.28-3.97,1.31-.25,3.59,1.17,4.46Z"/>
        <path class="cls-1" d="M355.89,1979.43c-1.32,1.04-1.65,3.09-.72,4.58s2.75,1.85,4.08.81,1.65-3.09.72-4.58-2.75-1.85-4.08-.81Z"/>
        <ellipse class="cls-2" cx="820.9" cy="2085.35" rx="2.93" ry="3.29"/>
        <ellipse class="cls-2" cx="679.56" cy="953.94" rx="2.93" ry="3.29"/>
        <path class="cls-1" d="M469.14,1866.37c-.72,1.63-.13,3.6,1.32,4.41s3.21.14,3.92-1.49.13-3.6-1.32-4.41c-1.45-.81-3.21-.14-3.92,1.49Z"/>
        <path class="cls-1" d="M199.85,2037.54c-1.45-.81-3.21-.14-3.92,1.49s-.13,3.6,1.32,4.41,3.21.14,3.92-1.49.13-3.6-1.32-4.41Z"/>
        <path class="cls-1" d="M1051.4,2299.27c-.77,1.6-.25,3.59,1.17,4.46s3.2.28,3.97-1.31.25-3.59-1.17-4.46-3.2-.28-3.97,1.31Z"/>
        <path class="cls-1" d="M449.96,741.49c.96-1.98.31-4.47-1.45-5.55s-3.97-.35-4.94,1.63-.31,4.47,1.45,5.55c1.76,1.08,3.97.35,4.94-1.63Z"/>
        <ellipse class="cls-2" cx="407.18" cy="844.79" rx="1.51" ry="1.7"/>
        <ellipse class="cls-2" cx="1108.93" cy="1967.92" rx="1.51" ry="1.7"/>
        <path class="cls-1" d="M499.59,2126.65c-.54.43-.67,1.27-.29,1.88s1.13.76,1.67.33.67-1.27.29-1.88-1.13-.76-1.67-.33Z"/>
        <path class="cls-1" d="M17.49,1450.41c-.54.43-.67,1.27-.29,1.88s1.13.76,1.67.33.67-1.27.29-1.88-1.13-.76-1.67-.33Z"/>
        <path class="cls-1" d="M.51,2094.78c-.54.43-.67,1.27-.29,1.88s1.13.76,1.67.33.67-1.27.29-1.88-1.13-.76-1.67-.33Z"/>
        <ellipse class="cls-2" cx="683.75" cy="2202.22" rx="1.41" ry="1.59"/>
        <ellipse class="cls-2" cx="201.64" cy="1525.98" rx="1.41" ry="1.59"/>
        <ellipse class="cls-2" cx="184.66" cy="2170.35" rx="1.41" ry="1.59"/>
        <ellipse class="cls-2" cx="655.89" cy="2289.83" rx=".55" ry=".62"/>
        <ellipse class="cls-2" cx="173.78" cy="1613.59" rx=".55" ry=".62"/>
        <ellipse class="cls-2" cx="156.8" cy="2257.96" rx=".55" ry=".62"/>
        <ellipse class="cls-2" cx="818.22" cy="838.78" rx="2.93" ry="3.29"/>
        <ellipse class="cls-2" cx="336.12" cy="162.54" rx="2.93" ry="3.29"/>
        <ellipse class="cls-2" cx="319.14" cy="806.91" rx="2.93" ry="3.29"/>
        <ellipse class="cls-2" cx="1114.29" cy="2429.83" rx="2.93" ry="3.29"/>
        <path class="cls-1" d="M354.88,1926.51c-.32.71-.06,1.58.58,1.94s1.41.06,1.72-.65.06-1.58-.58-1.94-1.41-.06-1.72.65Z"/>
        <path class="cls-1" d="M146.34,1909.15c-.64-.35-1.41-.06-1.72.65s-.06,1.58.58,1.94,1.41.06,1.72-.65.06-1.58-.58-1.94Z"/>
        <path class="cls-1" d="M901.33,2146.63c-.77,1.6-.25,3.59,1.17,4.46s3.2.28,3.97-1.31.25-3.59-1.17-4.46-3.2-.28-3.97,1.31Z"/>
        <path class="cls-1" d="M599.13,892.66c.77-1.6.25-3.59-1.17-4.46-1.42-.87-3.2-.28-3.97,1.31s-.25,3.59,1.17,4.46,3.2.28,3.97-1.31Z"/>
        <path class="cls-1" d="M519.6,1962.89c-1.32,1.04-1.65,3.09-.72,4.58s2.75,1.85,4.08.81,1.65-3.09.72-4.58-2.75-1.85-4.08-.81Z"/>
        <ellipse class="cls-2" cx="1039.52" cy="2070.21" rx="2.93" ry="3.29"/>
        <ellipse class="cls-2" cx="460.94" cy="969.09" rx="2.93" ry="3.29"/>
        <path class="cls-1" d="M670.99,1961.94c-.72,1.63-.13,3.6,1.32,4.41s3.21.14,3.92-1.49.13-3.6-1.32-4.41-3.21-.14-3.92,1.49Z"/>
        <path class="cls-1" d="M1043.81,2492.8c-.77,1.6-.25,3.59,1.17,4.46s3.2.28,3.97-1.31c.77-1.6.25-3.59-1.17-4.46s-3.2-.28-3.97,1.31Z"/>
        <path class="cls-1" d="M456.65,546.5c.77-1.6.25-3.59-1.17-4.46-1.42-.87-3.2-.28-3.97,1.31-.77,1.6-.25,3.59,1.17,4.46,1.42.87,3.2.28,3.97-1.31Z"/>
        <ellipse class="cls-2" cx="694.06" cy="2494.37" rx="2.93" ry="3.29"/>
        <ellipse class="cls-2" cx="806.4" cy="544.92" rx="2.93" ry="3.29"/>
        <path class="cls-1" d="M273.18,1967.41c-.72,1.63-.13,3.6,1.32,4.41s3.21.14,3.92-1.49.13-3.6-1.32-4.41-3.21-.14-3.92,1.49Z"/>
        <path class="cls-1" d="M902.22,2431.94c-.77,1.6-.25,3.59,1.17,4.46s3.2.28,3.97-1.31.25-3.59-1.17-4.46-3.2-.28-3.97,1.31Z"/>
        <path class="cls-1" d="M598.24,607.36c.77-1.6.25-3.59-1.17-4.46-1.42-.87-3.2-.28-3.97,1.31s-.25,3.59,1.17,4.46c1.42.87,3.2.28,3.97-1.31Z"/>
        <ellipse class="cls-2" cx="346.97" cy="2581.46" rx="1.17" ry="1.31"/>
        <ellipse class="cls-2" cx="375.25" cy="2523.84" rx="2.06" ry="2.32"/>
        <ellipse class="cls-2" cx="514.81" cy="2647.57" rx="2.89" ry="3.25"/>
        <ellipse class="cls-2" cx="385.16" cy="2627.77" rx="3.72" ry="4.18"/>
        <ellipse class="cls-2" cx="241.76" cy="2611.25" rx="3.72" ry="4.18"/>
        <ellipse class="cls-2" cx="418.88" cy="2575.7" rx="2.75" ry="3.09"/>
        <ellipse class="cls-2" cx="275.48" cy="2559.18" rx="2.75" ry="3.09"/>
        <ellipse class="cls-2" cx="380.06" cy="2302.08" rx="2.2" ry="2.47"/>
        <ellipse class="cls-2" cx="151.54" cy="2365.45" rx="3.98" ry="4.47"/>
        <ellipse class="cls-2" cx="300.7" cy="2139.26" rx="1.48" ry="1.66"/>
        <ellipse class="cls-2" cx="163.62" cy="2152.87" rx="2.62" ry="2.94"/>
        <ellipse class="cls-2" cx="604" cy="2559.1" rx="2.62" ry="2.94"/>
        <ellipse class="cls-2" cx="460.59" cy="2542.58" rx="2.62" ry="2.94"/>
        <ellipse class="cls-2" cx="794.35" cy="2479.14" rx="4.4" ry="4.95"/>
        <ellipse class="cls-2" cx="650.94" cy="2462.62" rx="4.4" ry="4.95"/>
        <ellipse class="cls-2" cx="802.88" cy="2612.47" rx="1.93" ry="2.17"/>
        <ellipse class="cls-2" cx="659.48" cy="2595.95" rx="1.93" ry="2.17"/>
        <ellipse class="cls-2" cx="705.43" cy="2330.97" rx="1.93" ry="2.17"/>
        <ellipse class="cls-2" cx="562.03" cy="2314.45" rx="1.93" ry="2.17"/>
        <path class="cls-1" d="M407.61,2218.94c-1.32,1.04-1.65,3.09-.72,4.58s2.75,1.85,4.08.81,1.65-3.09.72-4.58-2.75-1.85-4.08-.81Z"/>
        <ellipse class="cls-2" cx="706.26" cy="1832.79" rx="2.48" ry="3.25"/>
        <ellipse class="cls-2" cx="562.86" cy="1816.27" rx="2.48" ry="3.25"/>
        <ellipse class="cls-2" cx="614.46" cy="1740.77" rx="2.62" ry="3.09"/>
        <ellipse class="cls-2" cx="471.05" cy="1724.25" rx="2.62" ry="3.09"/>
        <ellipse class="cls-2" cx="526.51" cy="1693.13" rx="1.1" ry="1.24"/>
        <ellipse class="cls-2" cx="383.11" cy="1676.61" rx="1.1" ry="1.24"/>
        <ellipse class="cls-2" cx="412" cy="1482.17" rx="1.65" ry="1.86"/>
        <ellipse class="cls-2" cx="268.6" cy="1465.65" rx="1.65" ry="1.86"/>
        <ellipse class="cls-2" cx="368.92" cy="1773.76" rx="1.79" ry="2.01"/>
        <ellipse class="cls-2" cx="225.52" cy="1757.23" rx="1.79" ry="2.01"/>
        <ellipse class="cls-2" cx="591.09" cy="2065.05" rx="1.65" ry="1.86"/>
        <ellipse class="cls-2" cx="447.68" cy="2048.53" rx="1.65" ry="1.86"/>
        <ellipse class="cls-2" cx="481.03" cy="124.45" rx="3.64" ry="4.09"/>
        <ellipse class="cls-2" cx="337.62" cy="107.93" rx="3.64" ry="4.09"/>
        <ellipse class="cls-2" cx="1025.29" cy="193.5" rx="4.95" ry="5.57"/>
        <ellipse class="cls-2" cx="881.89" cy="176.98" rx="4.95" ry="5.57"/>
        <ellipse class="cls-2" cx="915.05" cy="22.29" rx="1.79" ry="2.01"/>
        <ellipse class="cls-2" cx="932.51" cy="1045.07" rx="4.42" ry="4.97"/>
        <ellipse class="cls-2" cx="789.11" cy="1028.55" rx="4.42" ry="4.97"/>
        <ellipse class="cls-2" cx="915.75" cy="1503.45" rx="2.34" ry="2.63"/>
        <ellipse class="cls-2" cx="1096.59" cy="1460.52" rx="3.03" ry="3.4"/>
        <ellipse class="cls-2" cx="953.18" cy="1443.99" rx="3.03" ry="3.4"/>
        <ellipse class="cls-2" cx="1026.53" cy="1852.59" rx="4.27" ry="4.79"/>
        <ellipse class="cls-2" cx="883.13" cy="1836.07" rx="4.27" ry="4.79"/>
        <ellipse class="cls-2" cx="444.21" cy="297.75" rx="3.85" ry="4.33"/>
        <ellipse class="cls-2" cx="300.8" cy="281.22" rx="3.85" ry="4.33"/>
        <ellipse class="cls-2" cx="806.73" cy="163.5" rx="3.85" ry="4.33"/>
        <ellipse class="cls-2" cx="663.33" cy="146.97" rx="3.85" ry="4.33"/>
        <ellipse class="cls-2" cx="783.38" cy="364.56" rx="1.1" ry="1.24"/>
        <ellipse class="cls-2" cx="639.98" cy="348.04" rx="1.1" ry="1.24"/>
        <ellipse class="cls-2" cx="633.25" cy="290.75" rx="3.48" ry="3.91"/>
        <ellipse class="cls-2" cx="575.37" cy="24.45" rx="5.64" ry="6.34"/>
        <ellipse class="cls-2" cx="682.72" cy="490.61" rx="3.72" ry="4.18"/>
        <ellipse class="cls-2" cx="711.49" cy="2649.27" rx="1.1" ry="1.24"/>
        <ellipse class="cls-2" cx="659.33" cy="2624.06" rx=".69" ry=".77"/>
        <ellipse class="cls-2" cx="965.84" cy="2584.85" rx="3.03" ry="3.4"/>
        <ellipse class="cls-2" cx="734.89" cy="1016.94" rx="1.65" ry="1.86"/>
        <ellipse class="cls-2" cx="606.2" cy="1237.33" rx=".96" ry="1.08"/>
        <ellipse class="cls-2" cx="999.42" cy="1182.74" rx="1.38" ry="1.55"/>
        <ellipse class="cls-2" cx="404.71" cy="1047.72" rx="2.06" ry="2.32"/>
        <ellipse class="cls-2" cx="353.23" cy="847.58" rx="3.72" ry="4.18"/>
        <ellipse class="cls-2" cx="440" cy="1328.2" rx="2.41" ry="2.7"/>
        <ellipse class="cls-2" cx="457.87" cy="1598.05" rx="1.48" ry="1.66"/>
        <ellipse class="cls-2" cx="339.05" cy="1830.78" rx="2.2" ry="2.47"/>
        <ellipse class="cls-2" cx="1126.87" cy="2262.3" rx="1.93" ry="2.17"/>
        <ellipse class="cls-2" cx="1195.41" cy="2300.97" rx="1.93" ry="2.17"/>
        <ellipse class="cls-2" cx="1160.22" cy="2515.28" rx="1.42" ry="1.6"/>
        <ellipse class="cls-2" cx="1112.69" cy="2487.34" rx="1.24" ry="1.39"/>
        <ellipse class="cls-2" cx="1092.46" cy="2614.94" rx="1.38" ry="1.55"/>
        <ellipse class="cls-2" cx="372.91" cy="358.99" rx="1.38" ry="1.55"/>
        <ellipse class="cls-2" cx="386.54" cy="187.16" rx="2.34" ry="2.63"/>
        <ellipse class="cls-2" cx="386.54" cy="187.16" rx="2.34" ry="2.63"/>
        <ellipse class="cls-2" cx="368.51" cy="682.86" rx=".83" ry=".93"/>
        <ellipse class="cls-2" cx="830.13" cy="1185.68" rx="1.93" ry="2.01"/>
        <ellipse class="cls-2" cx="777.55" cy="1315.75" rx="1.65" ry="1.86"/>
        <ellipse class="cls-2" cx="906.65" cy="1369.88" rx="1.93" ry="2.17"/>
        <ellipse class="cls-2" cx="633.45" cy="518.45" rx="2.06" ry="2.32"/>
        <ellipse class="cls-2" cx="510.68" cy="427.82" rx="2.06" ry="2.32"/>
        <ellipse class="cls-2" cx="466.5" cy="662.75" rx="1.93" ry="2.17"/>
        <ellipse class="cls-2" cx="1191.83" cy="1623.53" rx="1.65" ry="1.86"/>
        <ellipse class="cls-2" cx="1141.92" cy="1706.69" rx="1.45" ry="1.63"/>
        <ellipse class="cls-2" cx="1106.29" cy="955.3" rx="1.45" ry="1.63"/>
        <ellipse class="cls-2" cx="1103.4" cy="147.24" rx="1.45" ry="1.63"/>
        <ellipse class="cls-2" cx="642.57" cy="633.92" rx="1.11" ry="1.25"/>
        <ellipse class="cls-2" cx="666.11" cy="1427.6" rx="1.72" ry="1.49"/>
        <ellipse class="cls-2" cx="547.49" cy="2615.44" rx="1.4" ry="1.3"/>
        <ellipse class="cls-2" cx="1232.49" cy="2611.78" rx="1.4" ry="1.3"/>
        <ellipse class="cls-2" cx="430.93" cy="1812.91" rx="1.4" ry="1.3"/>
        <ellipse class="cls-2" cx="428.13" cy="439.65" rx="1.4" ry="1.3"/>
        <ellipse class="cls-2" cx="802.4" cy="310.8" rx="1.4" ry="1.3"/>
        <ellipse class="cls-2" cx="977.58" cy="307.14" rx="1.4" ry="1.3"/>
        <ellipse class="cls-2" cx="963.74" cy="1284.53" rx="1.4" ry="1.3"/>
        <ellipse class="cls-2" cx="816.25" cy="1280.87" rx="1.4" ry="1.3"/>
        <ellipse class="cls-2" cx="1023.88" cy="2681.7" rx="1.4" ry="1.3"/>
        <ellipse class="cls-2" cx="756.1" cy="2678.04" rx="1.4" ry="1.3"/>
        <ellipse class="cls-2" cx="1047.17" cy="1507.89" rx="1.4" ry="1.3"/>
        <ellipse class="cls-2" cx="732.81" cy="1504.24" rx="1.4" ry="1.3"/>
        <ellipse class="cls-2" cx="589.08" cy="263.3" rx="1.4" ry="1.3"/>
        <ellipse class="cls-2" cx="469.75" cy="1245.02" rx="1.4" ry="1.3"/>
        <ellipse class="cls-2" cx="1310.23" cy="1241.36" rx="1.4" ry="1.3"/>
        <ellipse class="cls-2" cx="1176.1" cy="2180.2" rx="1.71" ry="1.6"/>
        <ellipse class="cls-2" cx="1089.88" cy="1536.66" rx="1.45" ry="1.63"/>
        <ellipse class="cls-2" cx="1054.25" cy="785.27" rx="1.45" ry="1.63"/>
        <ellipse class="cls-2" cx="602.73" cy="503.75" rx="1.11" ry="1.25"/>
        <ellipse class="cls-2" cx="604.44" cy="1271.98" rx="1.72" ry="1.49"/>
        <ellipse class="cls-2" cx="484.93" cy="2614.3" rx="1.39" ry="1.32"/>
        <ellipse class="cls-2" cx="369.62" cy="1798.28" rx="1.39" ry="1.32"/>
        <ellipse class="cls-2" cx="366.85" cy="401.94" rx="1.39" ry="1.32"/>
        <ellipse class="cls-2" cx="737.11" cy="270.93" rx="1.39" ry="1.32"/>
        <ellipse class="cls-2" cx="896.72" cy="1261.02" rx="1.39" ry="1.32"/>
        <ellipse class="cls-2" cx="956.22" cy="2681.68" rx="1.39" ry="1.32"/>
        <ellipse class="cls-2" cx="979.26" cy="1488.14" rx="1.39" ry="1.32"/>
        <ellipse class="cls-2" cx="526.07" cy="222.62" rx="1.39" ry="1.32"/>
        <ellipse class="cls-2" cx="408.02" cy="1220.85" rx="1.39" ry="1.32"/>
        <ellipse class="cls-2" cx="1114.84" cy="2012.98" rx="1.71" ry="1.6"/>
        <ellipse class="cls-2" cx="1179.12" cy="1820.73" rx="1.45" ry="1.63"/>
        <ellipse class="cls-2" cx="1143.49" cy="1069.33" rx="1.45" ry="1.63"/>
        <ellipse class="cls-2" cx="671.05" cy="721.22" rx="1.11" ry="1.25"/>
        <ellipse class="cls-2" cx="710.19" cy="1531.96" rx="1.72" ry="1.49"/>
        <ellipse class="cls-2" cx="723.01" cy="2612.51" rx="1.41" ry="1.3"/>
        <ellipse class="cls-2" cx="605.85" cy="1806.03" rx="1.41" ry="1.3"/>
        <ellipse class="cls-2" cx="603.03" cy="426.02" rx="1.41" ry="1.3"/>
        <ellipse class="cls-2" cx="979.23" cy="296.53" rx="1.41" ry="1.3"/>
        <ellipse class="cls-2" cx="1141.4" cy="1275.04" rx="1.41" ry="1.3"/>
        <ellipse class="cls-2" cx="1201.85" cy="2679.1" rx="1.41" ry="1.3"/>
        <ellipse class="cls-2" cx="1225.26" cy="1499.51" rx="1.41" ry="1.3"/>
        <ellipse class="cls-2" cx="764.81" cy="248.79" rx="1.41" ry="1.3"/>
        <ellipse class="cls-2" cx="644.87" cy="1235.34" rx="1.41" ry="1.3"/>
        <ellipse class="cls-2" cx="1219.9" cy="2292.34" rx="1.71" ry="1.6"/>
        <ellipse class="cls-2" cx="1256.51" cy="1842.63" rx="1.45" ry="1.63"/>
        <ellipse class="cls-2" cx="1220.89" cy="1091.23" rx="1.45" ry="1.63"/>
        <ellipse class="cls-2" cx="730.3" cy="737.98" rx="1.11" ry="1.25"/>
        <ellipse class="cls-2" cx="792.41" cy="1545.22" rx="1.72" ry="1.78"/>
        <ellipse class="cls-2" cx="897.41" cy="2615.35" rx="1.18" ry="1.3"/>
        <ellipse class="cls-2" cx="799.62" cy="1811.76" rx="1.18" ry="1.3"/>
        <ellipse class="cls-2" cx="797.26" cy="436.7" rx="1.18" ry="1.3"/>
        <ellipse class="cls-2" cx="1246.62" cy="1282.68" rx="1.18" ry="1.3"/>
        <ellipse class="cls-2" cx="932.29" cy="260.11" rx="1.18" ry="1.3"/>
        <ellipse class="cls-2" cx="832.19" cy="1243.12" rx="1.18" ry="1.3"/>
        <ellipse class="cls-2" cx="1139.02" cy="1979.1" rx="1.45" ry="1.63"/>
        <ellipse class="cls-2" cx="1103.4" cy="1227.7" rx="1.45" ry="1.63"/>
        <ellipse class="cls-2" cx="1100.5" cy="419.64" rx="1.45" ry="1.63"/>
        <ellipse class="cls-2" cx="640.35" cy="842.46" rx="1.11" ry="1.25"/>
        <ellipse class="cls-2" cx="662.68" cy="1676.91" rx="1.72" ry="1.49"/>
        <ellipse class="cls-2" cx="528.66" cy="2333" rx="1.71" ry="1.81"/>
        <ellipse class="cls-2" cx="386.92" cy="1214.97" rx="1.71" ry="1.81"/>
        <ellipse class="cls-2" cx="425.02" cy="645.03" rx="1.71" ry="1.81"/>
        <ellipse class="cls-2" cx="880.13" cy="465.52" rx="1.71" ry="1.81"/>
        <ellipse class="cls-2" cx="1076.31" cy="1822.06" rx="1.71" ry="1.81"/>
        <ellipse class="cls-2" cx="1107.94" cy="2425.32" rx="1.71" ry="1.81"/>
        <ellipse class="cls-2" cx="1177.76" cy="2133.24" rx="1.71" ry="1.81"/>
        <ellipse class="cls-2" cx="620.73" cy="399.33" rx="1.71" ry="1.81"/>
        <ellipse class="cls-2" cx="475.63" cy="1767.02" rx="1.71" ry="1.81"/>
        <ellipse class="cls-2" cx="1131.19" cy="1104.88" rx="1.71" ry="1.6"/>
      </g>
    </g>
  </g>
</svg>