<?xml version="1.0" encoding="UTF-8"?>
<svg id="Layer_1" data-name="Layer 1" xmlns="http://www.w3.org/2000/svg" viewBox="0 0 856.73 256.75">
  <defs>
    <style>
      .cls-1 {
        fill: #231f20;
      }
    </style>
  </defs>
  <path class="cls-1" d="M165.47,72.27c-5.6-.2-10.6,2.8-13,5-2.6,2.4-3.2,4.2-3.8,4-.4-.2.2-2.6,2.8-5.2,2.2-2.2,7.2-6.2,14.6-5.8,5.8.2,11,4,11,11.4,0,14.8-19.2,32.6-40.2,31.8-14-.4-22.6-5.8-22.2-18,.8-23.4,33-42,69.4-42,15.4,0,25.6,3.8,31.6,7.4,3.4-2.6,9.2-6,14-8,4.6-2,12.8-4.2,20.2-4.2,6.4,0,12.4,1.8,14.6,5.4.4.8.6,1.6,0,1.8-.4,0-.4-.4-1.2-1.2-2.4-2.6-7.2-4.2-13.2-4.2s-13.2,1.6-19,4.2c-5.4,2.4-10.4,5.6-13.2,7.8,7.4,6.2,13.8,18,4,32-8,11.8-23.2,14.4-30,15-3.4.2-8.2,0-10-.6-13.4,14.4-26.8,20.8-33.6,23.6v.2c5.6,1,15.6,3,20.2,3,5.8,0,11.4-1,16.2-4.4,2-1.4,2.2-2,2.6-1.6.4.2.2,1.4-1.8,3.2-4.6,4-11.2,6.8-19.2,6.8-8.8,0-18.4-2-25.6-3.8-8.2,3-20.4,4.2-30.8,4.2-7.2,0-18.2-1-18.2-6.6,0-5.2,8-8.4,20.6-7.8,8.6.4,23.8,3.6,32.2,5.6,11.2-6.6,20.2-17,32-31.2,9.6-11.8,23-28.2,36.4-37.2-4.2-3.2-15.8-7.6-28.4-7.6-33,0-59.6,16.2-61.4,41.2-.6,8,3.8,14.6,13.8,15.2,20,1,37-18.8,37-30.4,0-5-3.6-8.8-8.4-9ZM111.47,130.27c-9.8-.6-17.2-.4-17.2,3.2,0,3.8,10.2,4.6,15.6,4.6,10.2,0,22.2-1.4,27.6-3.4-7-1.4-18.8-4-26-4.4ZM190.87,107.07c9.4-1.2,18-7,24-15.6,7.6-10.8,5.2-21.8.4-26.6-9.2,8-20.8,28.4-27.6,37-2,2.6-3.4,4.2-4.2,5,1.6.4,4.4.6,7.4.2Z"/>
  <path class="cls-1" d="M231.07,118.47c-8.8,6.8-13.6,11.4-22.4,18.2-1.8,1.4-3,1.8-5.2,1.8-2.8,0-4-.4-2.6-3.2,2-3.8,5-8.4,8.4-13.4,2.4-3.4,10-13.6,17.2-22.6,5.2-6.6,11.8-14.6,17.8-21.4,7-7.8,15.4-16.6,24-24.6,2.2-2,4.6-3.4,7.2-3.4,2,0,2.8.4,3,1.4-3.8,3.8-21.4,23.2-29.8,33.2-16.6,19.8-29.2,37.6-34,44.6l.2.2c4.8-4,11.4-9.8,18.4-15,7-5.2,15.8-10.8,21.8-10.8,4.2,0,6.6,2,6.2,5.4-.6,3.6-4.8,8.2-8,12.2-3.2,3.8-5.4,6.8-6.6,8.8-1.4,2.4-1.6,3.8-.8,4.4,1,.8,3.2,0,4.8-.8,2.4-1.2,5-2.6,9.6-6.2,3.4-2.6,7.4-6.2,9.6-8.2,1.6-1.4,2.2-1.6,2.6-1.2s-.2,1.2-1.6,2.6c-1.8,1.8-7.8,7.2-12,10.4-4,3-11.8,8-18,8-4,0-6.2-1.8-6-5.2.2-4.4,4.6-9.4,8.4-14,3-3.6,6-6.8,8.4-9.8.8-1,1.2-2.2.2-2.8s-3.2.2-5.2,1.2c-3.6,1.8-9.2,5.2-15.6,10.2Z"/>
  <path class="cls-1" d="M270.47,120.87c-1.4,1.2-2.2,1.6-2.6,1.2-.4-.6.6-1.6,1.4-2.4,1.4-1.4,4.2-3.6,6.2-5,2.6-1.8,5.4-3.6,9.6-5.8,5.8-3,12-5.2,16.6-5.4,1.4,0,3,0,3,.8,0,.4-.6.4-2.2,1.2-4.8,2.2-8.8,5.6-14.4,11-5.8,5.8-11.2,13.6-11.6,17.6-.2,2,.6,3.4,2.8,3.4,4.4,0,12.4-5.4,18.6-12.2.2-2,1-5,3.6-8.4,2.2-3,5-4.6,6.4-5.2.6-1.4.6-3.6.6-4.6,0-2.2-.8-2.8-.2-3.2.8-.4,2,.4,2.8,1.2,1.6,1.6,2.8,4,2.4,7-.6,4.8-5.2,10.6-11.4,16.2.8.4,3,.2,3.8,0,1.8-.4,4-1.4,6.8-3.4,2.6-1.8,4.2-3.2,6.4-5.2,1.8-1.6,2.8-2.6,3.4-2,.6.6-.6,1.8-2.6,3.6-1.8,1.6-3.8,3.4-6.4,5.2-3.2,2.2-5.6,3.2-7.6,3.6-1.8.4-4.2.4-5.4-.4-5.2,4-14.6,9.8-22.8,9.8-6.2,0-10-3-9.8-8.8.2-4,2.6-8.8,6.4-12.8l-.2-.2-3.6,3.2Z"/>
  <path class="cls-1" d="M320.47,120.67c-1.4,1.2-2,1.4-2.4,1-.4-.4,0-1.2,1.4-2.4l14.6-13c-2.6,0-4.8.2-7.2.2-1.4,0-2.4,0-2.2-1,.2-.8,2.2-1,5.4-1.2,2.6-.2,4.8-.2,5.6-.2,6.2-7.6,14.2-16.4,18.8-20.8,3.6-3.6,8.4-8.2,12.6-8.2,2,0,2.8.6,3,1.2-2.4,2.2-7.6,7.8-12.2,13-4.6,5.2-8.2,9.6-12.2,14.8,4.6-.2,8.2-.2,11.4-.2,1.6,0,3,.2,2.8,1.2-.2,1.2-2,1-3.6,1-4.4,0-7.6,0-12.2.2-4,4.8-10.8,15-14.4,22-1.2,2.2-1.8,5-.2,5.8,1.2.6,3.4,0,5-.8,2.4-1.2,5.8-3.4,9-6,3.6-2.8,7-5.8,9.4-8,1-.8,2.2-2,2.8-1.4.4.4,0,1-1.4,2.4-2.2,2.2-8,7.4-12.2,10.6-3.6,2.8-10.8,8.2-18.4,8.2-4.6,0-6.2-2.6-6-5.6.4-5,5-12.2,10.8-19.8-3.2,2.6-5.6,4.8-8,7Z"/>
  <path class="cls-1" d="M353.67,120.87c-1.4,1.2-2.2,1.6-2.6,1.2-.4-.6.6-1.6,1.4-2.4,1.4-1.4,4.2-3.6,6.2-5,2.6-1.8,5.4-3.6,9.6-5.8,5.8-3,12-5.2,16.6-5.4,1.4,0,3,0,3,.8,0,.4-.6.4-2.2,1.2-4.8,2.2-8.8,5.6-14.4,11-5.8,5.8-11.2,13.6-11.6,17.6-.2,2,.6,3.4,2.8,3.4,4.4,0,12.4-5.4,18.6-12.2.2-2,1-5,3.6-8.4,2.2-3,5-4.6,6.4-5.2.6-1.4.6-3.6.6-4.6,0-2.2-.8-2.8-.2-3.2.8-.4,2,.4,2.8,1.2,1.6,1.6,2.8,4,2.4,7-.6,4.8-5.2,10.6-11.4,16.2.8.4,3,.2,3.8,0,1.8-.4,4-1.4,6.8-3.4,2.6-1.8,4.2-3.2,6.4-5.2,1.8-1.6,2.8-2.6,3.4-2,.6.6-.6,1.8-2.6,3.6-1.8,1.6-3.8,3.4-6.4,5.2-3.2,2.2-5.6,3.2-7.6,3.6-1.8.4-4.2.4-5.4-.4-5.2,4-14.6,9.8-22.8,9.8-6.2,0-10-3-9.8-8.8.2-4,2.6-8.8,6.4-12.8l-.2-.2-3.6,3.2Z"/>
  <path class="cls-1" d="M437.67,103.47c4,.6,5,3.6,4.6,6.8h.2c4.4-5,6.6-6.8,9.6-6.8,3.8,0,4.8.8,2.6,3.2-3.6,4.2-6.4,8-10.4,13.2-3.4,4.4-10.4,14.2-16.4,22.2,4.4-2.6,13.2-8,19.2-12.6,4.4-3.4,8.2-6.4,12.4-10.2,1-1,2-1.4,2.4-1,.6.6-1,2-2,3-3,2.8-7.2,6.2-11.8,9.8-7.2,5.4-15.6,10.6-22,14.2-8.6,12.6-21.6,29.4-27.4,35.8-13.4,14.8-29.4,27.4-41.2,33.6-5.2,2.8-10,4.2-13.8,4.2-5,0-10.4-1.6-9.4-8.4,1.6-12,24.8-28.8,40.4-39,18.4-11.8,26.8-16.2,40.6-24.8,3.6-5,10.2-14,13.4-18.8l-.2-.2c-5.4,4.6-14.2,10.8-21.6,11.2-4.4.2-8.8-1.4-8.2-8,.4-3,2-6.2,5.6-10.4l-.2-.2-2.6,2.4c-.8.6-1.4,1-1.8.6-.4-.6,1-2.2,3.2-4.2.6-.6,3.6-3,5.6-4.4s5.2-3.6,9.2-5.6c7.2-3.8,14.8-6.4,20-5.6ZM373.47,175.06c-16.8,11.2-31.6,25-32.4,35.4-.2,3,1,4.8,3,5.4,3.2,1,9-1,12.6-3.2,9-5.4,20.8-15.8,36.6-36,8-10.2,16.2-21,20.2-26.6-11.8,7.8-21.4,12.6-40,25ZM418.47,118.07c-8.2,8-11.6,13.2-11.2,15.8.2,1.4,1.2,2,2.6,2,3.8,0,11.4-4.4,16.8-9.4,6.4-5.6,13.6-14.2,13.8-17.4.2-2.6-1.4-3.6-3.6-3.6-4,0-11.2,5.4-18.4,12.6Z"/>
  <path class="cls-1" d="M484.66,120.87c-3.4,4-5.8,7.4-6.8,9.4-1,1.8-1,3.2-.2,3.8.8.6,2.2.4,4.4-.8,2.2-1.2,5.8-3.4,9-6,4.4-3.4,6.8-5.4,9.4-7.8,1.4-1.4,2.6-2,3-1.6.6.6-.8,1.8-2.4,3.4-2.4,2.2-6.4,5.8-11.4,9.6-4.2,3.2-11.2,8-17.8,8-4.2,0-6.4-2.2-6.2-5.2.2-4.4,5.2-10,9.6-14.2,4.8-4.6,12.4-10,13-11.4.8-2.2-3-1.6-8-1.6-2,0-3.6,0-4.6-.4-1.6,1.8-4.4,4.6-7.6,7.6l-8,7.4c-1.8,1.6-2.6,2-3,1.6-.4-.4.2-1.4,2.2-3.2l7.8-7.2c2.8-2.6,5.4-5.2,7-7-1.8-1.2-2-4,0-6.4,1.6-2,4.4-3.4,7.6-3.4,1.6,0,3.4.8,3.6,2-1.4,1-2.2,1.6-3.4,2.8-2.6,2.8-2,4.2.6,4.4,5.6.2,11.4.4,11.4,4,0,3-4.8,7-9.2,12.2Z"/>
  <path class="cls-1" d="M551.26,103.47c4.2-.2,4.6.8,2.6,3.2-2.6,3-7,8-11.2,13.2-2.6,3.2-5.2,6.6-7,9.8-1.4,2.4-1.4,4-.6,4.6,1,.8,3,0,4.6-.8,2-1,5.8-3.6,9-6.2,4.2-3.4,7.4-6.2,9.6-8.2,1.2-1,2.2-2,2.8-1.4.6.6-.4,1.6-2.6,3.6-2.6,2.4-7.4,6.6-11.2,9.6-4,3.2-10.6,8-17.2,8-3.8,0-5.6-1.8-5.8-4.2-.2-2.2,1-5,2.8-7.2l-.2-.2c-5.2,4.6-14.4,11.2-22,11.6-4.4.2-9-1.6-8.2-8,.4-3,2-6.2,5.6-10.4l-.2-.2-2.6,2.4c-.8.6-1.4,1-1.8.6-.4-.6.6-1.8,2.8-3.8.6-.6,4-3.4,6-4.8s5.4-3.6,9.2-5.6c7.8-4,14.8-6.4,20-5.6,4,.6,5.4,4.2,4.2,7.6,4.8-5,8.2-7.6,11.4-7.6ZM516.46,118.07c-8.2,8-11.6,13.2-11.2,15.8.2,1.4,1.2,2,2.6,2,3.8,0,11.4-4.4,16.8-9.4,6.4-5.6,13.6-14.2,13.8-17.4.2-2.6-1.4-3.6-3.6-3.6-4,0-11.2,5.4-18.4,12.6Z"/>
  <path class="cls-1" d="M558.46,121.27c-1.6,1.4-2.6,2.4-3.2,1.8-.6-.6.8-2,2.8-3.8l13.6-12.6,18.2-16.6c2.2-2,5-4,7.8-4,4.4,0,3.2,1-.2,5-11.8,13.8-32,40-51.4,66.2-17.6,23.8-22.4,30.4-35.8,51.4-1.6,2.6-1.6,3.6-1.2,4,.6.6,1.6,0,2.6-1.2,2.6-3,9.8-13.4,15.6-21.6,4.2-6,13.4-18.2,23-31,8.2-10.8,16.6-21.6,24.2-30.6,5.2-6,12.2-13,17.6-17,5.4-4,12-7.8,17.2-7.8,4.4,0,6.4,2,6,5.2-.4,3.4-4.6,7.8-8.2,12-3.2,3.6-5.8,6.6-7,8.6-1.6,2.6-1.4,4-.6,4.6,1,.8,3,.6,5.4-.6,2.4-1.2,5.6-3.2,9.2-6,3.6-2.8,6.6-5.4,9.2-7.8,1-1,2.4-2.2,3-1.6s-1,2-1.6,2.6c-2.2,2.2-8.2,7.4-12.2,10.4-4.2,3.2-11.2,8-18,8-5,0-6.8-2.8-6.4-5.8.6-4.2,5.2-9.4,8.8-13.4,3.2-3.6,7.2-8,8.6-10,.8-1.2.8-2.2,0-2.6s-2.8.2-4.4,1c-6.4,3.2-13,8.2-20.8,16.6-6.2,6.8-18.4,22-29,36.2-8.8,11.8-18.2,24.2-24.2,33-6.4,9.4-13.6,19.6-17.2,22.6-1.6,1.4-3.8,2.4-5.8,2-2.2-.4-3.4-2-3.4-4.2,0-4.6,3.6-10.8,7.6-16.8,7.4-11.2,13.6-20,28-39.4,9.6-13.2,32-42.4,42.2-55l-20,18.2Z"/>
  <path class="cls-1" d="M658.06,138.87c-4,0-6.2-1.8-6-5.2.2-4.4,4.6-9.4,8.4-14,3-3.6,6-6.8,8.4-9.8.8-1,1.2-2.2.2-2.8s-3.2.2-5.2,1.2c-3.6,1.8-9.2,5.2-15.6,10.2-8.8,6.8-13.6,11.4-22.4,18.2-1.8,1.4-3,1.8-5.2,1.8-2.8,0-4-.4-2.6-3.2,2-3.8,4.8-8.4,8.2-13.4,1.6-2.4,3.6-5,6-8v-.2l-7.6,6.8c-1.2,1-1.8,1.2-2.2.6-.2-.6.4-1.2,1-1.8.8-.8,8.4-7.4,13-11.2,6.8-9,15.2-19.8,24.2-30,11.6-13.4,36-39,46.4-46.2,5.6-4,11.2-8,17-8,5.2,0,6.8,3.6,6.2,7.2-1.6,9.6-20.8,25.6-41,42.4-12.2,10-26,19.6-40.8,32.6-3.4,3.8-11.8,16-16.6,23l.2.2c4.8-4,11.4-9.8,18.4-15,7-5.2,15.8-10.8,21.8-10.8,4.2,0,6.6,2,6.2,5.4-.6,3.6-4.8,8.2-8,12.2-3.2,3.8-5.4,6.8-6.6,8.8-1.4,2.4-1.6,3.8-.8,4.4,1,.8,3.2,0,4.8-.8,2.4-1.2,5-2.6,9.6-6.2,3.4-2.6,7.4-6.2,9.6-8.2,1.6-1.4,2.2-1.6,2.6-1.2s-.2,1.2-1.6,2.6c-1.8,1.8-7.8,7.2-12,10.4-4,3-11.8,8-18,8ZM687.46,71.27c19.2-16.6,37-32.6,37.8-41.4.2-2.6-1.2-3.8-3.4-3.8-3.4,0-8.8,4-13,8-6.6,6.6-16.2,16.2-26.6,28.6-14.6,17.4-19.8,23.8-30.6,38.2,19-16.6,26.6-21.6,35.8-29.6Z"/>
  <path class="cls-1" d="M729.46,115.07c-4,3.4-11,8.8-16.2,12.8-8.2,6.2-15.4,11-21.4,11-4.2,0-6.6-2.2-6.4-5.8.2-2.2,1.4-5,3.6-8,4-5.6,9.2-11.2,14.2-16-1.4.6-5.8,3.8-8.8,6.2-3,2.4-5,4-7,5.8-1.6,1.4-2.4,2-3,1.6-.4-.4,0-1.2,2.2-3.2,2.2-2,9.4-8,14.2-11.2,5.2-3.6,7.8-4.4,11.6-4.4,4.2,0,4.6.6,2.2,3.2-2.6,2.8-6.4,7.4-10.4,12.4-3.2,4.2-6.4,8.6-7.4,10.8-.8,1.6-.8,3-.2,3.6.8.8,2.6.4,4.6-.6,4.4-2.4,8.8-5.4,15-10.2,9.6-7.4,15.2-12.4,21.6-17.4,1.6-1.2,2.8-2.2,5.8-2.2,3.4,0,5,.4,2.8,3-3.2,4.2-8,10.4-12,15.6-3.4,4.4-11.4,14.8-26.4,35.4-17.6,24-36.8,51.2-50.8,75.2-1.8,3-1.2,3.8-.8,4,.6.2,1.6.2,2.8-1.2,3.2-3.4,11.2-14,16.4-21.4,4.8-6.8,24.6-35,39.8-54.2,20.8-26,33.6-41.2,43.2-50.4,16.2-15.6,32.2-29.4,46.4-33.4,3.8-1,6.6-1,6.2,0-.4.8-1.8,0-5.4,1.4-12,4.4-31,19.8-45.6,34-9.4,9-22.8,24.6-43,49.8-14.4,17.8-35.8,48.4-41.8,56.8-4.8,6.8-14.2,19.4-18,22.4-2,1.6-4.2,2.4-6.2,2s-3.2-1.8-3.4-4.2c-.2-4.4,3.2-10.6,7-16.8,10.6-17.4,27.8-42.2,42.8-63.4,9.4-13.4,20-26.8,32-42.8l-.2-.2Z"/>
</svg>